<svg width="151" height="32" viewBox="0 0 151 32" fill="none" xmlns="http://www.w3.org/2000/svg">
<g clip-path="url(#clip0_1_134)">
<path d="M44.0442 0.000976562C40.0565 0.000976562 37.7815 2.25909 37.7815 5.99738C37.7815 9.61849 40.0573 11.9559 43.9668 11.9559C47.5653 11.9559 49.6652 10.1066 50.0156 7.16657H47.2925C47.0391 8.84146 46.0085 9.85378 43.9861 9.85378C41.7498 9.85378 40.4271 8.54986 40.4271 5.97892C40.4271 3.40797 41.6133 2.10405 43.9861 2.10405C45.9311 2.10405 46.9423 3.07669 47.2141 4.77097H49.9178C49.5676 1.92873 47.7202 0.000976562 44.0442 0.000976562Z" fill="#051414"/>
<path fill-rule="evenodd" clip-rule="evenodd" d="M56.9771 11.9559C60.7888 11.9559 63.1227 9.63877 63.1227 5.93924C63.1227 2.08468 60.5749 0.000976562 56.9771 0.000976562C53.1656 0.000976562 50.8315 2.16311 50.8315 6.01767C50.8315 9.87225 53.3794 11.9559 56.9771 11.9559ZM56.9771 2.10313C59.0779 2.10313 60.4781 3.32954 60.4781 6.01676C60.4781 8.62553 59.1941 9.85194 56.9771 9.85194C54.8765 9.85194 53.4762 8.54709 53.4762 5.93831C53.4762 3.32954 54.7603 2.10313 56.9771 2.10313Z" fill="#051414"/>
<path d="M67.1484 0.194712H64.5425V11.7612H67.1484V3.91454C67.8297 2.6097 68.7625 2.00618 70.2604 2.00618C72.1271 2.00618 73.0802 2.86347 73.0802 4.73216V11.7603H75.6862V4.36118C75.6862 1.59646 74.1697 0 71.4855 0C69.1129 0 67.8094 1.22733 67.1484 3.27134V0.194712Z" fill="#051414"/>
<path d="M79.4982 8.21629H76.7751C77.0665 10.5335 78.7985 11.9555 82.5327 11.9555C86.2668 11.9555 87.8422 10.4172 87.8422 8.3538C87.8422 6.60231 87.0062 5.39435 84.4777 5.10274L80.9961 4.69394C79.9655 4.57674 79.5959 4.16794 79.5959 3.4869C79.5959 2.6693 80.2182 2.0464 82.2019 2.0464C84.1855 2.0464 84.8657 2.70805 85.0215 3.72037H87.7252C87.3942 1.5204 85.9737 0.00146484 82.2793 0.00146484C78.5847 0.00146484 77.0868 1.57854 77.0868 3.64194C77.0868 5.45248 78.0399 6.54323 80.5878 6.83485L83.9329 7.22427C85.0419 7.36085 85.3331 7.82779 85.3331 8.45069C85.3331 9.28767 84.5745 9.91056 82.5908 9.91056C80.6071 9.91056 79.7121 9.36519 79.4982 8.21629Z" fill="#051414"/>
<path fill-rule="evenodd" clip-rule="evenodd" d="M88.8337 6.0167C88.8337 9.40432 90.9344 11.955 94.8632 11.955C98.1502 11.955 100.173 10.3973 100.756 8.02197H98.0912C97.7022 9.17085 96.7104 9.85189 94.9406 9.85189C92.9761 9.85189 91.7125 8.70299 91.4792 6.6396H100.834C100.853 2.58939 99.1024 0 94.8825 0C91.0893 0 88.8337 2.43437 88.8337 6.0167ZM98.0912 4.86781H91.5179C91.8489 3.0185 93.0545 2.04494 94.8632 2.04494C96.9243 2.04494 97.9161 3.15416 98.0912 4.86781Z" fill="#051414"/>
<path d="M104.722 0.194712H102.117V11.7612H104.722V3.91454C105.404 2.6097 106.337 2.00618 107.834 2.00618C109.701 2.00618 110.654 2.86347 110.654 4.73216V11.7603H113.26V4.36118C113.26 1.59646 111.744 0 109.06 0C106.687 0 105.383 1.22733 104.722 3.27134V0.194712Z" fill="#051414"/>
<path d="M117.072 8.21629H114.349C114.641 10.5335 116.373 11.9555 120.107 11.9555C123.841 11.9555 125.416 10.4172 125.416 8.3538C125.416 6.60231 124.58 5.39435 122.052 5.10274L118.57 4.69394C117.54 4.57674 117.17 4.16794 117.17 3.4869C117.17 2.6693 117.792 2.0464 119.776 2.0464C121.76 2.0464 122.44 2.70805 122.596 3.72037H125.299C124.969 1.5204 123.548 0.00146484 119.854 0.00146484C116.159 0.00146484 114.661 1.57854 114.661 3.64194C114.661 5.45248 115.614 6.54323 118.162 6.83485L121.507 7.22427C122.616 7.36085 122.907 7.82779 122.907 8.45069C122.907 9.28767 122.149 9.91056 120.165 9.91056C118.181 9.91056 117.286 9.36519 117.072 8.21629Z" fill="#051414"/>
<path d="M132.999 14.6031L137.842 0.195312H135.118L131.773 10.3194L128.291 0.195312H125.414L129.206 10.4948H131.715L131.073 12.4613H126.678V14.6031H132.999Z" fill="#051414"/>
<path d="M140.525 8.21776H137.802C138.094 10.5349 139.826 11.957 143.56 11.957C147.294 11.957 148.87 10.4187 148.87 8.35525C148.87 6.60376 148.033 5.39581 145.505 5.10421L142.023 4.69541C140.993 4.57821 140.623 4.16941 140.623 3.48837C140.623 2.67077 141.245 2.04787 143.229 2.04787C145.213 2.04787 145.893 2.70952 146.049 3.72184H148.752C148.422 1.52187 147.001 0.00292969 143.306 0.00292969C139.612 0.00292969 138.114 1.58001 138.114 3.64341C138.114 5.45395 139.067 6.5447 141.615 6.83632L144.96 7.22574C146.069 7.36232 146.36 7.82925 146.36 8.45214C146.36 9.28914 145.602 9.91203 143.618 9.91203C141.634 9.91203 140.739 9.36666 140.525 8.21776Z" fill="#051414"/>
<path fill-rule="evenodd" clip-rule="evenodd" d="M31.7698 16.0981V11.7608V0.195312H20.217H15.8846C7.11188 0.195312 0.000244141 7.31476 0.000244141 16.0971C0.000244141 24.8795 7.11279 31.9999 15.8855 31.9999C24.6582 31.9999 31.7698 24.8803 31.7698 16.0981ZM12.2748 8.14622L20.217 0.195312V11.7608H31.7698L23.8258 19.7154H12.2748V8.14622Z" fill="#051414"/>
</g>
<defs>
<clipPath id="clip0_1_134">
<rect width="150.4" height="32" fill="white"/>
</clipPath>
</defs>
</svg>
