<svg width="24" height="24" viewBox="0 0 24 24" fill="none" xmlns="http://www.w3.org/2000/svg">
<g clip-path="url(#clip0_2039_230)">
<path d="M21.5837 0.75293H2.41366C2.40766 0.75293 2.40091 0.75293 2.39341 0.75293C1.49416 0.75293 0.764406 1.47593 0.753906 2.37218V21.6262C0.764406 22.5232 1.49416 23.2469 2.39341 23.2469C2.40091 23.2469 2.40766 23.2469 2.41516 23.2469H21.5814C21.5874 23.2469 21.5949 23.2469 21.6024 23.2469C22.5024 23.2469 23.2337 22.5247 23.2479 21.6277V21.6262V2.37368C23.2337 1.47593 22.5024 0.75293 21.6017 0.75293C21.5942 0.75293 21.5874 0.75293 21.5799 0.75293H21.5837ZM7.42516 19.9214H4.08466V9.18818H7.42516V19.9214ZM5.75566 7.71968C4.68691 7.71968 3.82141 6.85343 3.82141 5.78543C3.82141 4.71743 4.68766 3.85118 5.75566 3.85118C6.82366 3.85118 7.68991 4.71668 7.68991 5.78468C7.68991 5.78543 7.68991 5.78618 7.68991 5.78768C7.68991 6.85493 6.82441 7.72043 5.75716 7.72043C5.75641 7.72043 5.75566 7.72043 5.75491 7.72043L5.75566 7.71968ZM19.9172 19.9214H16.5864V14.7022C16.5864 13.4572 16.5609 11.8559 14.8509 11.8559C13.1139 11.8559 12.8492 13.2104 12.8492 14.6107V19.9222H9.51841V9.18893H12.7179V10.6522H12.7614C13.3824 9.60593 14.5059 8.91593 15.7907 8.91593C15.8364 8.91593 15.8814 8.91668 15.9264 8.91818H15.9197C19.2947 8.91818 19.9187 11.1397 19.9187 14.0309V19.9222L19.9172 19.9214Z" fill="#051414" fill-opacity="0.8"/>
</g>
<defs>
<clipPath id="clip0_2039_230">
<rect width="24" height="24" fill="white"/>
</clipPath>
</defs>
</svg>
