<svg width="24" height="24" viewBox="0 0 24 24" fill="none" xmlns="http://www.w3.org/2000/svg">
<path d="M22.078 0.00215237H2.05481C1.79673 -0.00993652 1.53878 0.0289853 1.29576 0.116712C1.05274 0.204439 0.829409 0.339231 0.638537 0.513365C0.447679 0.687514 0.293028 0.8976 0.183463 1.13158C0.0738985 1.36557 0.0115489 1.61887 0 1.87698V21.9452C0.0151186 22.4853 0.236468 22.9993 0.618588 23.3813C1.00071 23.7635 1.51462 23.9849 2.05481 24H22.078C22.6031 23.9766 23.0982 23.7483 23.4571 23.3642C23.816 22.9801 24.0101 22.4707 23.9978 21.9452V1.87698C24.0022 1.62575 23.9551 1.37631 23.8595 1.14392C23.764 0.911549 23.6219 0.701133 23.4421 0.525574C23.2624 0.35003 23.0487 0.213063 22.8141 0.123057C22.5795 0.0330499 22.3291 -0.00809169 22.078 0.00215237ZM7.49931 20.0104H4.00463V9.31635H7.49931V20.0104ZM5.83447 7.69645C5.5906 7.70495 5.34761 7.66293 5.12077 7.57302C4.89392 7.48312 4.68811 7.34728 4.51628 7.17403C4.34444 7.00078 4.21028 6.79388 4.12224 6.5663C4.03418 6.33873 3.99415 6.0954 4.00463 5.85162C3.99385 5.60519 4.03469 5.35924 4.12455 5.12954C4.2144 4.89982 4.35128 4.69143 4.52639 4.51773C4.70151 4.34402 4.911 4.20883 5.14142 4.12085C5.37186 4.03285 5.61814 3.99401 5.86446 4.00679C6.10833 3.9983 6.35132 4.04031 6.57816 4.13021C6.80501 4.22011 7.01082 4.35595 7.18265 4.5292C7.35449 4.70245 7.48865 4.90936 7.57669 5.13693C7.66475 5.36451 7.70478 5.60783 7.6943 5.85162C7.70508 6.09804 7.66424 6.34399 7.57438 6.5737C7.48452 6.80342 7.34765 7.01181 7.17254 7.18551C6.99742 7.35922 6.78793 7.4944 6.55751 7.58238C6.32707 7.67038 6.08079 7.70923 5.83447 7.69645ZM20.0082 20.0104H16.4985V14.1609C16.4985 12.766 16.0035 11.8061 14.7587 11.8061C14.372 11.8094 13.9957 11.9323 13.6816 12.1578C13.3674 12.3834 13.1307 12.7006 13.0038 13.066C12.9063 13.3399 12.8655 13.6307 12.8838 13.9209V20.0104H9.43414V9.31635H12.8838V10.8162C13.1905 10.2527 13.647 9.78505 14.2028 9.46468C14.7587 9.14446 15.3922 8.9841 16.0335 9.00133C18.2983 9.00133 20.0082 10.5012 20.0082 13.6959V20.0104Z" fill="#051414"/>
</svg>
