<svg width="56" height="77" viewBox="0 0 56 77" fill="none" xmlns="http://www.w3.org/2000/svg">
<g clip-path="url(#clip0_2016_1333)">
<path d="M0.0449219 60.9131H2.7538C5.08823 60.9131 5.97794 62.1909 5.97794 64.4246V65.0568C5.97794 67.2789 5.3235 67.9344 4.66906 68.2248C5.35498 68.5002 6.24965 69.1541 6.24965 71.3778V72.5577C6.24965 75.2494 5.31687 76.6334 2.88468 76.6334H0.0449219V60.9131ZM2.5848 67.4199C3.81912 67.4199 4.19025 66.937 4.19025 65.2659V64.6137C4.19025 63.2579 3.75119 62.6705 2.63948 62.6705H1.87569V67.4199H2.5848ZM1.87569 74.8942H2.67758C4.04279 74.8942 4.38244 74.1956 4.38244 72.5096V71.4458C4.38244 69.8361 3.95498 69.1441 2.57983 69.1441H1.87569V74.8942Z" fill="white"/>
<path d="M9.61795 69.4727V76.6334H7.72754V60.9131H10.5093C12.6433 60.9131 13.8146 61.8972 13.8146 64.6287V65.2775C13.8146 67.5742 13.0161 68.2994 12.3798 68.5699C13.2331 68.9749 13.6804 69.6735 13.6804 71.7943C13.6804 73.1269 13.6589 75.6642 13.813 76.6334H11.9822C11.7983 75.6709 11.8348 73.0638 11.8348 71.9387C11.8348 69.9722 11.5978 69.4727 10.279 69.4727H9.61795ZM9.61795 67.717H10.2939C11.5233 67.717 11.9159 67.0731 11.9159 65.3771V64.7697C11.9159 63.462 11.6376 62.6721 10.3287 62.6721H9.6163V67.717H9.61795Z" fill="white"/>
<path d="M20.4965 69.2712H17.3702V74.6961H20.9505L20.7053 76.6343H15.4797V60.9141H20.6722V62.8689H17.3718V67.3329H20.4982V69.2712H20.4965Z" fill="white"/>
<path d="M23.5334 76.6334L21.5867 60.9131H23.5997C23.9708 64.4876 24.5192 70.2892 24.6302 73.0505H24.6667C24.9367 70.0602 25.6806 64.4743 26.1114 60.9131H27.9803C28.426 64.554 29.1632 69.7565 29.4035 72.9543H29.4515C29.6139 70.0452 30.1706 64.5938 30.5417 60.9131H32.4603L30.3545 76.6334H28.3862C27.9621 73.0439 27.2761 67.9991 26.9978 65.0303H26.9613C26.6482 68.1352 25.9358 73.1385 25.4851 76.6334H23.5334Z" fill="white"/>
<path d="M33.7293 60.9131H36.5525C39.5662 60.9131 40.1494 62.7966 40.1494 65.5381V71.6416C40.1494 74.0496 39.7949 76.6334 36.5094 76.6334H33.7277V60.9131H33.7293ZM35.6214 74.8278H36.3835C37.9293 74.8278 38.2242 73.7807 38.2242 71.9719V65.3422C38.2242 63.7408 37.9691 62.7352 36.3802 62.7352H35.6214V74.8278Z" fill="white"/>
<path d="M48.1303 64.9556V72.5411C48.1303 75.4485 47.0368 76.8557 44.7686 76.8557C42.522 76.8557 41.5892 75.3572 41.5892 72.5743V64.9456C41.5892 62.078 42.8352 60.6924 44.8912 60.6924C47.007 60.6924 48.1303 62.1577 48.1303 64.9556ZM43.5161 64.7847V72.7967C43.5161 74.2968 44.0032 74.949 44.8548 74.949C45.7644 74.949 46.2034 74.33 46.2034 72.7452V64.7747C46.2034 63.3492 45.7876 62.6141 44.8498 62.6141C43.9684 62.6141 43.5161 63.2945 43.5161 64.7847Z" fill="white"/>
<path d="M55.9372 76.6331H54.4543C54.403 76.3642 54.3616 75.7204 54.3467 75.3768C53.9706 76.4738 53.1604 76.8538 52.2458 76.8538C50.2229 76.8538 49.5668 75.2092 49.5668 72.6072V65.0217C49.5668 62.4495 50.478 60.6904 52.7744 60.6904C55.523 60.6904 55.8925 62.9108 55.8925 64.7296V65.1926H54.002V64.6433C54.002 63.7007 53.891 62.6121 52.7677 62.6121C51.8962 62.6121 51.4936 63.256 51.4936 64.7362V72.803C51.4936 74.1837 51.8349 74.9802 52.723 74.9802C53.8132 74.9802 54.0401 73.9099 54.0401 72.1292V69.7479H52.6667V67.9241H55.9372V76.6331Z" fill="white"/>
<path d="M47.7628 2.31006V39.1802C47.7628 41.2047 46.9039 43.585 44.7335 46.2866L44.712 46.313C43.0155 48.4204 40.5819 50.6457 37.4093 52.9058L37.3527 52.9458C34.687 54.8392 31.8804 56.4537 29.715 57.6021C28.7656 58.1065 27.9485 58.5165 27.3322 58.8169C26.7159 58.5165 25.8989 58.1048 24.9513 57.6021C22.771 56.4437 19.9392 54.8157 17.257 52.9058C14.0645 50.6373 11.6241 48.4017 9.9259 46.2876L9.8927 46.2466C9.8927 46.2466 9.8927 46.2463 9.8927 46.2446C7.74727 43.5613 6.8976 41.195 6.89758 39.1821V2.32373L22.4728 0.034668C23.7469 1.21954 25.4537 1.94873 27.3292 1.94873C29.2113 1.94869 30.9227 1.21442 32.1984 0.0229492L47.7628 2.31006ZM39.4142 8.66748C39.2154 8.37209 38.8616 8.58002 38.9064 8.91357C39.6353 14.1738 38.2107 17.831 37.0079 19.98C36.7645 19.6151 36.4961 19.2701 36.2013 18.9517C36.1831 18.9334 36.161 18.9212 36.1378 18.9146C36.115 18.9081 36.0904 18.9081 36.0675 18.9146C36.0444 18.9212 36.0222 18.9345 36.004 18.9526C35.9859 18.9708 35.9726 18.9943 35.9659 19.019C35.7158 19.7575 35.671 20.7007 35.671 20.7007L35.0382 19.813C35.0234 19.7899 35.0036 19.7728 34.9806 19.7612C34.9574 19.7496 34.9302 19.7459 34.9054 19.7476C34.879 19.7492 34.8556 19.7583 34.8341 19.7749C34.8127 19.7914 34.7958 19.8117 34.7843 19.8364C33.9015 21.479 33.6186 23.2343 33.5275 24.1089C31.3753 25.8613 26.87 28.4965 20.9337 26.6362C13.434 24.2865 11.4725 16.9113 11.2833 16.1968C11.2751 16.1653 11.2694 16.1471 11.2677 16.1421C11.2544 16.1122 11.2334 16.0851 11.2052 16.0669C11.1787 16.0487 11.1449 16.0408 11.1134 16.0425C11.0804 16.0442 11.0493 16.0578 11.0245 16.0776C10.9997 16.0975 10.9798 16.1256 10.9698 16.1587C10.5987 17.304 10.1962 24.2724 14.8351 29.9526C15.3801 30.6279 15.9737 31.2568 16.6115 31.8325C15.137 32.853 12.4018 35.551 11.212 36.7261C11.1574 36.7792 11.1058 36.831 11.0577 36.8774C10.7115 37.2176 10.9863 37.4465 11.1984 37.3735C11.6871 37.2059 12.3038 36.9482 13.046 36.6362C14.1178 36.1849 15.4531 35.6259 17.0499 35.0718C16.0373 35.7773 12.6316 38.6729 11.3361 39.8843C10.8672 40.3224 11.1505 40.644 11.4669 40.5278C11.9241 40.3602 12.4906 40.1245 13.1515 39.8491C16.2215 38.5697 21.3431 36.4341 27.1486 36.4341C32.9969 36.4341 38.292 38.6358 41.3273 39.897C41.9701 40.1641 42.5106 40.3908 42.9347 40.5435C43.198 40.6376 43.4923 40.3026 43.13 39.9692C41.6109 38.5754 37.9994 35.7263 37.0099 35.0737C38.4976 35.5915 39.848 36.1172 40.963 36.5503C41.8741 36.9037 42.626 37.1963 43.171 37.3755C43.4013 37.4585 43.6141 37.2171 43.3292 36.9019C42.1661 35.6158 38.9082 32.9146 37.5314 32.0649C40.1707 29.6985 46.3588 22.5953 42.8546 12.7778C42.7782 12.5677 42.4822 12.6306 42.4835 12.8823C42.5051 16.8501 41.5382 19.3833 41.5382 19.3833C42.1098 14.9426 40.9981 11.019 39.4142 8.66748ZM37.4288 22.4448C37.8446 22.4448 38.1807 22.803 38.1808 23.2427C38.1808 23.6824 37.8447 24.0415 37.4288 24.0415C37.013 24.0415 36.6769 23.6841 36.6769 23.2427C36.677 22.803 37.0131 22.4449 37.4288 22.4448Z" fill="white"/>
</g>
<defs>
<clipPath id="clip0_2016_1333">
<rect width="56" height="77" fill="white"/>
</clipPath>
</defs>
</svg>
