<svg width="108" height="48" viewBox="0 0 108 48" fill="none" xmlns="http://www.w3.org/2000/svg">
<g clip-path="url(#clip0_2017_3058)">
<path fill-rule="evenodd" clip-rule="evenodd" d="M0 0H7.88924C9.19439 0 10.2988 0.150785 11.2023 0.452354C12.1059 0.757132 12.8443 1.15816 13.4111 1.65863C13.981 2.1559 14.3891 2.73658 14.6417 3.39105C14.8943 4.04873 15.0206 4.73207 15.0206 5.43788C15.0206 6.10839 14.9008 6.69548 14.6579 7.20559C14.415 7.71569 14.1333 8.15521 13.8062 8.51773C13.4791 8.88347 13.1325 9.169 12.7633 9.37753C12.3974 9.58606 12.0962 9.7208 11.8662 9.78497C12.2225 9.89084 12.6435 10.0448 13.1261 10.2534C13.6313 10.4619 14.1074 10.7699 14.5478 11.1773C14.9883 11.5816 15.3639 12.0949 15.6684 12.7076C15.9728 13.3236 16.125 14.0454 16.125 14.8796C16.125 15.9639 15.9307 16.8815 15.5421 17.6322C15.1534 18.3829 14.6061 18.9957 13.9001 19.4769C13.1973 19.9549 12.3326 20.3046 11.3124 20.5228C10.2923 20.7409 9.15229 20.85 7.88924 20.85H0V0ZM7.44879 8.3477C7.80503 8.3477 8.15804 8.30599 8.50457 8.22258C8.8511 8.13917 9.15553 8.00763 9.42109 7.83118C9.68342 7.65473 9.89717 7.41412 10.0656 7.11255C10.234 6.81098 10.3182 6.43883 10.3182 6.00252C10.3182 5.54375 10.234 5.16197 10.0656 4.8604C9.89717 4.55883 9.67694 4.31822 9.4049 4.14177C9.12962 3.96532 8.81871 3.8402 8.47218 3.76641C8.12565 3.69262 7.78236 3.65733 7.44879 3.65733H4.63768V8.3477H7.44879ZM7.73054 17.2248C8.06736 17.2248 8.44627 17.1991 8.86729 17.1478C9.28831 17.0964 9.67694 16.9745 10.0364 16.7884C10.3927 16.5992 10.6939 16.3297 10.9335 15.9736C11.1764 15.6207 11.2962 15.1298 11.2962 14.5042C11.2962 13.9428 11.1829 13.484 10.9497 13.1311C10.7198 12.775 10.4251 12.4991 10.0656 12.3002C9.70933 12.1045 9.3207 11.9665 8.89968 11.896C8.47866 11.8222 8.09003 11.7869 7.73054 11.7869H4.63768V17.2248H7.73054Z" fill="white"/>
<path fill-rule="evenodd" clip-rule="evenodd" d="M18.075 20.85H22.65V0H18.075V20.85Z" fill="white"/>
<path fill-rule="evenodd" clip-rule="evenodd" d="M57.4926 18.7965C56.8819 19.4611 56.0805 20.0331 55.0852 20.5092C54.0867 20.9853 52.9073 21.225 51.5404 21.225C50.3448 21.225 49.259 21.0333 48.2831 20.6498C47.3072 20.2664 46.4735 19.7264 45.7788 19.0298C45.0872 18.3363 44.5444 17.5087 44.1566 16.5533C43.7688 15.6011 43.575 14.553 43.575 13.409C43.575 12.3322 43.7753 11.3192 44.1728 10.3734C44.5735 9.43074 45.1228 8.60312 45.8272 7.90013C46.5285 7.19395 47.3686 6.63795 48.3445 6.23213C49.3204 5.82951 50.3868 5.625 51.5404 5.625C52.8846 5.625 54.0512 5.84229 55.0368 6.28006C56.0223 6.71464 56.8528 7.2962 57.525 8.02475L54.7847 10.9518C54.4486 10.5779 54.0383 10.2456 53.5568 9.95478C53.0721 9.664 52.4322 9.51701 51.6373 9.51701C51.0912 9.51701 50.6033 9.62566 50.1703 9.84614C49.7405 10.0634 49.3753 10.3478 49.0683 10.7025C48.7646 11.054 48.5352 11.463 48.3768 11.9295C48.2185 12.3993 48.1409 12.8914 48.1409 13.409C48.1409 13.8883 48.2185 14.3613 48.3768 14.8278C48.5352 15.2943 48.7646 15.7097 49.0683 16.0708C49.3753 16.4351 49.7405 16.7323 50.1703 16.9591C50.6033 17.1892 51.0912 17.301 51.6373 17.301C52.4129 17.301 53.0624 17.1509 53.5891 16.8505C54.1126 16.5501 54.5327 16.2242 54.8493 15.8695L57.4926 18.7965Z" fill="white"/>
<path fill-rule="evenodd" clip-rule="evenodd" d="M58.875 0H63.4182V10.8148L67.9323 6.18859H73.0746L67.7737 11.5976L73.8 20.85H68.5314L64.7427 14.6614L63.4182 16.0056V20.85H58.875V0Z" fill="white"/>
<path fill-rule="evenodd" clip-rule="evenodd" d="M8.22607 24.8672H16.0614C17.2802 24.8672 18.3533 25.04 19.2804 25.3824C20.2075 25.7248 20.9823 26.192 21.6047 26.784C22.2239 27.376 22.6875 28.0672 22.9922 28.8576C23.2969 29.648 23.4525 30.4897 23.4525 31.3825C23.4525 32.7361 23.151 33.9137 22.5513 34.9249C21.9516 35.9329 21.1023 36.7361 20.0098 37.3409L24.6844 45.6642H19.4392L15.5232 38.0257H12.8682V45.6642H8.22607V24.8672ZM15.8085 34.2529C16.6902 34.2529 17.3872 33.9937 17.8929 33.4721C18.3986 32.9537 18.6515 32.2977 18.6515 31.5073C18.6515 30.6561 18.3986 29.9808 17.8929 29.4816C17.3872 28.9824 16.6902 28.7328 15.8085 28.7328H12.8682V34.2529H15.8085Z" fill="white"/>
<path fill-rule="evenodd" clip-rule="evenodd" d="M57.8035 43.7321C57.194 44.3977 56.3868 44.9705 55.3884 45.4473C54.3867 45.9241 53.2034 46.1641 51.8322 46.1641C50.6327 46.1641 49.5435 45.9721 48.5645 45.5881C47.5855 45.2041 46.7491 44.6633 46.0522 43.9657C45.3584 43.2712 44.8171 42.4424 44.4248 41.4856C44.0358 40.532 43.8413 39.4824 43.8413 38.3368C43.8413 37.2584 44.0423 36.244 44.441 35.2968C44.843 34.3527 45.3941 33.5239 46.1008 32.8199C46.8043 32.1127 47.6471 31.5559 48.6261 31.1495C49.6051 30.7463 50.6749 30.5415 51.8322 30.5415C53.1808 30.5415 54.351 30.7623 55.3397 31.1975C56.3285 31.6327 57.1616 32.2151 57.8359 32.9447L55.0869 35.876C54.7498 35.5016 54.3381 35.1688 53.855 34.8776C53.3688 34.5864 52.7269 34.4391 51.9294 34.4391C51.3816 34.4391 50.8921 34.548 50.4577 34.7688C50.0265 34.9864 49.6602 35.2712 49.3523 35.6232C49.0475 35.9784 48.8174 36.388 48.6585 36.8552C48.4997 37.3256 48.4219 37.8184 48.4219 38.3368C48.4219 38.8168 48.4997 39.2904 48.6585 39.7576C48.8174 40.2248 49.0475 40.6408 49.3523 41.0024C49.6602 41.3672 50.0265 41.6648 50.4577 41.892C50.8921 42.1224 51.3816 42.2344 51.9294 42.2344C52.7075 42.2344 53.359 42.084 53.8875 41.7832C54.4126 41.4824 54.834 41.156 55.1485 40.8008L57.8035 43.7321Z" fill="white"/>
<path fill-rule="evenodd" clip-rule="evenodd" d="M58.95 24.8252H63.4932V35.64L68.0073 31.0138H73.1496L67.8486 36.4228L73.875 45.6752H68.6064L64.8176 39.4866L63.4932 40.8308V45.6752H58.95V24.8252Z" fill="white"/>
<path fill-rule="evenodd" clip-rule="evenodd" d="M87.7493 44.0863C87.5807 44.1916 87.3279 44.3608 86.9908 44.6002C86.6538 44.8396 86.2162 45.0726 85.6814 45.2993C85.1434 45.5291 84.5082 45.7302 83.7692 45.9057C83.0334 46.0813 82.1908 46.1707 81.2444 46.1707C79.9803 46.1707 78.8427 45.9792 77.8315 45.5961C76.8235 45.2131 75.9646 44.6768 75.258 43.9937C74.5547 43.3075 74.0167 42.4839 73.6472 41.52C73.2809 40.556 73.0962 39.493 73.0962 38.3312C73.0962 37.3161 73.268 36.3362 73.618 35.3945C73.9648 34.4497 74.4639 33.6262 75.1154 32.9207C75.7701 32.2153 76.5707 31.6503 77.5171 31.2258C78.4635 30.8013 79.5395 30.5874 80.7387 30.5874C81.938 30.5874 82.9913 30.7949 83.8956 31.2098C84.8031 31.6248 85.5648 32.1994 86.1871 32.9367C86.8061 33.6709 87.2761 34.5518 87.5905 35.5797C87.9081 36.6075 88.0637 37.7311 88.0637 38.9536V39.7005H77.5171C77.5365 40.4889 77.8898 41.1784 78.5737 41.7689C79.2575 42.3594 80.2007 42.6563 81.3999 42.6563C82.5797 42.6563 83.5391 42.4839 84.2748 42.1424C85.0105 41.8009 85.5486 41.504 85.8856 41.255L87.7493 44.0863ZM83.7692 36.8405C83.7692 36.5277 83.7076 36.2117 83.5812 35.8893C83.4548 35.5701 83.2636 35.2732 83.0108 35.0051C82.758 34.7338 82.4436 34.5104 82.0644 34.3348C81.6851 34.1592 81.2314 34.0699 80.7063 34.0699C80.1813 34.0699 79.7178 34.1592 79.3159 34.3348C78.9172 34.5104 78.5866 34.7338 78.3209 35.0051C78.0583 35.2732 77.8574 35.5701 77.7213 35.8893C77.5851 36.2117 77.5171 36.5277 77.5171 36.8405H83.7692Z" fill="white"/>
<path fill-rule="evenodd" clip-rule="evenodd" d="M90.9311 34.5996H88.5942V31.0852H90.9311V26.6675H95.4784V31.0852H99.2996V34.5996H95.4784V40.3547C95.4784 41.0601 95.621 41.6028 95.9062 41.9858C96.1882 42.3689 96.6354 42.5636 97.248 42.5636C97.7115 42.5636 98.1101 42.4838 98.4472 42.3274C98.7843 42.1741 99.0987 41.9922 99.3936 41.7847L101.228 44.5203C99.7955 45.6406 98.2366 46.2024 96.5512 46.2024C95.4978 46.2024 94.6162 46.0492 93.8999 45.7492C93.1837 45.4491 92.6035 45.0342 92.1627 44.5075C91.7219 43.9776 91.4043 43.3392 91.2163 42.5923C91.0251 41.8454 90.9311 41.0187 90.9311 40.1057V34.5996Z" fill="white"/>
<path fill-rule="evenodd" clip-rule="evenodd" d="M42.1412 17.2782V8.93113C42.1412 8.79387 42.1218 8.66938 42.0926 8.55447C42.0148 8.24804 41.8171 7.96395 41.4573 7.75967C40.1965 7.04147 38.9358 6.32647 37.675 5.60827C36.8323 5.12947 35.9863 4.64748 35.1404 4.16868C34.6478 3.88779 34.0157 3.39941 33.4226 3.39941C32.8295 3.39941 32.1975 3.88779 31.7048 4.16868C30.8589 4.64748 30.013 5.12947 29.1703 5.60827C27.9095 6.32647 26.6487 7.04147 25.3879 7.75967C25.0249 7.96395 24.8272 8.25123 24.7526 8.55447C24.7235 8.67258 24.704 8.79387 24.704 8.93113V13.2339V16.1131C24.704 16.6781 24.5906 17.4569 24.892 17.9644C25.1902 18.4656 25.9194 18.7529 26.4089 19.0338C26.6066 19.1423 26.801 19.254 26.9955 19.3657C26.4575 19.669 25.9227 19.9754 25.3879 20.2786C25.0281 20.4829 24.8272 20.7702 24.7526 21.0766C24.7235 21.1915 24.704 21.316 24.704 21.4533V25.7529V28.6353C24.704 29.197 24.5906 29.9791 24.892 30.4834C25.1902 30.9846 25.9194 31.275 26.4089 31.5527C26.6422 31.6836 26.8756 31.8177 27.1057 31.9485C26.5353 32.2741 25.9616 32.6029 25.3879 32.9285C25.0281 33.1328 24.8272 33.42 24.7526 33.7233C24.7235 33.8382 24.704 33.9627 24.704 34.0999V38.4027V41.2819C24.704 41.8469 24.5906 42.6257 24.892 43.1333C25.1902 43.6344 25.9194 43.9217 26.4089 44.2026C27.2548 44.6814 28.1007 45.1634 28.9434 45.6422C30.2042 46.3604 31.465 47.0754 32.7258 47.7936C33.1569 48.0362 33.6884 48.0362 34.1195 47.7936C36.5665 46.4019 39.0103 45.0101 41.4573 43.6184C41.8787 43.379 42.1412 42.9226 42.1412 42.447V34.0999C42.1412 33.9627 42.1218 33.8382 42.0926 33.7233C42.0148 33.4169 41.8171 33.1328 41.4573 32.9285C40.8837 32.6029 40.31 32.2741 39.7363 31.9485C40.31 31.623 40.8837 31.2974 41.4573 30.9718C41.8787 30.7324 42.1412 30.2759 42.1412 29.7971V21.4533C42.1412 21.316 42.1218 21.1884 42.0926 21.0734C42.0148 20.7702 41.8171 20.4829 41.4573 20.2786C40.9226 19.9754 40.3878 19.669 39.8498 19.3657C40.3878 19.0593 40.9226 18.7561 41.4573 18.4496C41.8787 18.2134 42.1412 17.7538 42.1412 17.2782ZM33.4226 6.32647C34.9297 7.18511 36.4401 8.04056 37.9472 8.89921C37.9278 8.90878 37.9083 8.92155 37.8889 8.93113C36.4012 9.777 34.9103 10.6261 33.4226 11.4719C31.9317 10.6261 30.444 9.777 28.9531 8.93113C28.9369 8.92155 28.9175 8.90878 28.898 8.89921C30.4051 8.04056 31.9155 7.18511 33.4226 6.32647ZM39.383 16.4929C37.8565 17.3612 36.3299 18.2294 34.8001 19.0976V13.8244C36.3299 12.9562 37.8565 12.088 39.383 11.2198V16.4929ZM27.4622 11.2198C28.9888 12.088 30.5153 12.9562 32.0419 13.8244V19.0976C30.5153 18.2294 28.9888 17.3612 27.4622 16.4929V11.2198ZM39.383 29.0151C37.8565 29.8833 36.3299 30.7515 34.8001 31.6198V26.3466C36.3299 25.4784 37.8565 24.607 39.383 23.7388V29.0151ZM32.0419 31.6198C30.5153 30.7515 28.9888 29.8833 27.4622 29.0151V23.7388C28.9888 24.607 30.5153 25.4784 32.0419 26.3466V31.6198ZM32.0419 44.2664C30.5153 43.3982 28.9888 42.53 27.4622 41.6618V36.3886C28.9888 37.2568 30.5153 38.125 32.0419 38.9933V44.2664ZM34.8001 44.2664V38.9933C36.3299 38.125 37.8565 37.2568 39.383 36.3886V41.6618C37.8565 42.53 36.3299 43.3982 34.8001 44.2664ZM37.9472 34.068C37.9278 34.0776 37.9083 34.0904 37.8889 34.0999C36.4012 34.9458 34.9103 35.7949 33.4226 36.6408C31.9317 35.7949 30.444 34.9458 28.9531 34.0999C28.9369 34.0904 28.9175 34.0776 28.898 34.068C29.2189 33.8861 29.543 33.7009 29.8671 33.519C30.2074 33.7105 30.5478 33.9052 30.8913 34.0999C31.5039 34.4479 32.1132 34.7958 32.7258 35.1437C33.1569 35.3895 33.6884 35.3895 34.1195 35.1437C34.732 34.7958 35.3414 34.4479 35.9539 34.0999C36.2975 33.9052 36.6378 33.7105 36.9781 33.519C37.3022 33.7009 37.6231 33.8861 37.9472 34.068ZM37.9472 21.4214C37.9278 21.4309 37.9083 21.4405 37.8921 21.4533C36.4012 22.2992 34.9103 23.145 33.4226 23.9941C31.9317 23.145 30.444 22.2992 28.9531 21.4533C28.9369 21.4405 28.9175 21.4309 28.898 21.4214C29.1832 21.2586 29.4685 21.0958 29.7537 20.933C30.0583 21.1054 30.363 21.2777 30.6644 21.4533C31.3516 21.8427 32.0387 22.2321 32.7258 22.6247C33.1569 22.8673 33.6884 22.8673 34.1195 22.6247C34.8066 22.2321 35.4937 21.8427 36.1808 21.4533C36.4822 21.2777 36.7869 21.1054 37.0916 20.933C37.3768 21.0958 37.662 21.2586 37.9472 21.4214Z" fill="white"/>
<path fill-rule="evenodd" clip-rule="evenodd" d="M107.935 43.8889C107.935 42.6121 106.885 41.5747 105.589 41.5747C104.289 41.5747 103.239 42.6121 103.239 43.8889C103.239 45.1657 104.289 46.1999 105.589 46.1999C106.885 46.1999 107.935 45.1657 107.935 43.8889Z" fill="white"/>
</g>
<defs>
<clipPath id="clip0_2017_3058">
<rect width="108" height="48" fill="white"/>
</clipPath>
</defs>
</svg>
