<svg width="126" height="56" viewBox="0 0 126 56" fill="none" xmlns="http://www.w3.org/2000/svg">
<g clip-path="url(#clip0_2016_1190)">
<path fill-rule="evenodd" clip-rule="evenodd" d="M0 0H9.20411C10.7268 0 12.0152 0.175916 13.0694 0.527747C14.1235 0.883321 14.985 1.35118 15.6462 1.93507C16.3112 2.51522 16.7873 3.19268 17.082 3.95623C17.3767 4.72352 17.5241 5.52075 17.5241 6.34419C17.5241 7.12645 17.3843 7.8114 17.1009 8.40652C16.8175 9.00164 16.4888 9.51441 16.1072 9.93736C15.7256 10.364 15.3213 10.6972 14.8906 10.9404C14.4636 11.1837 14.1122 11.3409 13.8439 11.4158C14.2596 11.5393 14.7508 11.719 15.3137 11.9623C15.9032 12.2055 16.4586 12.5649 16.9724 13.0402C17.4863 13.5118 17.9246 14.1107 18.2797 14.8256C18.6349 15.5442 18.8125 16.3863 18.8125 17.3595C18.8125 18.6246 18.5858 19.6951 18.1324 20.5709C17.679 21.4467 17.0404 22.1616 16.2168 22.723C15.3969 23.2807 14.388 23.6887 13.1978 23.9432C12.0077 24.1977 10.6777 24.325 9.20411 24.325H0V0ZM8.69025 9.73898C9.10587 9.73898 9.51771 9.69033 9.922 9.59301C10.3263 9.4957 10.6814 9.34224 10.9913 9.13638C11.2973 8.93052 11.5467 8.6498 11.7432 8.29797C11.9396 7.94614 12.0379 7.51197 12.0379 7.00294C12.0379 6.4677 11.9396 6.0223 11.7432 5.67047C11.5467 5.31864 11.2898 5.03792 10.9724 4.83206C10.6512 4.6262 10.2885 4.48023 9.88421 4.39415C9.47993 4.30806 9.07942 4.26689 8.69025 4.26689H5.41062V9.73898H8.69025ZM9.01897 20.0955C9.41192 20.0955 9.85399 20.0656 10.3452 20.0057C10.8364 19.9458 11.2898 19.8036 11.7092 19.5865C12.1248 19.3657 12.4762 19.0513 12.7558 18.6358C13.0392 18.2241 13.179 17.6514 13.179 16.9216C13.179 16.2666 13.0467 15.7313 12.7747 15.3196C12.5064 14.9042 12.1626 14.5823 11.7432 14.3502C11.3276 14.1219 10.8741 13.961 10.383 13.8786C9.89177 13.7925 9.43837 13.7514 9.01897 13.7514H5.41062V20.0955H9.01897Z" fill="white"/>
<path fill-rule="evenodd" clip-rule="evenodd" d="M21.0874 24.325H26.4249V0H21.0874V24.325Z" fill="white"/>
<path fill-rule="evenodd" clip-rule="evenodd" d="M67.0747 21.9292C66.3622 22.7047 65.4272 23.372 64.2661 23.9274C63.1011 24.4829 61.7251 24.7625 60.1304 24.7625C58.7355 24.7625 57.4688 24.5388 56.3303 24.0915C55.1917 23.6441 54.2191 23.0141 53.4085 22.2014C52.6018 21.3924 51.9684 20.4269 51.516 19.3122C51.0636 18.2013 50.8374 16.9785 50.8374 15.6439C50.8374 14.3875 51.0711 13.2058 51.5348 12.1023C52.0023 11.0025 52.6432 10.037 53.4651 9.21682C54.2832 8.39294 55.2634 7.74427 56.4019 7.27082C57.5404 6.80109 58.7845 6.5625 60.1304 6.5625C61.6987 6.5625 63.0597 6.816 64.2095 7.32674C65.3594 7.83374 66.3282 8.51223 67.1124 9.36221L63.9155 12.777C63.5234 12.3409 63.0446 11.9532 62.4829 11.6139C61.9174 11.2747 61.1709 11.1032 60.2435 11.1032C59.6064 11.1032 59.0371 11.2299 58.5319 11.4872C58.0305 11.7407 57.6045 12.0725 57.2464 12.4863C56.892 12.8963 56.6243 13.3735 56.4396 13.9178C56.2549 14.4658 56.1644 15.0399 56.1644 15.6439C56.1644 16.2031 56.2549 16.7548 56.4396 17.2991C56.6243 17.8434 56.892 18.328 57.2464 18.7493C57.6045 19.1743 58.0305 19.521 58.5319 19.7856C59.0371 20.0541 59.6064 20.1845 60.2435 20.1845C61.1483 20.1845 61.9061 20.0093 62.5206 19.6589C63.1313 19.3085 63.6214 18.9282 63.9909 18.5144L67.0747 21.9292Z" fill="white"/>
<path fill-rule="evenodd" clip-rule="evenodd" d="M68.6875 0H73.9879V12.6173L79.2544 7.22002H85.2537L79.0693 13.5305L86.1 24.325H79.9533L75.5331 17.105L73.9879 18.6732V24.325H68.6875V0Z" fill="white"/>
<path fill-rule="evenodd" clip-rule="evenodd" d="M9.59717 29.0117H18.7383C20.1604 29.0117 21.4122 29.2133 22.4939 29.6128C23.5755 30.0123 24.4794 30.5573 25.2056 31.248C25.928 31.9387 26.4688 32.7451 26.8243 33.6672C27.1798 34.5894 27.3613 35.5713 27.3613 36.6129C27.3613 38.1921 27.0096 39.566 26.3099 40.7457C25.6103 41.9217 24.6194 42.8588 23.3448 43.5644L28.7985 53.2749H22.6792L18.1105 44.3634H15.013V53.2749H9.59717V29.0117ZM18.4433 39.9617C19.472 39.9617 20.2852 39.6593 20.8752 39.0508C21.4652 38.446 21.7602 37.6806 21.7602 36.7585C21.7602 35.7654 21.4652 34.9777 20.8752 34.3952C20.2852 33.8128 19.472 33.5216 18.4433 33.5216H15.013V39.9617H18.4433Z" fill="white"/>
<path fill-rule="evenodd" clip-rule="evenodd" d="M67.4374 51.0213C66.7264 51.7978 65.7846 52.4661 64.6198 53.0224C63.4511 53.5787 62.0707 53.8587 60.4709 53.8587C59.0715 53.8587 57.8008 53.6347 56.6586 53.1867C55.5164 52.7387 54.5407 52.1077 53.7275 51.2938C52.9182 50.4837 52.2866 49.5168 51.829 48.4005C51.3751 47.2879 51.1482 46.0634 51.1482 44.7268C51.1482 43.4687 51.3827 42.2852 51.8479 41.1801C52.3168 40.0788 52.9598 39.1118 53.7843 38.2905C54.605 37.4654 55.5883 36.8158 56.7305 36.3417C57.8726 35.8713 59.1207 35.6323 60.4709 35.6323C62.0442 35.6323 63.4095 35.8899 64.563 36.3977C65.7166 36.9054 66.6885 37.5849 67.4752 38.4361L64.268 41.8559C63.8747 41.4191 63.3944 41.0308 62.8309 40.691C62.2636 40.3513 61.5147 40.1796 60.5843 40.1796C59.9452 40.1796 59.3741 40.3065 58.8673 40.5641C58.3643 40.818 57.9369 41.1503 57.5776 41.5609C57.2221 41.9753 56.9536 42.4532 56.7683 42.9983C56.583 43.5471 56.4922 44.122 56.4922 44.7268C56.4922 45.2868 56.583 45.8394 56.7683 46.3844C56.9536 46.9295 57.2221 47.4149 57.5776 47.8367C57.9369 48.2623 58.3643 48.6095 58.8673 48.8746C59.3741 49.1434 59.9452 49.2741 60.5843 49.2741C61.492 49.2741 62.2522 49.0986 62.8687 48.7477C63.4814 48.3967 63.973 48.0159 64.3399 47.6015L67.4374 51.0213Z" fill="white"/>
<path fill-rule="evenodd" clip-rule="evenodd" d="M68.7749 28.9629H74.0753V41.5802L79.3418 36.1829H85.3411L79.1567 42.4934L86.1874 53.2879H80.0407L75.6205 46.0679L74.0753 47.6361V53.2879H68.7749V28.9629Z" fill="white"/>
<path fill-rule="evenodd" clip-rule="evenodd" d="M102.374 51.4348C102.177 51.5577 101.882 51.755 101.489 52.0343C101.096 52.3136 100.586 52.5855 99.9616 52.8499C99.3339 53.118 98.5928 53.3526 97.7306 53.5574C96.8723 53.7623 95.8891 53.8665 94.785 53.8665C93.3103 53.8665 91.9831 53.6431 90.8033 53.1962C89.6273 52.7493 88.6253 52.1237 87.8009 51.3268C86.9804 50.5261 86.3527 49.5653 85.9216 48.4407C85.4943 47.316 85.2788 46.076 85.2788 44.7204C85.2788 43.5362 85.4792 42.3929 85.8876 41.2944C86.2922 40.1921 86.8745 39.2313 87.6346 38.4083C88.3984 37.5853 89.3324 36.9261 90.4365 36.4308C91.5406 35.9355 92.796 35.686 94.1951 35.686C95.5942 35.686 96.8231 35.9281 97.8781 36.4122C98.9369 36.8963 99.8255 37.5666 100.551 38.4269C101.274 39.2834 101.822 40.3112 102.189 41.5103C102.559 42.7095 102.741 44.0203 102.741 45.4466V46.318H90.4365C90.4592 47.2378 90.8713 48.0422 91.6692 48.7312C92.4671 49.4201 93.5674 49.7664 94.9665 49.7664C96.3429 49.7664 97.4622 49.5653 98.3205 49.1669C99.1789 48.7684 99.8066 48.4221 100.2 48.1316L102.374 51.4348ZM97.7306 42.9813C97.7306 42.6164 97.6588 42.2477 97.5113 41.8716C97.3638 41.4992 97.1407 41.1528 96.8458 40.84C96.5509 40.5235 96.1841 40.2628 95.7417 40.058C95.2993 39.8532 94.7699 39.7489 94.1573 39.7489C93.5447 39.7489 93.004 39.8532 92.5351 40.058C92.07 40.2628 91.6843 40.5235 91.3743 40.84C91.068 41.1528 90.8335 41.4992 90.6747 41.8716C90.5159 42.2477 90.4365 42.6164 90.4365 42.9813H97.7306Z" fill="white"/>
<path fill-rule="evenodd" clip-rule="evenodd" d="M106.086 40.3669H103.36V36.2668H106.086V31.1128H111.391V36.2668H115.849V40.3669H111.391V47.0812C111.391 47.9042 111.558 48.5373 111.89 48.9842C112.219 49.4311 112.741 49.6582 113.456 49.6582C113.997 49.6582 114.462 49.5651 114.855 49.3827C115.248 49.2039 115.615 48.9916 115.959 48.7496L118.099 51.941C116.428 53.2482 114.609 53.9036 112.643 53.9036C111.414 53.9036 110.386 53.7248 109.55 53.3748C108.714 53.0247 108.037 52.5406 107.523 51.9261C107.009 51.308 106.638 50.5632 106.419 49.6917C106.196 48.8203 106.086 47.8558 106.086 46.7908V40.3669Z" fill="white"/>
<path fill-rule="evenodd" clip-rule="evenodd" d="M49.1647 20.1582V10.42C49.1647 10.2598 49.142 10.1146 49.108 9.98054C49.0172 9.62304 48.7865 9.29161 48.3668 9.05327C46.8959 8.21537 45.425 7.3812 43.954 6.54331C42.9709 5.98471 41.984 5.42239 40.9971 4.86379C40.4223 4.53608 39.685 3.96631 38.993 3.96631C38.301 3.96631 37.5636 4.53608 36.9889 4.86379C36.002 5.42239 35.0151 5.98471 34.0319 6.54331C32.561 7.3812 31.0901 8.21537 29.6191 9.05327C29.1956 9.29161 28.965 9.62676 28.878 9.98054C28.844 10.1183 28.8213 10.2598 28.8213 10.42V15.4399V18.7989C28.8213 19.4581 28.6889 20.3667 29.0406 20.9588C29.3885 21.5435 30.2393 21.8787 30.8102 22.2064C31.0409 22.333 31.2678 22.4633 31.4947 22.5937C30.867 22.9475 30.2431 23.305 29.6191 23.6587C29.1994 23.8971 28.965 24.2322 28.878 24.5897C28.844 24.7238 28.8213 24.869 28.8213 25.0292V30.0454V33.4081C28.8213 34.0635 28.6889 34.9759 29.0406 35.5643C29.3885 36.149 30.2393 36.4879 30.8102 36.8119C31.0825 36.9645 31.3548 37.1209 31.6232 37.2736C30.9577 37.6535 30.2884 38.037 29.6191 38.4169C29.1994 38.6552 28.965 38.9904 28.878 39.3442C28.844 39.4782 28.8213 39.6235 28.8213 39.7836V44.8035V48.1626C28.8213 48.8217 28.6889 49.7304 29.0406 50.3225C29.3885 50.9071 30.2393 51.2423 30.8102 51.57C31.7972 52.1286 32.7841 52.6909 33.7672 53.2495C35.2381 54.0874 36.7091 54.9216 38.18 55.7595C38.6829 56.0425 39.303 56.0425 39.806 55.7595C42.6608 54.1358 45.5119 52.5122 48.3668 50.8885C48.8584 50.6092 49.1647 50.0767 49.1647 49.5218V39.7836C49.1647 39.6235 49.142 39.4782 49.108 39.3442C49.0172 38.9867 48.7865 38.6552 48.3668 38.4169C47.6975 38.037 47.0282 37.6535 46.3589 37.2736C47.0282 36.8938 47.6975 36.5139 48.3668 36.1341C48.8584 35.8548 49.1647 35.3223 49.1647 34.7637V25.0292C49.1647 24.869 49.142 24.7201 49.108 24.586C49.0172 24.2322 48.7865 23.8971 48.3668 23.6587C47.7429 23.305 47.119 22.9475 46.4913 22.5937C47.119 22.2362 47.7429 21.8824 48.3668 21.5249C48.8584 21.2493 49.1647 20.7131 49.1647 20.1582ZM38.993 7.3812C40.7513 8.38295 42.5134 9.38098 44.2717 10.3827C44.249 10.3939 44.2263 10.4088 44.2036 10.42C42.468 11.4068 40.7286 12.3974 38.993 13.3843C37.2536 12.3974 35.518 11.4068 33.7786 10.42C33.7597 10.4088 33.737 10.3939 33.7143 10.3827C35.4726 9.38098 37.2347 8.38295 38.993 7.3812ZM45.9468 19.2421C44.1658 20.255 42.3848 21.2679 40.6 22.2809V16.1288C42.3848 15.1159 44.1658 14.103 45.9468 13.0901V19.2421ZM32.0392 13.0901C33.8202 14.103 35.6012 15.1159 37.3821 16.1288V22.2809C35.6012 21.2679 33.8202 20.255 32.0392 19.2421V13.0901ZM45.9468 33.8513C44.1658 34.8642 42.3848 35.8771 40.6 36.8901V30.738C42.3848 29.7251 44.1658 28.7085 45.9468 27.6955V33.8513ZM37.3821 36.8901C35.6012 35.8771 33.8202 34.8642 32.0392 33.8513V27.6955C33.8202 28.7085 35.6012 29.7251 37.3821 30.738V36.8901ZM37.3821 51.6445C35.6012 50.6316 33.8202 49.6186 32.0392 48.6057V42.4537C33.8202 43.4666 35.6012 44.4795 37.3821 45.4925V51.6445ZM40.6 51.6445V45.4925C42.3848 44.4795 44.1658 43.4666 45.9468 42.4537V48.6057C44.1658 49.6186 42.3848 50.6316 40.6 51.6445ZM44.2717 39.7463C44.249 39.7575 44.2263 39.7724 44.2036 39.7836C42.468 40.7704 40.7286 41.761 38.993 42.7479C37.2536 41.761 35.518 40.7704 33.7786 39.7836C33.7597 39.7724 33.737 39.7575 33.7143 39.7463C34.0886 39.5341 34.4668 39.3181 34.8449 39.1058C35.2419 39.3293 35.639 39.5564 36.0398 39.7836C36.7544 40.1895 37.4653 40.5954 38.18 41.0013C38.6829 41.2881 39.303 41.2881 39.806 41.0013C40.5206 40.5954 41.2315 40.1895 41.9462 39.7836C42.347 39.5564 42.744 39.3293 43.1411 39.1058C43.5192 39.3181 43.8935 39.5341 44.2717 39.7463ZM44.2717 24.9919C44.249 25.0031 44.2263 25.0143 44.2074 25.0292C42.468 26.016 40.7286 27.0029 38.993 27.9935C37.2536 27.0029 35.518 26.016 33.7786 25.0292C33.7597 25.0143 33.737 25.0031 33.7143 24.9919C34.047 24.802 34.3798 24.6121 34.7125 24.4222C35.068 24.6232 35.4234 24.8243 35.7751 25.0292C36.5767 25.4835 37.3784 25.9378 38.18 26.3959C38.6829 26.6789 39.303 26.6789 39.806 26.3959C40.6076 25.9378 41.4092 25.4835 42.2109 25.0292C42.5625 24.8243 42.918 24.6232 43.2734 24.4222C43.6062 24.6121 43.9389 24.802 44.2717 24.9919Z" fill="white"/>
<path fill-rule="evenodd" clip-rule="evenodd" d="M125.925 51.2033C125.925 49.7137 124.7 48.5034 123.187 48.5034C121.671 48.5034 120.446 49.7137 120.446 51.2033C120.446 52.6929 121.671 53.8995 123.187 53.8995C124.7 53.8995 125.925 52.6929 125.925 51.2033Z" fill="white"/>
</g>
<defs>
<clipPath id="clip0_2016_1190">
<rect width="126" height="56" fill="white"/>
</clipPath>
</defs>
</svg>
