<svg width="195" height="23" viewBox="0 0 195 23" fill="none" xmlns="http://www.w3.org/2000/svg">
<g clip-path="url(#clip0_1_616)">
<path d="M35.6578 6.91072V7.59209C35.6578 7.68943 35.5929 7.72187 35.4955 7.72187H33.0945V15.1195C33.0945 15.2169 33.0296 15.2493 32.9647 15.2493H32.186C32.0887 15.2493 32.0238 15.1844 32.0238 15.1195V7.72187H29.6228C29.5255 7.72187 29.4606 7.65698 29.4606 7.59209V6.91072C29.4606 6.81339 29.5255 6.74849 29.6228 6.74849H35.4955C35.6253 6.74849 35.6578 6.81339 35.6578 6.91072ZM42.8932 6.91072V15.1195C42.8932 15.2169 42.8283 15.2493 42.731 15.2493H41.9523C41.8549 15.2493 41.79 15.1844 41.79 15.1195V11.2585H37.6694V15.1195C37.6694 15.2169 37.6045 15.2493 37.5396 15.2493H36.7609C36.6636 15.2493 36.6311 15.1844 36.6311 15.1195V6.91072C36.6311 6.81339 36.696 6.74849 36.7609 6.74849H37.5396C37.637 6.74849 37.6694 6.81339 37.6694 6.91072V10.3175H41.8549V6.91072C41.8549 6.81339 41.9198 6.74849 42.0172 6.74849H42.7959C42.8607 6.74849 42.8932 6.81339 42.8932 6.91072ZM50.1935 14.4382V15.0871C50.1935 15.1844 50.1286 15.2169 50.0637 15.2169H45.1644C45.0671 15.2169 45.0346 15.152 45.0346 15.0871V6.87829C45.0346 6.78095 45.0995 6.71606 45.1644 6.71606H50.0313C50.1286 6.71606 50.1935 6.78095 50.1935 6.87829V7.5272C50.1935 7.62454 50.1286 7.65699 50.0313 7.65699H46.0729V10.2851H50.0313C50.1286 10.2851 50.1935 10.35 50.1935 10.4149V11.0638C50.1935 11.1611 50.1286 11.226 50.0313 11.226H46.0729V14.276H50.0313C50.1611 14.3084 50.1935 14.3733 50.1935 14.4382ZM61.0954 6.91072V15.1195C61.0954 15.2169 61.0305 15.2493 60.9331 15.2493H59.9598C59.8624 15.2493 59.7975 15.2169 59.7326 15.1195L56.5854 9.31173C56.3583 8.88993 55.9689 7.91656 55.8716 7.68943C55.9365 8.01389 56.0014 9.66863 56.0014 10.4798V15.0871C56.0014 15.1844 55.9365 15.2169 55.8716 15.2169H55.0929C54.9955 15.2169 54.9631 15.152 54.9631 15.0871V6.87829C54.9631 6.78095 55.028 6.71606 55.0929 6.71606H56.1311C56.2285 6.71606 56.2609 6.78095 56.3258 6.87829L59.4406 12.6212C59.7326 13.1403 59.9598 13.6919 60.1544 14.2435C60.0571 13.6595 60.0246 12.5239 60.0246 11.6803V6.84584C60.0246 6.7485 60.0895 6.68361 60.1544 6.68361H60.9331C61.0305 6.7485 61.0954 6.81339 61.0954 6.91072ZM68.5904 12.6212V9.37662C68.5904 8.24101 67.8441 7.59209 66.741 7.59209H66.0271C64.924 7.59209 64.1777 8.20856 64.1777 9.37662V12.6212C64.1777 13.7893 64.924 14.4057 66.0271 14.4057H66.741C67.8441 14.3733 68.5904 13.7568 68.5904 12.6212ZM69.6611 9.37662V12.6212C69.6611 14.276 68.4281 15.3142 66.7734 15.3142H65.9622C64.2102 15.3142 63.107 14.2435 63.107 12.6212V9.37662C63.107 7.72187 64.3075 6.68361 65.9622 6.68361H66.8058C68.493 6.68361 69.6611 7.78677 69.6611 9.37662ZM77.7726 6.91072V15.1195C77.7726 15.2169 77.7077 15.2493 77.6103 15.2493H76.637C76.5396 15.2493 76.4747 15.2169 76.4098 15.1195L73.2626 9.31173C73.0355 8.88993 72.6461 7.91656 72.5488 7.68943C72.6137 8.01389 72.6786 9.66863 72.6786 10.4798V15.0871C72.6786 15.1844 72.6137 15.2169 72.5488 15.2169H71.7701C71.6727 15.2169 71.6403 15.152 71.6403 15.0871V6.87829C71.6403 6.78095 71.7052 6.71606 71.7701 6.71606H72.8083C72.9057 6.71606 72.9381 6.78095 73.003 6.87829L76.1178 12.6212C76.4098 13.1403 76.637 13.6919 76.8316 14.2435C76.7343 13.6595 76.7019 12.5239 76.7019 11.6803V6.84584C76.7019 6.7485 76.7667 6.68361 76.8316 6.68361H77.6103C77.7077 6.7485 77.7726 6.81339 77.7726 6.91072ZM83.191 11.3558V12.0696C83.191 12.167 83.1261 12.1994 83.0612 12.1994H80.0762C79.9789 12.1994 79.914 12.1345 79.914 12.0696V11.3558C79.914 11.2585 79.9789 11.1936 80.0762 11.1936H83.0612C83.1261 11.1936 83.191 11.2585 83.191 11.3558ZM86.3707 11.4856V15.0871C86.3707 15.1844 86.3058 15.2169 86.241 15.2169H85.4622C85.3649 15.2169 85.3325 15.152 85.3325 15.0871V6.87829C85.3325 6.78095 85.3974 6.71606 85.4622 6.71606H90.3291C90.4265 6.71606 90.4914 6.78095 90.4914 6.87829V7.5272C90.4914 7.62454 90.4265 7.65699 90.3291 7.65699H86.3707V10.5447H90.3291C90.4265 10.5447 90.4914 10.6096 90.4914 10.6745V11.3234C90.4914 11.4207 90.4265 11.4856 90.3291 11.4856H86.3707ZM98.1486 6.91072V12.6212C98.1486 14.276 96.9157 15.3142 95.2609 15.3142H94.8067C93.0546 15.3142 91.9514 14.2435 91.9514 12.6212V6.91072C91.9514 6.81339 92.0163 6.74849 92.1137 6.74849H92.8924C92.9897 6.74849 93.0222 6.81339 93.0222 6.91072V12.6212C93.0222 13.7893 93.7684 14.4057 94.8716 14.4057H95.2609C96.3641 14.4057 97.1103 13.7893 97.1103 12.6212V6.91072C97.1103 6.81339 97.1752 6.74849 97.2401 6.74849H98.0188C98.0837 6.74849 98.1486 6.81339 98.1486 6.91072ZM106.325 6.91072V15.1195C106.325 15.2169 106.26 15.2493 106.163 15.2493H105.189C105.092 15.2493 105.027 15.2169 104.962 15.1195L101.815 9.31173C101.588 8.88993 101.199 7.91656 101.101 7.68943C101.166 8.01389 101.231 9.66863 101.231 10.4798V15.0871C101.231 15.1844 101.166 15.2169 101.101 15.2169H100.322C100.225 15.2169 100.193 15.152 100.193 15.0871V6.87829C100.193 6.78095 100.258 6.71606 100.322 6.71606H101.361C101.458 6.71606 101.491 6.78095 101.555 6.87829L104.67 12.6212C104.962 13.1403 105.189 13.6919 105.384 14.2435C105.287 13.6595 105.254 12.5239 105.254 11.6803V6.84584C105.254 6.7485 105.319 6.68361 105.384 6.68361H106.163C106.26 6.7485 106.325 6.81339 106.325 6.91072ZM114.469 7.68943H111.257C110.121 7.68943 109.407 8.33835 109.407 9.47396V12.5563C109.407 13.7244 110.154 14.3408 111.257 14.3408H113.593V11.5505H112.035C111.938 11.5505 111.873 11.4856 111.873 11.4207V10.7718C111.873 10.6745 111.938 10.6096 112.035 10.6096H114.501C114.599 10.6096 114.631 10.6745 114.631 10.7718V15.152C114.631 15.2493 114.566 15.2818 114.501 15.2818H111.192C109.44 15.2818 108.337 14.2111 108.337 12.5563V9.47396C108.337 7.81922 109.537 6.78094 111.192 6.78094H114.469C114.566 6.78094 114.631 6.84583 114.631 6.94317V7.59209C114.631 7.62454 114.566 7.68943 114.469 7.68943ZM117.681 6.91072V15.1195C117.681 15.2169 117.616 15.2493 117.551 15.2493H116.773C116.675 15.2493 116.643 15.1844 116.643 15.1195V6.91072C116.643 6.81339 116.708 6.74849 116.773 6.74849H117.551C117.649 6.74849 117.681 6.81339 117.681 6.91072ZM124.852 13.043V12.5563C124.852 11.7452 124.365 11.2585 123.456 11.2585H120.861V14.3084H123.489C124.332 14.3084 124.852 13.8866 124.852 13.043ZM124.689 9.1495V8.76015C124.689 8.04634 124.203 7.65699 123.359 7.65699H120.861V10.2851H123.327C124.138 10.3176 124.689 9.89576 124.689 9.1495ZM125.922 12.4914V13.0106C125.922 14.2111 125.144 15.2493 123.684 15.2493H119.952C119.855 15.2493 119.822 15.1844 119.822 15.1195V6.91072C119.822 6.81339 119.887 6.74849 119.952 6.74849H123.489C124.819 6.74849 125.728 7.49475 125.728 8.69525V9.11705C125.728 9.96065 125.273 10.5122 124.657 10.7718C125.306 10.934 125.922 11.5505 125.922 12.4914ZM132.282 14.4057V15.0871C132.282 15.1844 132.217 15.2169 132.119 15.2169H127.837C127.739 15.2169 127.707 15.152 127.707 15.0871V6.87829C127.707 6.78095 127.772 6.71606 127.837 6.71606H128.615C128.713 6.71606 128.745 6.78095 128.745 6.87829V14.276H132.119C132.217 14.276 132.282 14.3408 132.282 14.4057ZM138.901 14.4382V15.0871C138.901 15.1844 138.836 15.2169 138.771 15.2169H133.872C133.774 15.2169 133.742 15.152 133.742 15.0871V6.87829C133.742 6.78095 133.807 6.71606 133.872 6.71606H138.738C138.836 6.71606 138.901 6.78095 138.901 6.87829V7.5272C138.901 7.62454 138.836 7.65699 138.738 7.65699H134.78V10.2851H138.738C138.836 10.2851 138.901 10.35 138.901 10.4149V11.0638C138.901 11.1611 138.836 11.226 138.738 11.226H134.78V14.276H138.738C138.836 14.3084 138.901 14.3733 138.901 14.4382ZM148.894 15.1195L148.18 12.9781H144.546L143.832 15.1195C143.8 15.2169 143.735 15.2493 143.67 15.2493H142.827C142.762 15.2493 142.729 15.1844 142.729 15.152C142.729 15.1196 142.729 15.0871 142.762 15.0547L145.585 6.97562C145.617 6.84584 145.682 6.78094 145.812 6.78094H146.98C147.11 6.78094 147.174 6.84584 147.207 6.97562L150.03 15.0222C150.062 15.0547 150.062 15.1195 150.062 15.1844C150.062 15.2169 149.997 15.2818 149.965 15.2818H149.121C148.991 15.2493 148.926 15.2169 148.894 15.1195ZM146.363 7.49476L144.838 12.0696H147.856L146.363 7.49476ZM155.773 14.4057V15.0871C155.773 15.1844 155.708 15.2169 155.61 15.2169H151.327C151.23 15.2169 151.198 15.152 151.198 15.0871V6.87829C151.198 6.78095 151.263 6.71606 151.327 6.71606H152.106C152.204 6.71606 152.236 6.78095 152.236 6.87829V14.276H155.61C155.708 14.276 155.773 14.3408 155.773 14.4057ZM161.775 14.4057V15.0871C161.775 15.1844 161.71 15.2169 161.613 15.2169H157.362C157.265 15.2169 157.233 15.152 157.233 15.0871V6.87829C157.233 6.78095 157.298 6.71606 157.362 6.71606H158.141C158.238 6.71606 158.271 6.78095 158.271 6.87829V14.276H161.645C161.743 14.276 161.775 14.3408 161.775 14.4057ZM164.306 6.91072V15.1195C164.306 15.2169 164.241 15.2493 164.176 15.2493H163.397C163.3 15.2493 163.268 15.1844 163.268 15.1195V6.91072C163.268 6.81339 163.332 6.74849 163.397 6.74849H164.176C164.241 6.74849 164.306 6.81339 164.306 6.91072ZM171.639 15.1195L170.925 12.9781H167.291L166.577 15.1195C166.545 15.2169 166.48 15.2493 166.415 15.2493H165.571C165.506 15.2493 165.441 15.1844 165.441 15.152C165.441 15.1196 165.441 15.0871 165.474 15.0547L168.297 6.97562C168.329 6.84584 168.394 6.78094 168.524 6.78094H169.692C169.822 6.78094 169.887 6.84584 169.919 6.97562L172.742 15.0222C172.774 15.0547 172.774 15.1195 172.774 15.1844C172.774 15.2169 172.709 15.2818 172.644 15.2818H171.801C171.736 15.2493 171.671 15.2169 171.639 15.1195ZM169.14 7.49476L167.615 12.0696H170.633L169.14 7.49476ZM180.075 6.91072V15.1195C180.075 15.2169 180.01 15.2493 179.912 15.2493H178.939C178.842 15.2493 178.777 15.2169 178.712 15.1195L175.565 9.31173C175.337 8.88993 174.948 7.91656 174.851 7.68943C174.916 8.01389 174.981 9.66863 174.981 10.4798V15.0871C174.981 15.1844 174.948 15.2169 174.851 15.2169H174.072C173.975 15.2169 173.942 15.152 173.942 15.0871V6.87829C173.942 6.78095 174.007 6.71606 174.072 6.71606H175.11C175.208 6.71606 175.24 6.78095 175.305 6.87829L178.42 12.6212C178.712 13.1403 178.939 13.6919 179.134 14.2435C179.036 13.6595 179.004 12.5239 179.004 11.6803V6.84584C179.004 6.7485 179.069 6.68361 179.134 6.68361H179.912C180.01 6.7485 180.075 6.81339 180.075 6.91072ZM187.829 6.91072V9.63619C187.829 9.73353 187.764 9.76597 187.699 9.76597H186.921C186.823 9.76597 186.791 9.70108 186.791 9.63619V7.68943H185.006C183.936 7.68943 183.157 8.30591 183.157 9.47396V12.5239C183.157 13.6919 183.903 14.3084 185.006 14.3084H187.699C187.797 14.3084 187.862 14.3733 187.862 14.4706V15.1195C187.862 15.2169 187.797 15.2493 187.699 15.2493H184.941C183.222 15.2493 182.086 14.1786 182.086 12.5239V9.47396C182.086 7.81922 183.287 6.78094 184.941 6.78094H187.699C187.764 6.7485 187.829 6.81339 187.829 6.91072ZM194.87 14.4382V15.0871C194.87 15.1844 194.805 15.2169 194.74 15.2169H189.841C189.743 15.2169 189.711 15.152 189.711 15.0871V6.87829C189.711 6.78095 189.776 6.71606 189.841 6.71606H194.708C194.805 6.71606 194.87 6.78095 194.87 6.87829V7.5272C194.87 7.62454 194.805 7.65699 194.708 7.65699H190.782V10.2851H194.74C194.837 10.2851 194.902 10.35 194.902 10.4149V11.0638C194.902 11.1611 194.837 11.226 194.74 11.226H190.782V14.276H194.74C194.837 14.3084 194.87 14.3733 194.87 14.4382ZM13.0429 2.14118C13.0754 3.27679 12.1345 4.21772 10.9989 4.25016C9.8308 4.28261 8.88987 3.37412 8.85742 2.23851C8.85742 2.20607 8.85742 2.17363 8.85742 2.17363C8.88987 1.03802 9.8308 0.12953 10.9989 0.161976C12.102 0.12953 13.0105 1.03802 13.0429 2.14118ZM13.0429 19.8567C13.0754 20.9923 12.1345 21.9332 10.9989 21.9656C9.8308 21.9981 8.88987 21.0896 8.85742 19.9215C8.85742 19.8891 8.85742 19.8567 8.85742 19.8567C8.88987 18.721 9.8308 17.8126 10.9989 17.845C12.102 17.845 13.0105 18.7535 13.0429 19.8567Z" fill="#051414"/>
<path d="M15.2816 10.999C15.2816 10.0581 15.606 9.21451 16.19 8.56559L21.3489 3.43914C22.0628 2.72533 22.0628 1.55727 21.3165 0.843463C20.6027 0.129653 19.4346 0.129653 18.7208 0.843463L14.1135 5.38589H14.0811C13.3024 6.22949 12.1992 6.68373 11.0311 6.68373C9.86309 6.68373 8.75992 6.22949 7.98122 5.38589L3.34146 0.843463C2.62765 0.129653 1.45959 0.129653 0.713336 0.843463C-0.000474066 1.55727 -0.000474066 2.72533 0.713336 3.43914L5.71001 8.37091H5.67756C6.39137 9.08472 6.78072 10.0257 6.78072 11.0315C6.78072 12.1671 6.26159 13.2378 5.38555 13.9841L0.745782 18.6238C0.0319714 19.3376 0.0644174 20.5057 0.778228 21.2195C1.49204 21.9009 2.62765 21.9009 3.34146 21.2195L8.14345 16.4824C8.88971 15.7037 9.92798 15.2495 11.0311 15.2495C12.2316 15.2495 13.3348 15.801 14.0486 16.6446L18.6884 21.2195C19.0453 21.5764 19.4995 21.7711 19.9862 21.7711C21.0245 21.7711 21.8356 20.9599 21.8356 19.9541C21.8356 19.4674 21.641 19.0132 21.2841 18.6563L16.1251 13.5298C15.606 12.7511 15.2816 11.9075 15.2816 10.999Z" fill="#051414"/>
<path d="M21.3492 13.6272C21.2194 13.6272 21.0896 13.5623 20.9922 13.4649L18.8184 11.3559C18.6237 11.1613 18.6237 10.8368 18.8184 10.6421L20.9598 8.53314C21.1545 8.33846 21.5114 8.37091 21.6736 8.56558C21.8683 8.76026 21.8683 9.05227 21.6736 9.24695L19.8891 10.999L21.6736 12.7511C21.8683 12.9458 21.8683 13.2702 21.6736 13.4649C21.6087 13.5623 21.4789 13.6272 21.3492 13.6272ZM0.810883 13.6272C0.51887 13.6272 0.291748 13.4 0.291748 13.108C0.291748 12.9782 0.35664 12.8484 0.453978 12.7511L2.2385 10.999L0.453978 9.24695C0.259302 9.05227 0.291748 8.72781 0.486424 8.53314C0.681099 8.37091 0.973113 8.37091 1.16779 8.53314L3.30922 10.6421C3.50389 10.8368 3.50389 11.1613 3.30922 11.3559L1.16779 13.4649C1.1029 13.5623 0.973113 13.6272 0.810883 13.6272Z" fill="#051414"/>
</g>
<defs>
<clipPath id="clip0_1_616">
<rect width="195" height="22.0632" fill="white"/>
</clipPath>
</defs>
</svg>
