<svg width="20" height="20" viewBox="0 0 20 20" fill="none" xmlns="http://www.w3.org/2000/svg">
<path d="M7.5 2.49967V0.833008H12.5V2.49967H7.5ZM9.16667 11.6663H10.8333V6.66634H9.16667V11.6663ZM10 18.333C8.97222 18.333 8.00347 18.1351 7.09375 17.7393C6.18403 17.3434 5.38889 16.8052 4.70833 16.1247C4.02778 15.4441 3.48958 14.649 3.09375 13.7393C2.69792 12.8295 2.5 11.8608 2.5 10.833C2.5 9.80523 2.69792 8.83648 3.09375 7.92676C3.48958 7.01704 4.02778 6.2219 4.70833 5.54134C5.38889 4.86079 6.18403 4.32259 7.09375 3.92676C8.00347 3.53092 8.97222 3.33301 10 3.33301C10.8611 3.33301 11.6875 3.4719 12.4792 3.74967C13.2708 4.02745 14.0139 4.43023 14.7083 4.95801L15.875 3.79134L17.0417 4.95801L15.875 6.12467C16.4028 6.81912 16.8056 7.56217 17.0833 8.35384C17.3611 9.14551 17.5 9.9719 17.5 10.833C17.5 11.8608 17.3021 12.8295 16.9063 13.7393C16.5104 14.649 15.9722 15.4441 15.2917 16.1247C14.6111 16.8052 13.816 17.3434 12.9063 17.7393C11.9965 18.1351 11.0278 18.333 10 18.333ZM10 16.6663C11.6111 16.6663 12.9861 16.0969 14.125 14.958C15.2639 13.8191 15.8333 12.4441 15.8333 10.833C15.8333 9.2219 15.2639 7.8469 14.125 6.70801C12.9861 5.56912 11.6111 4.99967 10 4.99967C8.38889 4.99967 7.01389 5.56912 5.875 6.70801C4.73611 7.8469 4.16667 9.2219 4.16667 10.833C4.16667 12.4441 4.73611 13.8191 5.875 14.958C7.01389 16.0969 8.38889 16.6663 10 16.6663Z" fill="#051414"/>
</svg>
