<svg width="20" height="20" viewBox="0 0 20 20" fill="none" xmlns="http://www.w3.org/2000/svg">
<path d="M7.5 2.50016V0.833496H12.5V2.50016H7.5ZM9.16667 11.6668H10.8333V6.66683H9.16667V11.6668ZM10 18.3335C8.97222 18.3335 8.00347 18.1356 7.09375 17.7397C6.18403 17.3439 5.38889 16.8057 4.70833 16.1252C4.02778 15.4446 3.48958 14.6495 3.09375 13.7397C2.69792 12.83 2.5 11.8613 2.5 10.8335C2.5 9.80572 2.69792 8.83697 3.09375 7.92725C3.48958 7.01752 4.02778 6.22239 4.70833 5.54183C5.38889 4.86127 6.18403 4.32308 7.09375 3.92725C8.00347 3.53141 8.97222 3.3335 10 3.3335C10.8611 3.3335 11.6875 3.47239 12.4792 3.75016C13.2708 4.02794 14.0139 4.43072 14.7083 4.9585L15.875 3.79183L17.0417 4.9585L15.875 6.12516C16.4028 6.81961 16.8056 7.56266 17.0833 8.35433C17.3611 9.146 17.5 9.97239 17.5 10.8335C17.5 11.8613 17.3021 12.83 16.9062 13.7397C16.5104 14.6495 15.9722 15.4446 15.2917 16.1252C14.6111 16.8057 13.816 17.3439 12.9062 17.7397C11.9965 18.1356 11.0278 18.3335 10 18.3335ZM10 16.6668C11.6111 16.6668 12.9861 16.0974 14.125 14.9585C15.2639 13.8196 15.8333 12.4446 15.8333 10.8335C15.8333 9.22239 15.2639 7.84739 14.125 6.7085C12.9861 5.56961 11.6111 5.00016 10 5.00016C8.38889 5.00016 7.01389 5.56961 5.875 6.7085C4.73611 7.84739 4.16667 9.22239 4.16667 10.8335C4.16667 12.4446 4.73611 13.8196 5.875 14.9585C7.01389 16.0974 8.38889 16.6668 10 16.6668Z" fill="white"/>
</svg>
