<?xml version="1.0" encoding="UTF-8"?><svg id="Layer_1" xmlns="http://www.w3.org/2000/svg" viewBox="0 0 600 600"><defs><style>.cls-1{fill:#fff;}</style></defs><path class="cls-1" d="M545.37,157.18L301,16.1c-.62-.36-1.38-.36-2,0L54.63,157.18c-.62.36-1,1.02-1,1.73v282.17c0,.71.38,1.38,1,1.73l244.37,141.08s.05.02.08.03c.11.06.22.1.33.14.04.01.08.03.12.04.15.04.31.06.47.06s.32-.02.47-.06c.04-.01.08-.03.12-.04.12-.04.23-.08.33-.14.02-.01.05-.02.08-.03l244.37-141.08c.62-.36,1-1.02,1-1.73V158.92c0-.71-.38-1.38-1-1.73ZM300,20.14l240.96,139.12-77.82,44.93-142.76-82.42c-.62-.36-1.38-.36-2,0l-60.58,35.21c-.1.06-.19.14-.28.22-.04.04-.09.06-.13.1-.08.08-.13.17-.19.25-.04.05-.09.1-.12.16-.05.08-.07.17-.11.26-.03.07-.07.14-.09.22-.02.08-.02.17-.03.26-.01.09-.04.17-.04.26l-.02,6.13c0,.72.38,1.38,1,1.74l135.25,78.09-92.52,53.41c-.17-.05-.34-.08-.52-.08s-.35.03-.52.08L59.04,159.26,300,20.14ZM461.51,309.19l-27.52-17.26c-.46-.29-1.03-.38-1.56-.24-.53.14-.98.48-1.25.96l-26.66,47.73-.1-33.46-.16-57.52,56.98-33.12.26,92.91ZM418.58,236.23l-13.82,7.98v-.31s0-.91,0-.91l53.26-30.95,1.23.72-40.67,23.48ZM402.36,239.28l-39.3-22.69-100.27-57.89,56.59-32.89,139.75,80.69-56.78,32.78ZM260.79,162.17l137.57,79.42-1.32.76-136.25-78.66v-1.52ZM399.03,248.39l1.24.72.19,66.92.08,28.5-1.29-.75-.27-95.42.06.03ZM57.63,163.07l240.37,138.78v276.86L57.63,439.93V163.07ZM302,578.71v-276.86l92.97-53.68.27,96.77c0,.71.38,1.37,1,1.72l5.3,3.08s.04.01.05.02c.13.07.27.13.41.17,0,0,.02,0,.03,0,0,0,0,0,0,0,.17.04.33.06.5.06.17,0,.35-.02.52-.07.08-.02.15-.06.22-.09.09-.03.18-.06.26-.11,0,0,0,0,0,0,.09-.05.17-.13.26-.2.05-.04.11-.07.16-.12.03-.03.05-.07.07-.1.09-.1.18-.21.25-.33,0,0,0,0,0-.01l29.36-52.56,28.81,18.07c.62.39,1.4.41,2.03.05.64-.35,1.03-1.03,1.03-1.75l-.28-99.48c.05-.18.09-.37.09-.56v-5.22s77.04-44.47,77.04-44.47v276.86l-240.37,138.77Z"/><path class="cls-1" d="M435.27,413.97s.01-.05.01-.08c0-.02,0-.03,0-.05,0-.16-.02-.32-.06-.47,0-.01,0-.02-.01-.03-.04-.14-.1-.27-.17-.4-.02-.04-.04-.07-.07-.11-.06-.1-.14-.2-.22-.29-.03-.03-.05-.06-.08-.09-.11-.11-.23-.21-.37-.29l-5.32-3.09-23.93-13.63-.05-.03s0,0,0,0h-.01s-.09-.04-.13-.06c-.07-.04-.15-.07-.23-.1-.09-.03-.18-.05-.27-.06-.04,0-.07-.02-.11-.02-.1-.01-.19-.01-.29-.01-.03,0-.07,0-.1,0-.1,0-.19.03-.29.05-.03,0-.06,0-.09.02,0,0,0,0,0,0-.13.03-.25.08-.37.14,0,0-.01,0-.02,0-.11.06-.22.12-.32.2-.03.02-.05.05-.08.07-.07.06-.14.12-.21.19-.09.1-.17.21-.23.32l-23.83,41.28c-.11.19-.17.39-.22.59l-23.6-13.45-.05-.03s0,0,0,0h-.01s-.08-.04-.12-.06c-.08-.04-.15-.08-.23-.1-.08-.03-.16-.04-.24-.06-.05,0-.09-.02-.14-.03-.09-.01-.17,0-.26,0-.04,0-.09,0-.13,0-.09,0-.18.03-.27.04-.04,0-.08,0-.11.02,0,0,0,0,0,0-.13.03-.25.08-.36.14-.02,0-.03.02-.05.03-.1.05-.2.11-.28.18-.03.03-.06.06-.09.09-.07.06-.13.11-.19.18-.09.1-.17.21-.23.32l-23.83,41.28c-.55.96-.23,2.18.73,2.73l5.3,3.08s.05.02.08.03c.06.03.12.05.18.07.13.05.25.09.39.12.07.01.13.02.2.03.05,0,.1.02.16.02.09,0,.17-.02.25-.03.06,0,.12-.01.18-.02.03,0,.05,0,.08-.01.16-.04.3-.11.44-.18.01,0,.03,0,.04-.02l4.69-2.71.1,36.86c0,.71.38,1.37,1,1.72l5.3,3.08s0,0,0,0c0,0,0,0,0,0,.06.04.14.05.2.08.09.04.18.09.28.12.17.04.34.07.51.07.35,0,.69-.09,1-.27l21.88-12.63c.62-.36,1-1.02,1-1.74l-.13-45.29,11.96-6.91c.06-.03.1-.08.16-.12.09-.06.18-.12.25-.2.11-.11.2-.24.28-.37.01-.02.03-.03.04-.05.08-.14.14-.29.18-.44.01-.04.02-.08.03-.12,0-.02.01-.05.02-.07.1.03.2.06.3.08.07.01.13.02.2.03.05,0,.11.02.16.02.09,0,.17-.02.26-.03.06,0,.12-.01.18-.02.03,0,.05,0,.08-.01.16-.04.3-.11.44-.18.01,0,.03,0,.04-.02l4.68-2.7.1,36.86c0,.71.38,1.37,1,1.72l5.3,3.08s0,0,0,0c0,0,0,0,0,0,.09.05.18.07.27.11.07.03.14.07.22.09.17.04.34.07.51.07.35,0,.69-.09,1-.27l21.89-12.64c.62-.36,1-1.02,1-1.74l-.13-45.29,11.96-6.91c.06-.03.1-.08.16-.12.09-.06.18-.12.25-.2.11-.11.2-.24.28-.37.01-.02.03-.03.04-.05.08-.14.14-.29.18-.44.01-.04.02-.08.03-.12.03-.12.04-.24.05-.37ZM404.72,399.89l.48.28,1.36.79-17.92,31.04-3.91,6.77-1.84-1.07,21.83-37.81ZM354.29,429l.48.28,1.36.79-17.07,29.57-4.76,8.24-1.84-1.07,21.83-37.81ZM344.72,467.34l1.29-.75.07,26.1.04,13.4-1.29-.75-.11-38.01ZM368.88,448.77c-.62.36-1,1.02-1,1.74l.13,45.29-17.89,10.33-.08-29.48-.04-13.05h0v-.47c0-.71-.39-1.37-1-1.73-.31-.18-.65-.27-1-.27s-.69.09-1,.27l-6.5,3.76,19.1-33.09,19.23,10.96-9.95,5.74ZM395.14,438.23l1.29-.75.07,25.51.04,14-1.29-.75-.11-38.01ZM419.31,419.66c-.62.36-1,1.02-1,1.74l.13,45.29-17.9,10.33-.04-12.36-.09-30.49h0v-.15c0-.71-.38-1.37-1-1.73-.31-.18-.65-.27-1-.27s-.69.09-1,.27l-6.49,3.75,19.1-33.09,19.23,10.96-9.95,5.74Z"/></svg>