<?xml version="1.0" encoding="UTF-8"?><svg id="Layer_1" xmlns="http://www.w3.org/2000/svg" viewBox="0 0 600 600"><defs><style>.cls-1{fill:#fff;}</style></defs><path class="cls-1" d="M553.14,535.31s-.01-.01-.02-.01c0,0-.02,0-.03-.01,0,0-.01,0-.02,0-.01,0-.02-.01-.03-.02-.08-.04-.15-.09-.23-.13l-202-110.86c-.56-.33-1.21-.6-1.97-.85-.18-.06-.35-.1-.54-.15-.61-.16-1.23-.27-1.83-.32-.1-.02-.19-.03-.28-.04-.04,0-.1-.02-.14,0-.61-.03-1.27,0-1.94.07-.14.01-.29.04-.43.06l-.14.02c-.53.08-1.03.18-1.53.31-.23.06-.47.13-.72.2-.48.14-.97.32-1.51.54l-.17.07c-.16.06-.32.13-.48.2-.22.1-.42.2-.63.3l-2.85-1.64c6.41-8.75,10.43-18.11,11.84-27.79,0-.04.01-.08.02-.11.11-.79.21-1.59.29-2.38,0-.09.02-.17.03-.26.07-.75.12-1.49.16-2.24,0-.13.02-.25.02-.38.04-.85.06-1.71.06-2.57l-.05-36.33s0-.02,0-.03c0-.06,0-.13,0-.19-.14-24.38-16.5-47.12-46.09-64.04-10.2-5.83-21.49-10.64-33.47-14.48v-2.52c0-.71-.38-1.38-1-1.73l-39.42-22.76,17.7-10.22c.62-.36,1-1.02,1-1.73v-58.58c0-.71-.38-1.38-1-1.73l-17.7-10.22,39.42-22.76c.62-.36,1-1.02,1-1.73V54.58c0-.71-.38-1.38-1-1.73L195,11.02c-.62-.36-1.38-.36-2,0l-72.46,41.83c-.62.36-1,1.02-1,1.73v83.67c0,.71.38,1.38,1,1.73l39.42,22.76-17.7,10.22c-.62.36-1,1.02-1,1.73v58.58c0,.71.38,1.38,1,1.73l17.7,10.22-39.42,22.76c-.62.36-1,1.02-1,1.73v2.65c-12.47,4.01-24.19,9.08-34.71,15.25-28.94,16.98-44.85,39.6-44.84,63.71,0,.02,0,.03,0,.05l.05,36.33c.03,24.47,16.4,47.3,46.1,64.28,29.81,17.05,68.74,25.55,107.67,25.55,39.68,0,79.36-8.83,109.4-26.45.06-.04.12-.07.18-.11l16.57,9.54c.82,3.63,2.66,6.39,5.38,7.96l197.26,118.96c.13.08.26.16.39.24,0,0,0,0,.01,0,.01,0,.02.01.03.02,1.85,1.06,3.93,1.58,6.16,1.58,3.12,0,6.54-1.03,10.04-3.07,11.56-6.74,20.89-23.05,20.79-36.37-.05-6.83-2.49-11.98-6.87-14.51ZM342.44,427.41c.18-.05.36-.11.55-.16.36-.09.73-.17,1.12-.22l.25-.04c.05,0,.1-.02.16-.03.49-.05.95-.07,1.35-.05.07.01.14.02.19.02.41.03.81.1,1.23.21.12.03.23.06.34.1.49.16.87.32,1.22.52l194.02,106.48c-1.93.49-3.93,1.33-5.95,2.5-.01,0-.02.01-.03.02-.68.4-1.35.83-2.02,1.3-.2.14-.4.3-.6.44-.47.34-.95.7-1.41,1.07-.19.15-.37.31-.56.47-.49.41-.98.84-1.46,1.29-.12.11-.24.23-.36.34-.58.55-1.14,1.12-1.7,1.72l-.03.04c-1.97,2.11-3.82,4.48-5.46,7.06-1.39,2.19-2.6,4.47-3.62,6.81l-193.58-112.85c.78-1.81,1.72-3.57,2.79-5.26,2.82-4.45,6.4-8.08,10.09-10.24.54-.32,1.12-.61,1.78-.91.1-.05.21-.09.31-.13l.21-.08c.4-.16.79-.3,1.18-.42ZM299.19,443.94c-1.82-1.05-2.84-3.43-2.87-6.69-.01-1.71.26-3.59.8-5.5l24.19,13.92c-1.18,3.41-1.81,6.81-1.85,9.94l-20.27-11.67ZM334.59,427.06c-.22.16-.45.32-.67.49l-22.05-12.69c.44-.09.86-.13,1.27-.14l21.44,12.34ZM307.37,416.88l2.91,1.67,20.5,11.8c-1.76,1.78-3.4,3.82-4.86,6.04l-24.21-13.93c1.69-2.29,3.64-4.22,5.66-5.59ZM322.83,441.93l-10.16-5.85-14.16-8.15c.32-.71.66-1.4,1.04-2.09l17.93,10.32,6.39,3.68c-.37.69-.71,1.38-1.04,2.09ZM314.7,411c-.27-.15-.57-.25-.88-.26-2.3-.14-4.84.56-7.37,2.01.02-.01.04-.03.07-.04.3-.19.6-.38.9-.57.9-.57,1.78-1.14,2.65-1.72.21-.14.43-.28.64-.42,1.05-.71,2.07-1.43,3.08-2.15.22-.16.44-.32.66-.48.82-.6,1.63-1.21,2.42-1.82.24-.18.47-.36.71-.55.97-.76,1.92-1.52,2.84-2.29.05-.04.09-.08.14-.12.88-.74,1.73-1.48,2.57-2.23.21-.19.41-.37.62-.56.79-.72,1.57-1.45,2.33-2.18.08-.07.15-.15.23-.22.84-.82,1.65-1.65,2.44-2.48.15-.15.29-.31.43-.46.67-.71,1.32-1.43,1.96-2.16.13-.15.26-.29.39-.44.74-.86,1.47-1.72,2.16-2.6.04-.05.08-.11.12-.16.64-.81,1.26-1.62,1.86-2.44.12-.17.25-.34.37-.51,1.27-1.76,2.44-3.55,3.51-5.36.09-.16.19-.32.28-.48.47-.8.91-1.61,1.34-2.42.06-.12.13-.24.19-.36.48-.93.94-1.86,1.37-2.8.05-.1.09-.2.14-.31.07-.15.14-.31.2-.46l.03,23.26c-1.64,8.26-5.33,16.27-10.93,23.83l-17.44-10.04ZM161.52,424.63c-22.3-3.22-43.43-9.81-60.93-19.81-.58-.33-1.16-.67-1.73-1.01-.12-.07-.25-.15-.38-.22-.59-.36-1.18-.72-1.76-1.08-.1-.06-.2-.12-.3-.18-20.08-12.57-32.19-28.66-34.29-45.67,2.06-18.03,15.35-35.08,37.45-48.03,6.2-3.64,12.91-6.81,19.95-9.58v54.33c0,.71.38,1.38,1,1.73l72.46,41.83s.05.02.08.03c.11.06.22.1.33.14.04.01.08.03.12.04.15.04.31.06.47.06s.32-.02.47-.06c.04-.01.08-.03.12-.04.12-.04.23-.08.33-.14.02-.01.05-.02.08-.03l72.46-41.83c.62-.36,1-1.02,1-1.73v-54.5c6.68,2.61,13.05,5.59,18.99,8.98,22.56,12.91,36.21,30.01,38.45,48.17-2.06,18.02-15.35,35.06-37.45,48.02-11.16,6.55-23.87,11.69-37.45,15.43-28.03,7.72-59.78,9.43-89.47,5.15ZM196,312.9l68.46-39.52v78.84l-68.46,39.52v-78.84ZM192,312.9v78.84l-68.46-39.52v-78.84l68.46,39.52ZM119.54,294.76c-7.78,2.97-15.17,6.42-21.97,10.42-15.85,9.29-27.39,20.69-33.82,33.13,4.52-14.99,16.83-28.86,35.79-39.99,6.22-3.65,12.94-6.83,20-9.6v6.05ZM289.43,304.38c-6.53-3.73-13.58-6.97-20.98-9.77v-6.04c6.66,2.61,13.02,5.59,18.94,8.97,19.39,11.09,32.03,25.01,36.73,40.13-6.62-12.55-18.47-24-34.7-33.29ZM242.73,232.11l-46.73,26.98v-53.81l46.73-26.98v53.81ZM264.46,137.09l-68.46,39.52v-78.84l68.46-39.52v78.84ZM194,15.06l68.63,39.63-68.63,39.63-68.63-39.63L194,15.06ZM123.54,58.25l68.46,39.52v78.84l-68.46-39.52V58.25ZM163.96,165.05l29.03,16.76s.05.02.08.03c.11.06.22.1.33.14.04.01.08.03.12.04.15.04.31.06.47.06s.32-.02.47-.06c.04-.01.08-.03.12-.04.12-.04.23-.08.33-.14.02-.01.05-.02.08-.03l29.03-16.76,16.82,9.71-46.85,27.05-46.85-27.05,16.82-9.71ZM145.27,178.3l46.73,26.98v53.81l-46.73-26.98v-53.81ZM193,264.29s.05.02.08.03c.11.06.22.1.33.14.04.01.08.03.12.04.15.04.31.06.47.06s.32-.02.47-.06c.04-.01.08-.03.12-.04.12-.04.23-.08.33-.14.02-.01.05-.02.08-.03l29.03-16.76,38.6,22.29-68.63,39.63-68.63-39.63,38.6-22.29,29.03,16.76ZM86.86,291.06c9.93-5.83,20.96-10.64,32.68-14.51v7.87c-7.8,2.97-15.2,6.44-22.02,10.44-25.73,15.09-39.83,35.23-39.71,56.69,0,1.79.13,3.57.33,5.34,0,0,0,0,0,0,0,0,0,0,0,0,2.14,18.34,14.73,35.38,36.08,48.75.12.07.24.15.36.22.6.37,1.19.74,1.8,1.1.25.15.5.29.74.44.49.29.98.58,1.49.87,26.35,15.07,60.75,22.58,95.17,22.58h0c19.88,0,39.76-2.52,58.1-7.53,14-3.83,27.1-9.11,38.59-15.85,25.73-15.09,39.83-35.23,39.71-56.69-.12-21.61-14.61-41.76-40.81-56.74-6.52-3.73-13.55-6.97-20.93-9.77v-7.87c11.24,3.69,21.86,8.25,31.48,13.75,28.29,16.18,43.94,37.7,44.07,60.59,0,.23,0,.45-.01.68,0,.59-.02,1.19-.04,1.78,0,.2-.02.39-.03.59-.03.61-.08,1.22-.13,1.83-.01.11-.02.23-.03.34,0,.04,0,.07-.01.11-.07.68-.15,1.36-.25,2.04-.01.08-.02.17-.04.25-.11.77-.24,1.53-.39,2.29,0,0,0,0,0,.01-.05.25-.09.5-.14.74-.04.2-.09.39-.13.59-.11.5-.22,1-.35,1.5-.04.16-.09.31-.13.47-.14.53-.28,1.07-.44,1.6-.03.12-.08.23-.11.35-.17.57-.35,1.14-.54,1.71-.03.07-.05.15-.08.22-.21.61-.43,1.22-.66,1.82-.01.04-.03.07-.04.11-5.48,14.17-17.17,27.33-34.26,38.38-.11.07-.22.14-.33.21-.71.46-1.43.91-2.16,1.36-.84.52-1.69,1.03-2.56,1.54-58.41,34.27-153.98,34.66-213.06.88-.89-.51-1.76-1.02-2.62-1.54-.27-.16-.54-.33-.81-.5-.58-.35-1.17-.71-1.74-1.07-.45-.28-.89-.57-1.33-.86-.38-.24-.76-.49-1.13-.73-.63-.42-1.25-.84-1.87-1.27-.17-.12-.35-.23-.52-.35-.73-.51-1.45-1.02-2.15-1.54-.05-.04-.11-.07-.16-.11-12.88-9.42-22.07-20.17-27.15-31.65,0-.02-.01-.03-.02-.05-.28-.63-.54-1.27-.8-1.9-.02-.05-.04-.09-.06-.14-.24-.59-.46-1.19-.67-1.79-.03-.09-.07-.18-.1-.27-.2-.56-.38-1.12-.55-1.68-.04-.13-.09-.26-.13-.4-.16-.52-.3-1.05-.45-1.57-.05-.17-.1-.34-.15-.52-.13-.49-.24-.98-.36-1.47-.05-.21-.1-.42-.15-.63-.1-.45-.18-.91-.27-1.37-.05-.25-.1-.5-.15-.75-.07-.42-.13-.84-.2-1.26-.04-.29-.09-.58-.13-.87-.05-.39-.09-.78-.13-1.18-.03-.32-.08-.64-.1-.96-.03-.37-.05-.73-.08-1.1-.02-.35-.05-.7-.07-1.05-.02-.34-.02-.69-.03-1.03,0-.37-.02-.75-.03-1.12-.08-22.69,15.14-44.14,42.87-60.4ZM88.12,448.51c-28.4-16.24-44.05-37.83-44.08-60.81l-.02-15.68c.08.2.17.39.25.58.27.65.55,1.3.84,1.95.15.32.29.65.44.97.35.74.72,1.49,1.1,2.22.14.27.29.55.43.82.38.71.78,1.42,1.19,2.12.19.33.39.66.59.98.37.61.75,1.21,1.14,1.81.18.27.34.54.52.81.54.8,1.1,1.6,1.67,2.39.22.31.45.61.68.92.43.57.86,1.13,1.31,1.7.24.3.47.6.71.89.64.78,1.29,1.56,1.97,2.33.22.25.45.5.67.74.52.58,1.06,1.16,1.6,1.74.28.29.55.58.83.87.67.69,1.36,1.38,2.06,2.06.19.19.39.37.59.56.72.68,1.46,1.36,2.21,2.03.29.26.59.52.88.78.68.59,1.37,1.18,2.07,1.77.23.19.45.38.68.56.9.74,1.83,1.47,2.77,2.19.28.21.56.42.85.64.76.57,1.52,1.13,2.31,1.69.28.2.55.4.84.6,1.02.72,2.05,1.42,3.11,2.12.21.14.43.28.64.41.9.59,1.81,1.16,2.73,1.74.31.19.62.38.94.58,1.13.69,2.28,1.37,3.46,2.05,1.87,1.07,3.78,2.11,5.72,3.11.61.32,1.25.61,1.87.92,1.34.67,2.68,1.35,4.06,1.99.77.36,1.56.69,2.34,1.04,1.25.56,2.5,1.13,3.77,1.67.85.36,1.73.69,2.59,1.03,1.23.49,2.45,1,3.7,1.47.9.34,1.83.65,2.74.98,1.23.44,2.46.9,3.71,1.32.94.32,1.91.61,2.86.91,1.24.4,2.48.81,3.74,1.19.98.29,1.97.56,2.96.84,1.25.36,2.5.72,3.77,1.06,1.01.27,2.04.51,3.07.76,1.26.31,2.52.64,3.79.93,1.04.24,2.1.45,3.15.68,1.27.27,2.53.56,3.81.81,1.07.21,2.16.4,3.23.6,1.27.23,2.54.48,3.82.7,1.09.18,2.2.34,3.3.51,1.28.2,2.55.4,3.84.58,1.12.15,2.25.28,3.37.42,1.28.16,2.55.33,3.83.47,1.14.12,2.29.22,3.44.33,1.27.12,2.54.25,3.81.36,1.16.09,2.32.16,3.48.24,1.27.09,2.54.18,3.81.25,1.17.06,2.34.1,3.51.14,1.27.05,2.54.11,3.81.14,1.17.03,2.35.03,3.52.05,1.08.01,2.16.04,3.25.04.19,0,.37,0,.56,0,1.26,0,2.52-.03,3.79-.05,1.21-.02,2.41-.03,3.62-.06,1.26-.04,2.52-.1,3.78-.16,1.2-.05,2.4-.1,3.6-.16,1.26-.07,2.52-.17,3.77-.26,1.2-.09,2.39-.16,3.59-.26,1.26-.11,2.51-.24,3.76-.37,1.18-.12,2.37-.23,3.55-.36,1.26-.14,2.5-.32,3.76-.48,1.17-.15,2.34-.29,3.5-.46,1.26-.18,2.5-.39,3.75-.59,1.15-.18,2.3-.35,3.43-.55,1.25-.22,2.49-.47,3.74-.7,1.12-.21,2.25-.41,3.37-.64,1.24-.26,2.47-.54,3.71-.82,1.1-.24,2.21-.47,3.3-.73,1.23-.29,2.45-.62,3.67-.93,1.08-.28,2.16-.54,3.23-.83,1.22-.33,2.42-.7,3.63-1.05,1.04-.3,2.1-.59,3.13-.91,1.22-.38,2.41-.78,3.62-1.18,1-.33,2.02-.64,3.01-.99,1.2-.42,2.38-.87,3.57-1.3.97-.36,1.95-.7,2.9-1.07,1.2-.46,2.37-.96,3.55-1.45.92-.38,1.85-.74,2.75-1.13,1.21-.52,2.4-1.08,3.59-1.63.84-.39,1.7-.75,2.53-1.15,1.31-.63,2.59-1.29,3.87-1.95.68-.35,1.38-.68,2.05-1.03,1.94-1.03,3.85-2.09,5.72-3.19.79-.47,1.57-.94,2.35-1.41-3.09,2.01-6.03,5.06-8.35,8.72-1.22,1.92-2.23,3.95-3.02,6.03,0,0,0,0,0,0-1.2,3.15-1.82,6.33-1.8,9.2.03,4.75,1.76,8.34,4.87,10.13l2.15,1.24c-58.55,33.23-152.76,33.3-211.23-.14ZM327.36,465.01c-2.49-1.43-3.87-4.61-3.9-8.96-.02-2.42.4-5.08,1.22-7.8l193.52,112.82c-.78,2.32-1.34,4.62-1.69,6.87,0,.05-.02.1-.02.15-.12.81-.22,1.61-.28,2.4,0,.09-.01.19-.02.28-.06.79-.09,1.58-.08,2.35,0,.51.02,1.01.06,1.51,0,.14.02.28.03.42.03.37.06.73.11,1.08.02.13.03.27.05.4.06.44.13.88.22,1.3,0,.02,0,.05.01.07.09.45.2.89.32,1.32,0,.04.02.07.03.11l-189.56-114.31ZM537.21,582.74c-4.71,2.75-9.05,3.27-12.2,1.47-.26-.15-.49-.33-.73-.51-.16-.12-.33-.24-.49-.37-.18-.16-.35-.33-.51-.51-.15-.15-.3-.3-.43-.46-.16-.19-.3-.4-.44-.6-.13-.18-.26-.35-.37-.54-.13-.22-.25-.46-.37-.7-.1-.21-.22-.4-.31-.62-.11-.25-.2-.53-.29-.8-.08-.23-.17-.44-.24-.68-.09-.3-.15-.61-.22-.92-.05-.24-.12-.46-.17-.71-.07-.36-.11-.75-.16-1.14-.03-.22-.07-.42-.09-.64-.06-.62-.09-1.25-.09-1.92,0-.65.03-1.32.07-1.98.01-.19.03-.39.04-.58.05-.61.12-1.23.22-1.85.04-.28.1-.57.15-.86.06-.35.13-.7.2-1.05.08-.37.16-.74.25-1.12.03-.13.07-.26.1-.39.22-.86.47-1.73.76-2.6.04-.11.07-.22.11-.33.16-.48.33-.96.52-1.45,1.08-2.85,2.48-5.63,4.15-8.27,1.27-2,2.67-3.87,4.15-5.56.03-.03.05-.06.08-.09.45-.51.91-1,1.37-1.47.09-.09.18-.18.27-.27.42-.42.84-.82,1.27-1.22.16-.15.33-.29.49-.44.37-.33.75-.65,1.13-.95.27-.22.55-.42.83-.63.29-.22.58-.44.87-.64.59-.41,1.18-.79,1.78-1.15h0c.44-.26.88-.48,1.31-.7.28-.14.55-.27.85-.41.01,0,.03-.01.04-.02.12-.05.25-.1.37-.15l.24-.1s0,0,0,0c.51-.21.99-.38,1.45-.52.22-.07.44-.13.66-.19.45-.12.91-.21,1.39-.28l.29-.05c.07-.01.15-.03.22-.03.17-.02.33-.02.5-.04.18-.01.35-.03.53-.03.2,0,.39,0,.56,0,.13,0,.25.03.38.04.49.04.98.12,1.5.26.14.04.28.07.42.12.21.07.4.14.58.21.3.12.61.25.89.41h0c3.13,1.79,4.88,5.73,4.91,11.1.08,12.04-8.35,26.79-18.81,32.88Z"/></svg>