<?xml version="1.0" encoding="UTF-8"?><svg id="Layer_1" xmlns="http://www.w3.org/2000/svg" viewBox="0 0 600 600"><defs><style>.cls-1{fill:#051414;}</style></defs><path class="cls-1" d="M319.53,540.02c.31.18.65.27,1,.27s.69-.09,1-.27l39.82-22.99c.62-.36,1-1.02,1-1.74l-.13-45.53c0-.71-.38-1.37-1-1.73-.62-.36-1.38-.36-2,0l-39.82,22.99c-.62.36-1,1.02-1,1.74l.13,45.53c0,.71.38,1.37,1,1.73ZM358.22,473.23l.12,40.91-35.82,20.68-.12-40.91,35.82-20.68Z"/><path class="cls-1" d="M237.34,517.89l40.67,23.63c.31.18.66.27,1,.27s.69-.09,1-.27c.62-.36,1-1.02,1-1.74l-.13-47.04c0-.71-.38-1.37-1-1.72l-40.67-23.63c-.62-.36-1.38-.36-2,0-.62.36-1,1.02-1,1.74l.13,47.04c0,.71.38,1.37,1,1.72ZM276.88,493.92l.12,42.4-36.66-21.3-.12-42.4,36.66,21.3Z"/><path class="cls-1" d="M319.53,178.88c.31.18.65.27,1,.27s.69-.09,1-.27l39.82-22.99c.62-.36,1-1.02,1-1.74l-.13-45.52c0-.71-.38-1.37-1-1.73-.62-.36-1.38-.36-2,0l-39.82,22.99c-.62.36-1,1.02-1,1.74l.13,45.52c0,.71.38,1.37,1,1.73ZM358.22,112.09l.12,40.91-35.82,20.68-.12-40.91,35.82-20.68Z"/><path class="cls-1" d="M237.34,156.75l40.67,23.63c.31.18.66.27,1,.27s.69-.09,1-.27c.62-.36,1-1.02,1-1.74l-.13-47.04c0-.71-.38-1.37-1-1.72l-40.67-23.63c-.62-.36-1.38-.36-2,0-.62.36-1,1.02-1,1.74l.13,47.04c0,.71.38,1.37,1,1.72ZM276.88,132.77l.12,42.4-36.66-21.3-.12-42.4,36.66,21.3Z"/><path class="cls-1" d="M257.77,70.2c-.62.36-1,1.02-1,1.73s.38,1.37,1,1.73l40.86,23.75c.31.18.66.27,1,.27s.69-.09,1-.27l41.33-23.86c.62-.36,1-1.02,1-1.73s-.38-1.37-1-1.73l-40.86-23.75c-.62-.36-1.38-.36-2,0l-41.33,23.86ZM336.97,71.81l-37.33,21.55-36.88-21.43,37.33-21.55,36.88,21.43Z"/><path class="cls-1" d="M301.35,215.36l80.78-46.64c.5-.29.95-.75,1.27-1.3.32-.55.49-1.17.49-1.75l-.26-93.37c0-.75-.3-1.42-.8-1.89,0,0,0,0,0,0-.01-.01-.03-.02-.04-.03-.02-.02-.03-.04-.05-.05-.1-.09-.21-.17-.33-.24l-80.73-46.92h0s0,0,0,0c0,0,0,0,0,0l-.05-.03s-.11-.06-.15-.07c-.03-.01-.06-.02-.09-.03-.03-.01-.05-.03-.08-.04-.04-.02-.12-.04-.16-.05-.02,0-.04-.01-.06-.02,0,0-.02,0-.03,0-.04,0-.07-.02-.11-.03,0,0-.01,0-.02,0-.02,0-.04,0-.06,0,0,0-.02,0-.03,0,0,0,0,0,0,0-.07,0-.14-.02-.2-.02,0,0,0,0,0,0,0,0,0,0,0,0-.05,0-.12,0-.19,0,0,0-.01,0-.02,0-.02,0-.04,0-.06,0,0,0,0,0,0,0,0,0,0,0,0,0,0,0,0,0,0,0,0,0,0,0,0,0-.06,0-.13.01-.19.02,0,0,0,0,0,0,0,0-.02,0-.03,0,0,0,0,0-.01,0,0,0,0,0,0,0-.08.01-.19.03-.25.05-.01,0-.02.01-.03.01-.01,0-.03,0-.04,0,0,0-.01,0-.02,0-.06.02-.17.06-.25.09,0,0,0,0-.01,0s0,0-.01,0c0,0-.01,0-.02,0,0,0-.01,0-.02.01-.09.04-.19.08-.28.14,0,0,0,0,0,0,0,0,0,0-.01,0,0,0,0,0,0,0,0,0,0,0,0,0l-81.26,46.92s0,0,0,0c0,0,0,0,0,0,0,0,0,0,0,0-.22.13-.43.29-.62.48-.01.01-.02.02-.04.03,0,0-.02.02-.03.03,0,0-.01.01-.02.02-.04.04-.09.09-.13.14,0,0,0,0,0,0-.03.03-.09.11-.13.15,0,0,0,0,0,0,0,0,0,0,0,0,0,0,0,0,0,0,0,0,0,0,0,0-.03.03-.08.11-.1.13,0,0,0,0,0,.01,0,0,0,0-.01.01-.01.02-.03.05-.05.08,0,0,0,0,0,0,0,0,0,.01-.01.02-.01.02-.03.04-.03.05,0,0,0,0,0,0-.02.03-.03.04-.04.07,0,0,0,0,0,0h0s0,.01,0,.02c0,0,0,.01-.01.02,0,0,0,.01,0,.02s0,.01-.01.02c0,0,0,0,0,0,0,.01-.02.03-.02.04,0,0,0,.02-.01.02,0,0,0,.01-.01.02-.01.02-.05.11-.06.13,0,0,0,0,0,0-.01.02-.02.05-.03.05,0,.01,0,.02-.01.04,0,0-.01.02-.02.03,0,0-.01.03-.02.04,0,0,0,0,0,0-.01.03-.03.07-.04.1-.02.05-.04.12-.06.15,0,.02-.04.12-.04.14,0,0,0,.02,0,.02,0,0,0,.01,0,.02,0,0,0,0,0,.01,0,.04-.03.13-.04.19,0,0,0,0,0,0,0,0,0,0,0,0,0,0,0,0,0,.01,0,0,0,0,0,0-.02.08-.03.15-.04.23,0,0,0,0,0,0h0c-.02.14-.03.28-.03.41,0,0,0,0,0,0s0,0,0,0h0s.26,93.38.26,93.38c0,.02,0,.03,0,.05.02.93.47,1.73,1.21,2.16l79.75,46.35v36.7l-39.09,22.57s0,0,0,0c0,0,0,0,0,0,0,0,0,0,0,0,0,0,0,0,0,0-.12.07-.22.17-.33.26,0,0-.01,0-.02.02-.04.03-.07.05-.11.08-.02.02-.05.03-.07.05,0,0-.01.02-.02.02,0,0,0,0,0,0-.04.04-.08.09-.11.11,0,0,0,0,0,.01,0,0,0,0-.01.01-.01.01-.03.04-.05.06,0,0,0,0,0,0,0,0,0,0,0,0-.01.02-.03.03-.03.04,0,0,0,.01-.01.02,0,.01-.02.02-.03.04,0,0-.01.01-.02.02,0,.01-.02.03-.03.05,0,0,0,.01-.01.02,0,0,0,0,0,0-.02.02-.03.05-.04.06-.02.03-.04.07-.06.1,0,0,0,0,0,0,0,0,0,0,0,0,0,0,0,.01-.01.02h0s0,0,0,0c0,0,0,0,0,0,0,0,0,0,0,0-.02.03-.04.07-.05.09,0,0,0,.02-.01.03-.01.02-.03.05-.04.07,0,0,0,.01,0,.02,0,0,0,.01,0,.02,0,0,0,.02,0,.03,0,0-.01.02-.01.03,0,.01,0,.03-.02.04,0,0,0,0,0,0,0,0,0,0,0,0-.01.03-.03.06-.03.08,0,.01,0,.02,0,.04-.01.03-.03.07-.03.1,0,0,0,.01,0,.02,0,0,0,.01,0,.02,0,.01,0,.02,0,.04,0,.02,0,.03-.01.05,0,0,0,.01,0,.02,0,.03-.02.07-.02.11,0,0,0,0,0,0,0,0,0,0,0,.01,0,0,0,0,0,0h0c-.01.07-.03.17-.04.23,0,.07-.02.22-.02.3,0,0,0,0,0,0s0,0,0,0l.13,46.89s0,.05,0,.07c.03.8.43,1.51,1.1,1.9l39.23,22.8v36.96l-79.48,45.89s0,0,0,0c0,0,0,0,0,0,0,0,0,0,0,0-.21.12-.42.29-.61.47-.01.01-.03.02-.04.03,0,0,0,0,0,0,0,0,0,0,0,0,0,0-.02.02-.03.03,0,0-.01.02-.02.02-.04.04-.08.09-.12.13,0,0,0,0,0,0-.03.03-.08.1-.12.15,0,0,0,0,0,0,0,0-.01.02-.02.03,0,0-.01.01-.01.02,0,0,0,0,0,0,0,0,0,0,0,0-.03.04-.06.08-.07.1,0,0,0,0,0,.01,0,0,0,0-.01.01l-.08.12s0,0,0,0c-.02.04-.05.07-.07.11,0,0,0,0,0,.01,0,0,0,0,0,.01,0,0,0,0,0,0s0,0,0,0c-.01.02-.04.06-.04.08,0,0,0,0,0,0,0,0,0,0,0,0-.02.03-.04.08-.07.13,0,0,0,0,0,0,0,0,0,0,0,.01,0,0,0,.02-.01.02,0,0,0,0,0,0-.02.03-.04.08-.04.09,0,.01-.02.04-.03.06,0,0,0,0,0,.01-.01.02-.02.04-.03.06,0,0,0,0,0,0,0,0,0,.02-.01.03,0,0,0,.02-.01.03,0,0,0,0,0,0-.02.04-.03.09-.04.11,0,0,0,0,0,0-.01.04-.03.1-.04.11,0,0,0,.02,0,.03,0,.01,0,.02-.01.03,0,0,0,0,0,.01,0,.03-.03.12-.04.17,0,0,0,0,0,0,0,0,0,.01,0,.02,0,0,0,0,0,.01,0,0,0,0,0,0-.02.08-.03.15-.04.23h0c-.02.14-.03.28-.03.42,0,0,0,0,0,0s0,0,0,0h0s.26,93.38.26,93.38c0,.02,0,.03,0,.05.02.93.47,1.74,1.21,2.16l80.73,46.91s.02,0,.02.01c.16.09.32.15.49.2.23.07.46.11.7.11.45,0,.91-.12,1.34-.37l81.26-46.92c.5-.29.95-.75,1.27-1.3.32-.55.49-1.17.49-1.75l-.26-93.37c0-.75-.3-1.42-.8-1.89,0,0,0,0-.01-.01-.01-.01-.03-.02-.04-.03-.02-.02-.03-.04-.05-.05-.1-.09-.21-.17-.32-.23l-80.73-46.92h0s-.01,0-.01,0c0,0,0,0,0,0l-.04-.02s-.11-.06-.17-.08c0,0-.02,0-.02-.01-.01,0-.03-.01-.04-.02,0,0-.02,0-.02,0v-35.22l40.39-23.32c.41-.23.75-.58,1.01-1.02.25-.43.38-.9.38-1.38l-.13-46.89c0-.54-.19-1.02-.5-1.42-.01-.02-.03-.04-.04-.05-.05-.06-.1-.12-.15-.18-.01-.01-.03-.03-.04-.04-.05-.05-.11-.09-.17-.14-.03-.03-.06-.06-.1-.08-.03-.02-.06-.04-.1-.06,0,0,0,0,0,0,0,0,0,0,0,0,0,0,0,0,0,0,0,0,0,0,0,0l-26.81-15.58-13.73-7.98v-35.45ZM338.36,322.08l-36.06,20.82v-5.05s-.12-36.35-.12-36.35l36.06-20.82.12,41.41ZM299.35,275.94c1.1,0,2-.9,2-2v-17.02l34.14,19.84-5.46,3.15-30.23,17.45-35.8-20.81,33.35-19.25v16.64c0,1.1.9,2,2,2ZM263.01,281.49l34.42,20,.08,29.18.03,11.76-35.78-20.79-.12-40.94,1.36.79ZM378.37,164.53l-75.76,43.74v-4.7s-.25-82.32-.25-82.32l75.76-43.74.25,87.03ZM296.85,121.24l.18,63.62.06,22.5-75.21-43.71-.24-86.12,3.15,1.83,72.06,41.88ZM358.12,82.69l-58.52,33.79-75.24-43.73,75.02-43.31,75.24,43.73-16.5,9.53ZM378.37,525.67l-75.76,43.74v-4.7s-.25-82.32-.25-82.32l75.76-43.74.25,87.03ZM299.35,434.28c1.1,0,2-.9,2-2v-20.02l35.62,20.7-37.33,21.55-36.88-21.43,34.59-19.97v19.17c0,1.1.9,2,2,2ZM297.35,408.49l-39.58,22.85c-.62.36-1,1.02-1,1.73s.38,1.37,1,1.73l40.86,23.75c.31.18.66.27,1,.27s.69-.09,1-.27l41.33-23.86c.62-.36,1-1.02,1-1.73s-.38-1.37-1-1.73l-40.62-23.6v-15.9l73.27,42.58-75.02,43.31-75.24-43.73,72.99-42.14v16.73ZM296.85,482.39l.18,63.62.06,22.5-75.21-43.71-.24-86.12,3.15,1.83,72.06,41.88Z"/><path class="cls-1" d="M202.21,250.96s-.05-.05-.08-.08c-.09-.08-.19-.16-.3-.22l-80.73-46.92s0,0,0,0h0s0,0,0,0c-.03-.02-.06-.03-.09-.05,0,0,0,0,0,0-.03-.02-.07-.03-.1-.05-.02,0-.04-.01-.06-.02-.02,0-.04-.02-.06-.03-.05-.02-.15-.05-.21-.07-.02,0-.05-.01-.08-.02,0,0,0,0-.01,0-.04,0-.08-.02-.11-.02-.09-.02-.22-.03-.31-.04,0,0,0,0,0,0,0,0,0,0,0,0-.05,0-.13,0-.2,0,0,0,0,0-.01,0-.02,0-.05,0-.07,0,0,0,0,0,0,0-.05,0-.13.01-.19.02,0,0,0,0,0,0,0,0-.02,0-.02,0,0,0-.02,0-.03,0,0,0,0,0-.01,0-.07.01-.15.03-.23.05-.01,0-.02,0-.03,0,0,0-.03,0-.04.01h-.02s-.01,0-.01,0c0,0,0,0,0,0-.08.02-.16.05-.23.08,0,0-.01,0-.02,0,0,0,0,0-.01,0,0,0-.01,0-.02,0,0,0-.02.01-.02.01-.09.04-.18.08-.27.14-.01,0-.02,0-.03.01l-81.26,46.92s0,0,0,0c-.22.13-.42.29-.61.47,0,0-.02.01-.03.02,0,0-.01.01-.02.02,0,0,0,0,0,0,0,0,0,0-.01.01-.03.03-.05.05-.07.08-.01.01-.02.02-.03.04,0,0-.02.01-.03.02,0,0-.02.03-.03.04,0,0-.01.01-.02.02,0,0,0,0,0,.01-.04.04-.07.09-.1.12,0,0,0,0,0,0,0,0,0,0,0,0,0,0,0,0,0,0,0,0,0,0,0,0,0,0-.01.01-.02.02,0,0,0,.01-.01.02-.02.03-.05.06-.06.08,0,0,0,0,0,0-.02.02-.08.11-.09.13,0,0,0,.01-.01.02,0,0-.01.01-.01.02,0,.01-.05.09-.06.1,0,0,0,0,0,.01,0,0,0,0,0,.01,0,0,0,.02-.01.03,0,0,0,.01-.01.02,0,.01-.01.02-.02.04-.01.02-.02.04-.03.07,0,.01-.02.03-.03.04,0,.01,0,.02-.01.03,0,.01-.01.02-.02.03-.01.02-.04.09-.05.12,0,0,0,0,0,0,0,.02-.05.11-.06.14,0,0,0,0,0,.01,0,0,0,0,0,.01,0,.02-.03.08-.04.12,0,0,0,0,0,0,0,0,0,0,0,0,0,.01-.01.03-.01.04,0,0,0,0,0,.01-.01.05-.03.09-.04.13,0,0,0,0,0,0,0,0,0,0,0,0,0,0,0,0,0,0,0,.04-.03.13-.04.19,0,0,0,0,0,0,0,0,0,0,0,0,0,0,0,0,0,.01,0,0,0,0,0,0,0,.05-.02.1-.02.14,0,.03-.01.05-.01.08,0,0,0,0,0,0,0,0,0,.01,0,.02,0,0,0,.02,0,.03,0,0,0,.02,0,.02-.01.12-.02.23-.02.34,0,0,0,0,0,0s0,0,0,0l.26,93.38s0,0,0,0,0,0,0,0c0,.95.46,1.78,1.21,2.21l80.73,46.91s.02,0,.02.01c.16.09.32.15.49.2.23.07.46.11.7.11.45,0,.91-.12,1.34-.37l81.26-46.92c.5-.29.95-.75,1.27-1.3.32-.55.49-1.17.49-1.75l-.26-93.38c0-.77-.32-1.44-.84-1.91ZM197.8,345.1l-75.76,43.74v-4.7s-.25-82.32-.25-82.32l75.76-43.74.25,87.03ZM177.55,263.26l-58.52,33.79-75.24-43.73,75.02-43.31,75.24,43.73-16.5,9.53ZM116.28,301.82l.19,67.26.05,18.86-75.21-43.71-.24-86.12,1.26.73,73.96,42.98Z"/><path class="cls-1" d="M138.95,359.45c.31.18.65.27,1,.27s.69-.09,1-.27l39.82-22.99c.62-.36,1-1.02,1-1.74l-.13-45.52c0-.71-.38-1.37-1-1.73-.62-.36-1.38-.36-2,0l-39.82,22.99c-.62.36-1,1.02-1,1.74l.13,45.52c0,.71.38,1.37,1,1.73ZM177.65,292.66l.12,40.91-35.82,20.68-.12-40.91,35.82-20.68Z"/><path class="cls-1" d="M56.77,337.32l40.67,23.63c.31.18.66.27,1,.27s.69-.09,1-.27c.62-.36,1-1.02,1-1.74l-.13-47.04c0-.71-.38-1.37-1-1.72l-40.67-23.63c-.62-.36-1.38-.36-2,0-.62.36-1,1.02-1,1.74l.13,47.04c0,.71.38,1.37,1,1.72ZM96.31,313.34l.12,42.4-36.66-21.3-.12-42.4,36.66,21.3Z"/><path class="cls-1" d="M77.2,250.77c-.62.36-1,1.02-1,1.73s.38,1.37,1,1.73l40.86,23.75c.31.18.66.27,1,.27s.69-.09,1-.27l41.33-23.86c.62-.36,1-1.02,1-1.73s-.38-1.37-1-1.73l-40.86-23.75c-.62-.36-1.38-.36-2,0l-41.33,23.86ZM156.4,252.38l-37.33,21.55-36.88-21.43,37.33-21.55,36.88,21.43Z"/><path class="cls-1" d="M564.19,252.87c0-.77-.31-1.44-.83-1.91-.03-.03-.05-.05-.08-.08-.09-.08-.19-.15-.3-.22l-80.74-46.92s0,0,0,0c0,0,0,0,0,0h0s0,0,0,0c-.06-.03-.13-.07-.19-.1-.02,0-.04-.01-.06-.02-.02,0-.04-.02-.06-.03-.05-.02-.15-.05-.21-.07-.02,0-.05-.01-.08-.02,0,0,0,0-.01,0-.04,0-.08-.02-.11-.02-.09-.02-.22-.03-.31-.04,0,0,0,0,0,0h0c-.05,0-.13,0-.2,0,0,0,0,0-.01,0-.02,0-.05,0-.07,0,0,0,0,0,0,0-.05,0-.13.01-.19.02,0,0,0,0,0,0,0,0-.02,0-.02,0,0,0-.01,0-.02,0,0,0,0,0,0,0-.09.01-.2.04-.28.06,0,0-.01,0-.02,0,0,0-.01,0-.01,0s0,0-.01,0h0s0,0-.01,0c-.07.02-.16.05-.23.08,0,0-.02,0-.02,0s-.02,0-.02.01c0,0-.02,0-.03.01,0,0-.02.01-.03.02-.09.04-.18.08-.27.13,0,0,0,0-.01,0l-81.26,46.92s0,0,0,0c0,0,0,0,0,0,0,0,0,0,0,0-.22.13-.42.29-.61.47-.01.01-.03.02-.04.03,0,0,0,0,0,0,0,0,0,0,0,0,0,0-.02.02-.03.03-.01.01-.02.02-.03.04-.03.04-.07.07-.1.11,0,0,0,0-.01.01,0,0,0,.01-.01.01,0,0,0,0,0,0,0,0,0,0,0,0-.03.04-.08.09-.09.11,0,0-.01.02-.02.03-.01.02-.03.03-.04.05,0,0,0,0,0,0,0,0-.05.06-.06.08,0,0,0,0,0,0-.03.04-.08.12-.11.17,0,0,0,0,0,0,0,.01-.05.09-.06.1,0,0,0,0,0,0,0,0,0,0,0,.01,0,.01-.01.02-.02.04,0,0,0,0,0,.01-.02.03-.03.05-.04.08,0,0,0,0,0,0,0,0,0,.01,0,.02,0,0,0,.01,0,.02,0,0,0,0,0,0-.02.03-.04.08-.05.09-.01.02-.04.09-.06.12h0s0,.02-.01.03c0,0,0,.01,0,.02-.01.03-.03.07-.04.09,0,0,0,0,0,.01,0,0,0,0,0,.01,0,.02-.03.08-.04.12,0,0,0,0,0,0,0,0,0,0,0,0,0,.01-.01.03-.01.04,0,0,0,0,0,.01-.01.03-.02.06-.03.09,0,0,0,0,0,0,0,0,0,.02,0,.03,0,0,0,.02,0,.02-.01.05-.03.13-.04.16,0,0,0,.01,0,.02,0,0,0,.02,0,.03-.02.08-.03.16-.04.23,0,0,0,0,0,0,0,0,0,.01,0,.02,0,0,0,0,0,0h0c-.02.14-.03.28-.03.41,0,0,0,0,0,0s0,0,0,0h0s.26,93.38.26,93.38h0c0,.96.46,1.79,1.21,2.21l80.72,46.91s.02.01.03.02c.14.08.28.13.42.17.24.08.5.14.75.14.45,0,.91-.12,1.34-.37l81.26-46.92c.5-.29.95-.75,1.26-1.3s.49-1.16.49-1.75l-.26-93.38ZM558.94,345.1l-75.76,43.74v-4.7s-.25-82.32-.25-82.32l75.76-43.74.25,87.03ZM538.69,263.26l-58.52,33.79-75.24-43.73,75.02-43.31,75.24,43.73-16.5,9.53ZM402.46,344.23l-.24-86.12,75.21,43.71.18,63.62.06,22.5-75.21-43.71Z"/><path class="cls-1" d="M500.1,359.45c.31.18.65.27,1,.27s.69-.09,1-.27l39.82-22.99c.62-.36,1-1.02,1-1.74l-.13-45.53c0-.71-.38-1.37-1-1.73-.62-.36-1.38-.36-2,0l-39.82,22.99c-.62.36-1,1.02-1,1.74l.13,45.53c0,.71.38,1.37,1,1.73ZM538.79,292.66l.12,40.91-35.83,20.68-.12-40.91,35.83-20.68Z"/><path class="cls-1" d="M461.45,312.19c0-.71-.38-1.37-1-1.72l-40.67-23.63c-.62-.36-1.38-.36-2,0-.62.36-1,1.02-1,1.74l.13,47.04c0,.71.38,1.37,1,1.72l40.67,23.63c.31.18.66.27,1,.27s.69-.09,1-.27c.62-.36,1-1.02,1-1.74l-.13-47.04ZM420.92,334.44l-.12-42.4,36.66,21.3.12,42.4-36.66-21.3Z"/><path class="cls-1" d="M438.34,250.77c-.62.36-1,1.02-1,1.73s.38,1.37,1,1.73l40.86,23.75c.31.18.66.27,1,.27s.69-.09,1-.27l41.33-23.86c.62-.36,1-1.02,1-1.73s-.38-1.37-1-1.73l-40.86-23.75c-.62-.36-1.38-.36-2,0l-41.33,23.86ZM517.54,252.38l-37.33,21.55-36.88-21.43,37.33-21.55,36.88,21.43Z"/></svg>