<?xml version="1.0" encoding="UTF-8"?><svg id="Layer_1" xmlns="http://www.w3.org/2000/svg" viewBox="0 0 600 600"><defs><style>.cls-1{fill:#fff;}</style></defs><path class="cls-1" d="M423.58,21.07s-.05-.04-.07-.05l-.91-.53-9.44-5.48s0,0,0,0l-.05-.03s-.01,0-.02-.01h0s0,0,0,0c-.02-.01-.05-.03-.07-.04-.01,0-.03-.01-.04-.02-.18-.1-.37-.19-.56-.28-.02,0-.03-.02-.05-.02,0,0,0,0,0,0,0,0,0,0,0,0,0,0,0,0-.01,0-.03-.01-.06-.02-.09-.03-.11-.05-.23-.08-.35-.12-.11-.04-.21-.08-.32-.11,0,0,0,0,0,0,0,0,0,0,0,0-.08-.02-.17-.04-.26-.06-.15-.04-.29-.07-.44-.1-.03,0-.06-.02-.09-.02,0,0,0,0,0,0,0,0,0,0,0,0-.13-.02-.28-.03-.41-.05-.31-.04-.63-.05-.96-.05-.13,0-.25,0-.38,0-.02,0-.05,0-.07,0-.21.01-.42.04-.63.06-.1.01-.2.01-.3.03,0,0,0,0,0,0-.05,0-.11.03-.16.04-.23.04-.46.09-.69.15-.09.02-.17.03-.25.05,0,0,0,0-.01,0-.14.04-.29.09-.44.13-.08.03-.16.05-.24.07-.26.09-.53.19-.79.3,0,0,0,0,0,0-.08.04-.17.08-.26.12-.1.04-.2.09-.3.14-.38.18-.76.37-1.13.59l-76.27,44.03c.1.09.18.19.27.28-.59-.29-1.29-.28-1.87.05l-12.02,6.94v-3.79c-.03-7.61-2.72-13.35-7.57-16.17,0,0-.01-.01-.02-.02l-12.95-7.52-.13-.08c-.07-.04-.15-.08-.17-.08-.32-.17-.65-.33-.93-.46-.05-.03-.2-.1-.25-.12-.06-.03-.13-.05-.14-.05h0c-.39-.16-.79-.3-1.13-.4-.06-.02-.11-.04-.17-.05-.39-.11-.8-.21-1.2-.28-.04-.01-.16-.04-.21-.04-.09-.02-.18-.03-.23-.03-.39-.06-.78-.11-1.12-.13-.08-.01-.15-.02-.27-.03-.03,0-.07,0-.1,0-.43-.02-.88-.03-1.39-.01-.06,0-.16,0-.21,0-.07,0-.15.01-.18.02-.61.03-1.17.09-1.7.17-.02,0-.04,0-.05,0-.36.06-.72.12-1.09.2l-.45.11c-.2.05-.4.09-.55.13-.06.01-.08.02-.13.04-.44.12-.89.26-1.34.41l-.26.1c-.36.13-.72.26-1.07.41-.03.01-.13.05-.17.06-.07.03-.14.06-.26.12-.38.16-.77.34-1.17.53l-.43.21c-.51.26-1.01.52-1.53.82-.57.33-1.19.72-1.94,1.22l-.26.18c-.59.4-1.17.83-1.75,1.27l-.33.26c-.58.46-1.16.93-1.73,1.43l-.14.13c-.55.48-1.08.99-1.64,1.52l-.13.12s-.1.1-.11.11c-.41.4-.81.81-1.25,1.29-.38.4-.75.82-1.13,1.25-.01.01-.07.08-.09.09l-.13.16c-.62.72-1.19,1.41-1.69,2.06-.02.03-.07.08-.09.11l-.12.16c-.45.58-.88,1.17-1.33,1.8l-.17.24c-.4.58-.8,1.17-1.21,1.81-.01.02-.08.11-.09.13l-.16.26c-.31.49-.61.98-.94,1.54l-.16.27c-.33.57-.66,1.15-.98,1.76,0,.02-.06.1-.07.12l-.15.29c-.25.47-.48.94-.71,1.41l-.23.47c-.28.6-.56,1.19-.85,1.85l-.08.19c-.23.55-.46,1.1-.7,1.72l-.16.42c-.25.65-.48,1.3-.71,1.98l-.04.12c-.22.67-.43,1.35-.64,2.08l-.09.34c-.22.79-.41,1.57-.58,2.37l-.11.5c-.06.31-.12.62-.18.93l-.11.65c-.05.32-.1.64-.14.96l-.08.57c-.09.68-.15,1.37-.2,2.05l-.03.43c-.04.7-.07,1.4-.07,2.08l.03,11.21c0,.3-.01.6-.04.9l-.03.29c-.02.2-.04.4-.07.6-.03.22-.07.45-.12.67l-.03.15c-.02.1-.04.21-.06.31-.02.11-.05.21-.08.32l-.03.11c-.05.2-.1.41-.16.61l-.11.36c-.07.23-.15.46-.23.69,0,0-.03.09-.03.1l-.07.19c-.12.32-.25.64-.39.97,0,0-.04.08-.04.09-.13.28-.26.57-.4.84l-.13.27c-.14.27-.28.53-.43.8,0,0-.07.13-.08.14-.18.3-.36.6-.55.9l-.17.25c-.14.21-.29.42-.43.63l-.24.33c-.13.17-.26.34-.4.5-.11.14-.22.28-.33.41-.09.1-.17.2-.26.3l-.07.08c-.19.21-.38.41-.61.65-.11.11-.21.22-.32.32l-.3.28c-.16.14-.31.28-.48.42l-.28.23c-.17.14-.35.27-.53.4l-.24.18c-.26.18-.52.34-.78.5l-18.34,10.59c-.15.09-.29.2-.42.32-.04.04-.07.09-.1.14-.07.09-.15.18-.21.28-.03.05-.04.1-.06.16-.03.07-.06.14-.09.21l-16.88,9.75v-21.96c0-.71-.38-1.38-1-1.73l-66.11-38.17c-.62-.36-1.38-.36-2,0l-66.11,38.17c-.62.36-1,1.02-1,1.73v76.34c0,.71.38,1.38,1,1.73l65.23,37.66.99,347.61c.01,3.92,1.44,6.9,4.04,8.41l10.35,6.02s0,0,.01,0c0,0,0,0,.02.01,1.12.65,2.38.97,3.71.97,1.78,0,3.71-.57,5.67-1.7l255.27-147.38c6.4-3.7,11.4-12.36,11.38-19.72l-1.1-387.74c-.01-3.88-1.42-6.84-3.96-8.36ZM409.33,423.47l-236.71,136.67-1.01-354.86,34.59-19.97c.62-.36,1-1.02,1-1.73v-16.22l22.63-13.07,8.15,4.74s0,0,0,0c0,0,0,0,0,0,.08.05.17.07.25.1.08.03.15.08.24.1.17.04.34.07.51.07.35,0,.69-.09,1-.27l100.9-58.26c.62-.36,1-1.02,1-1.74l-.03-9.43,66.4-38.34,1.06,372.2ZM147.54,219.37s0,0,0,0l.99,349.37v4.35s-6.33-3.69-6.33-3.69l-.98-346.58,6.33-3.65v.19ZM141.09,218.28v-71.53l62.11-35.86v71.53l-62.11,35.86ZM228.05,148.62l-.07-25.06,8.93,5.19.07,25.06-8.93-5.19ZM224.05,148.51l-16.85,9.73v-12.43l16.81-9.71.04,12.41ZM404.74,19.77l6.36,3.7-73.37,42.36-6.36-3.7,73.37-42.36ZM326.87,64.14l8.95,5.2-15.35,8.86s-.06.03-.1.05c-.21.12-.43.23-.64.33l-.08.04c-.13.06-.25.11-.38.16-.03.01-.07.02-.1.04-.18.07-.35.13-.54.18-.05.01-.1.03-.15.05,0,0-.01,0-.02,0-.05.01-.12.03-.14.03-.06.01-.12.03-.19.04-.04,0-.09.02-.13.03l-.45.06c-.11,0-.23.02-.33.03-.01,0-.04,0-.05,0-.31,0-.59-.04-.86-.12l-.18-.05h0c-.15-.05-.29-.11-.43-.19,0,0-.01,0-.02,0-1.14-.66-1.79-2.27-1.8-4.41v-2.82s13-7.51,13-7.51ZM309.84,63.26l.03,11.21c.01,3.61,1.33,6.37,3.7,7.8,0,0,0,0,0,0,0,0,0,0,0,0l.04.02s.03.02.05.03c0,0,0,0,.01,0,0,0,0,0,0,0,.01,0,.03.02.03.02.23.13.46.24.67.33.05.02.1.04.15.06.08.03.16.06.25.09.02,0,.02,0,.04.01.11.04.21.08.31.11.09.03.19.05.32.08.11.03.21.05.32.07.04.01.09.02.12.03.16.03.31.04.47.06.21.02.42.04.63.04.1,0,.2,0,.31,0,.07,0,.15,0,.22,0,.03,0,.05,0,.08,0,.17,0,.35-.03.52-.05.01,0,.02,0,.03,0,.1,0,.2-.02.32-.04.05,0,.11-.02.16-.03.2-.03.4-.08.6-.13,0,0,.01,0,.02,0,.09-.02.18-.04.28-.06.08-.02.15-.05.21-.07.27-.08.53-.17.8-.28.01,0,.03,0,.05-.02.1-.03.2-.07.29-.1.08-.03.15-.07.23-.1h.02c.09-.05.17-.09.26-.13l.04-.02c.24-.11.49-.25.74-.38.09-.05.19-.09.28-.15l9.07-5.24,6.28-3.63.07,25.08-96.91,55.95v-.39s-.07-24.69-.07-24.69l8.88-5.13,8.46-4.88c.45-.26.89-.56,1.33-.87l.04-.03s.1-.07.15-.11c.66-.48,1.29-1.02,1.9-1.6,0,0,0,0,.01-.01l.17-.16s.1-.11.17-.18c.29-.3.58-.6.86-.92.04-.04.08-.08.12-.13l.06-.08c.24-.28.48-.57.71-.87l.07-.08s.04-.06.07-.09c.21-.27.41-.55.61-.83l.02-.03s.03-.04.04-.06c1.14-1.63,2.1-3.42,2.81-5.25,0-.02.02-.05.03-.07h0c.25-.66.47-1.32.65-1.97l.03-.08c.03-.12.06-.23.09-.34v-.06c.07-.23.13-.46.18-.69.01-.05.02-.1.03-.12.02-.1.04-.2.06-.36.06-.3.11-.6.15-.9.01-.07.03-.15.04-.23.02-.13.03-.27.04-.4v-.14s.02-.05.02-.07c.05-.51.08-1.02.08-1.52l-.03-11.21c0-.61.02-1.22.06-1.83l.02-.39c.04-.61.1-1.21.18-1.82l.07-.51c.04-.29.08-.58.13-.86l.1-.58c.05-.28.1-.56.16-.84l.1-.47c.16-.72.33-1.43.53-2.15l.1-.36c.18-.62.36-1.24.57-1.86l.04-.14c.2-.6.42-1.2.65-1.81l.17-.45c.2-.51.41-1.02.62-1.52l.1-.24c.24-.56.5-1.12.76-1.67l.22-.44c.21-.44.43-.88.66-1.3l.21-.4c.29-.54.59-1.08.9-1.61l.18-.31c.27-.46.55-.92.84-1.37l.26-.4c.36-.55.72-1.1,1.09-1.63l.18-.25c.39-.56.8-1.1,1.21-1.64l.16-.21c.49-.64,1.03-1.29,1.59-1.94l.21-.25c.34-.38.68-.76.98-1.09.02-.01.08-.08.09-.1.36-.38.73-.76,1.1-1.13l.24-.23c.48-.47.97-.93,1.47-1.37l.13-.12c.51-.45,1.04-.88,1.62-1.33l.25-.19c.52-.4,1.04-.78,1.56-1.13l.29-.19c.3-.2.56-.37.82-.53.28-.17.56-.35.85-.51,0,0,0,0,0,0,.45-.26.89-.49,1.32-.71l.38-.19c.33-.16.67-.31.98-.45l.36-.15c.31-.13.61-.24.9-.34l.23-.09c.37-.13.74-.24,1.1-.34.21-.06.42-.11.62-.15l.31-.07c.3-.07.6-.12.9-.17.4-.06.83-.1,1.4-.14h.17c.38-.02.75-.02,1.17,0,.02,0,.12.01.14.01.29.02.57.06.93.11l.18.03c.14.03.28.06.42.08.03,0,.06.01.1.02.1.02.2.05.28.07.08.02.16.05.24.07.26.08.52.17.77.27,0,0,.02,0,.03.01l.22.09c.23.1.45.21.68.33l.19.1c3.59,2.08,5.58,6.6,5.6,12.75ZM245.32,111.22c.35-.2.7-.43,1.04-.66.08-.06.17-.12.25-.18l.08-.06c.23-.17.46-.33.69-.52.12-.1.24-.2.36-.29.2-.17.41-.35.6-.53.12-.11.24-.22.36-.34.14-.13.28-.27.45-.45.24-.24.47-.49.7-.75l.07-.08c.11-.12.22-.25.33-.38.14-.16.27-.33.4-.49.16-.2.32-.4.47-.6l.29-.39c.18-.24.35-.49.52-.75l.2-.3c.23-.35.44-.7.66-1.07l.09-.17c.18-.31.34-.62.51-.94l.16-.31c.16-.33.32-.67.48-1.03,0-.01.04-.09.05-.1.17-.38.32-.76.46-1.14l.13-.35c.1-.28.19-.56.28-.83l.13-.44c.07-.25.14-.5.2-.75l.03-.1c.04-.15.07-.29.11-.43.03-.15.06-.3.09-.45l.02-.13c.06-.29.11-.57.15-.85.04-.26.07-.52.09-.78l.04-.38c.03-.41.05-.81.05-1.21l-.03-11.21c0-.61.02-1.22.06-1.92l.02-.3c.04-.61.1-1.21.18-1.82l.07-.51c.04-.29.08-.57.13-.86l.1-.58c.05-.28.1-.56.16-.84l.06-.29s.04-.15.04-.18c.16-.71.33-1.43.53-2.15l.1-.36c.18-.62.36-1.24.57-1.87l.04-.14c.2-.6.42-1.2.65-1.81l.17-.45c.2-.51.41-1.02.62-1.53,0-.02.09-.21.09-.22.24-.56.5-1.12.76-1.66l.22-.44c.21-.44.44-.88.66-1.31l.15-.28s.06-.1.06-.12c.29-.54.59-1.08.9-1.61l.04-.07s.05-.09.06-.09l.09-.15c.27-.46.55-.92.84-1.38l.25-.4c.36-.55.72-1.1,1.1-1.64,0,0,.08-.11.08-.12.01-.02.08-.11.1-.13.39-.56.79-1.1,1.21-1.64l.08-.11s.06-.08.08-.1c.52-.66,1.05-1.31,1.59-1.94.02-.02.11-.13.13-.16.01-.01.08-.08.09-.1.34-.39.68-.76,1.07-1.18.36-.38.73-.76,1.08-1.11l.26-.25c.48-.47.97-.93,1.47-1.37l.13-.12c.51-.45,1.03-.88,1.63-1.34l.24-.19c.52-.4,1.04-.78,1.57-1.14l.28-.19c.62-.42,1.17-.76,1.67-1.04.45-.26.89-.49,1.33-.71l.38-.19c.33-.16.66-.31.99-.45l.19-.09s.12-.05.15-.06c.31-.13.61-.24.92-.35l.22-.08c.37-.13.74-.24,1.15-.36.16-.04.31-.08.46-.11l.4-.1c.3-.07.6-.12.9-.17.01,0,.03,0,.04,0,.39-.06.81-.1,1.3-.13h.1s.1-.01.13-.01c.38-.01.75-.01,1.14,0,0,0,.02,0,.03,0,.05,0,.11.01.14.01.29.02.58.06.85.1.05,0,.11.02.16.02.04,0,.08.02.11.02.32.06.63.13.85.19,0,0,.02,0,.03,0,.03.01.06.02.09.03.28.08.56.19.84.3.02,0,.06.02.1.04.05.02.1.05.13.06.23.1.46.21.7.34.05.02.09.05.15.07l4.58,2.66c-2.45.5-5.01,1.5-7.62,3-.05.03-.09.06-.14.08-.27.16-.54.32-.83.5-.27.17-.55.35-.82.53-.03.02-.06.04-.1.06l-.32.22s-.02.02-.03.02c-.53.37-1.06.75-1.58,1.15-.05.04-.1.07-.14.1l-.33.26c-.12.09-.24.19-.36.29-.05.04-.09.07-.14.11-.42.34-.83.68-1.25,1.05,0,0-.12.11-.12.11-.24.21-.46.43-.69.65-.08.07-.16.15-.24.22-.23.21-.46.42-.68.63l-.26.25c-.4.4-.81.81-1.25,1.29-.38.4-.75.81-1.11,1.23l-.23.27c-.61.71-1.19,1.41-1.73,2.1l-.17.23c-.44.58-.88,1.17-1.3,1.77l-.19.26c-.4.58-.8,1.17-1.18,1.77l-.27.43c-.31.49-.61.98-.9,1.47l-.2.33c-.33.57-.66,1.15-.97,1.74l-.22.43c-.25.47-.48.94-.71,1.41l-.23.47c-.28.6-.56,1.19-.82,1.79l-.1.25c-.23.55-.46,1.1-.71,1.73l-.15.4c-.25.65-.48,1.3-.7,1.95,0,0-.05.15-.05.15-.22.67-.43,1.35-.62,2.02l-.11.4c-.22.79-.41,1.57-.59,2.42l-.1.46c-.06.31-.12.62-.19.98l-.1.59c-.05.32-.1.64-.15.96l-.08.56c0,.06,0,.11-.02.17-.08.61-.13,1.23-.18,1.83,0,.02,0,.03,0,.05l-.03.43s0,.04,0,.07c-.04.68-.07,1.35-.06,2.01l.03,11.21c0,.3-.01.6-.04.91l-.09.81s0,.06-.01.09c-.03.22-.07.43-.11.65-.03.18-.07.36-.11.54-.02.09-.05.19-.08.31,0,.02-.01.05-.02.07l-.61,1.93c-.54,1.42-1.25,2.82-2.1,4.11l-1.09,1.5c-.06.08-.13.17-.19.25-.03.03-.05.07-.08.1-.17.2-.34.4-.52.59-.14.16-.28.31-.43.45-.15.16-.3.31-.46.46-.07.06-.14.13-.21.19-.17.16-.34.31-.51.45-.03.03-.06.05-.09.08l-.2.17c-.13.11-.27.2-.4.3-.05.04-.1.08-.15.12l-.23.17c-.26.18-.53.35-.8.51l-17.34,10.01-.54-.31-8.41-4.89,15.35-8.86ZM223.98,124.13l.02,7.36-16.8,9.7v-7.37l16.78-9.69ZM139.09,71.38l62.27,35.95-62.27,35.95-62.27-35.95,62.27-35.95ZM74.98,110.89l62.11,35.86v71.53l-62.11-35.86v-71.53ZM144.24,575.52c-.35-.2-.66-.48-.92-.83l5.28,3.07c0,.08.01.16.02.24,0,0,0,.01,0,.02,0,.02,0,.03,0,.05l-4.38-2.55ZM415.26,433.43l-255.27,147.38c-2.12,1.22-4.08,1.49-5.39.73-.1-.06-.19-.14-.29-.21-.06-.04-.12-.08-.18-.13-.09-.08-.17-.17-.25-.26-.05-.06-.11-.11-.16-.17-.07-.09-.13-.19-.2-.29-.05-.08-.11-.14-.15-.22-.06-.1-.1-.21-.15-.31-.05-.09-.1-.18-.14-.28-.04-.11-.08-.23-.12-.35-.04-.11-.08-.21-.11-.33-.03-.12-.06-.25-.08-.37-.03-.13-.06-.24-.08-.38-.02-.13-.03-.27-.05-.4-.02-.14-.04-.27-.05-.41-.02-.28-.04-.57-.04-.87l-1.01-359.7,12.22-7.05,1,351.52c0,.71.38,1.37,1,1.72l3.88,2.26s0,0,0,0c0,0,0,0,0,0,.08.05.17.07.25.1.08.03.15.08.24.1.17.04.34.07.51.07.35,0,.69-.09,1-.27l240.7-138.97c.62-.36,1-1.02,1-1.74l-1.07-376.81c0-.09-.02-.18-.04-.27-.01-.08-.01-.17-.03-.25-.02-.08-.06-.15-.09-.23-.03-.08-.06-.17-.11-.25-.03-.06-.08-.11-.12-.16-.06-.09-.12-.18-.19-.25-.04-.04-.09-.07-.13-.1-.09-.08-.18-.16-.28-.22l-3.88-2.26c-.62-.36-1.38-.36-2,0l-63.53,36.68-.03-11.17c0-.09-.02-.18-.04-.27-.01-.08-.01-.17-.03-.25-.02-.08-.06-.15-.09-.23-.03-.08-.06-.17-.11-.25-.01-.03-.04-.05-.05-.07l74.6-43.07c.24-.14.48-.26.72-.38.06-.03.13-.06.19-.09.04-.02.08-.03.12-.05.12-.05.23-.1.34-.15.2-.08.39-.14.59-.2.11-.03.22-.08.33-.1,0,0,0,0,0,0,.03,0,.05,0,.08-.02.21-.05.42-.09.62-.12,0,0,.01,0,.02,0,.01,0,.02,0,.03,0,.21-.03.41-.04.6-.04.02,0,.04,0,.05,0,0,0,.02,0,.02,0,.2,0,.39.01.57.04.04,0,.08.02.12.03.14.03.29.06.42.1.02,0,.05.02.07.02.05.02.09.04.14.06.12.05.23.09.34.16,1.3.75,2.04,2.56,2.05,4.97l1.1,387.74c.02,5.86-4.28,13.3-9.38,16.25Z"/><path class="cls-1" d="M296.87,62.82c-2.41-1.39-5.47-1.15-8.6.66-5.78,3.33-10.29,11.15-10.27,17.8.01,3.59,1.33,6.33,3.73,7.7,1.04.6,2.19.89,3.42.89,1.63,0,3.39-.52,5.18-1.55,5.78-3.34,10.29-11.15,10.27-17.79,0-3.59-1.34-6.33-3.73-7.71ZM288.33,84.86c-1.82,1.05-3.5,1.29-4.6.66-1.09-.63-1.72-2.18-1.73-4.25-.01-5.17,3.77-11.73,8.27-14.32,1.15-.67,2.25-1,3.17-1,.54,0,1.03.12,1.43.35,1.09.63,1.72,2.18,1.73,4.25.01,5.16-3.77,11.72-8.27,14.32Z"/><path class="cls-1" d="M195.42,226.66c.31.18.65.27,1,.27s.69-.09,1-.27l106.79-61.66c.62-.36,1-1.02,1-1.74l-.03-10.68c0-.71-.38-1.37-1-1.73-.62-.36-1.38-.36-2,0l-106.79,61.66c-.62.36-1,1.02-1,1.74l.03,10.68c0,.71.38,1.37,1,1.73ZM301.19,156.04l.02,6.07-102.8,59.35-.02-6.07,102.8-59.35Z"/><path class="cls-1" d="M195.75,340.34c.31.18.65.27,1,.27s.69-.09,1-.27l151.26-87.33c.62-.36,1-1.02,1-1.74l-.03-10.68c0-.71-.38-1.37-1-1.73-.62-.36-1.38-.36-2,0l-151.26,87.33c-.62.36-1,1.02-1,1.74l.03,10.68c0,.71.38,1.37,1,1.73ZM345.98,244.05l.02,6.07-147.27,85.02-.02-6.07,147.27-85.02Z"/><path class="cls-1" d="M368.11,400.35c-.62-.36-1.38-.36-2,0l-169.92,98.1c-.62.36-1,1.02-1,1.74l.03,10.68c0,.71.38,1.37,1,1.73.31.18.65.27,1,.27s.69-.09,1-.27l169.92-98.1c.62-.36,1-1.02,1-1.74l-.03-10.68c0-.71-.38-1.37-1-1.73ZM199.22,507.4l-.02-6.07,165.92-95.79.02,6.07-165.92,95.79Z"/><path class="cls-1" d="M378.07,365.84c-.62-.36-1.38-.36-2,0l-179.95,103.9c-.62.36-1,1.02-1,1.74l.03,10.68c0,.71.38,1.37,1,1.73.31.18.65.27,1,.27s.69-.09,1-.27l179.95-103.9c.62-.36,1-1.02,1-1.74l-.03-10.68c0-.71-.38-1.37-1-1.73ZM199.14,478.7l-.02-6.07,175.96-101.59.02,6.07-175.96,101.59Z"/><path class="cls-1" d="M196.07,455.18c.31.18.65.27,1,.27s.69-.09,1-.27l168.84-97.48c.62-.36,1-1.02,1-1.74l-.03-10.68c0-.71-.38-1.37-1-1.73-.62-.36-1.38-.36-2,0l-168.84,97.48c-.62.36-1,1.02-1,1.74l.03,10.68c0,.71.38,1.37,1,1.73ZM363.88,348.74l.02,6.07-164.84,95.17-.02-6.07,164.84-95.17Z"/><path class="cls-1" d="M195.99,426.46c.31.18.65.27,1,.27s.69-.09,1-.27l174.29-100.62c.62-.36,1-1.02,1-1.74l-.03-10.68c0-.71-.38-1.37-1-1.73-.62-.36-1.38-.36-2,0l-174.29,100.62c-.62.36-1,1.02-1,1.74l.03,10.68c0,.71.38,1.37,1,1.73ZM369.25,316.88l.02,6.07-170.3,98.32-.02-6.07,170.29-98.32Z"/><path class="cls-1" d="M195.91,397.76c.31.18.65.27,1,.27s.69-.09,1-.27l168.84-97.48c.62-.36,1-1.02,1-1.74l-.03-10.68c0-.71-.38-1.37-1-1.73-.62-.36-1.38-.36-2,0l-168.84,97.48c-.62.36-1,1.02-1,1.74l.03,10.68c0,.71.38,1.37,1,1.73ZM363.72,291.32l.02,6.07-164.84,95.17-.02-6.07,164.84-95.17Z"/><path class="cls-1" d="M377.74,251.01c-.62-.36-1.38-.36-2,0l-179.95,103.89c-.62.36-1,1.02-1,1.74l.03,10.68c0,.71.38,1.37,1,1.73.31.18.65.27,1,.27s.69-.09,1-.27l179.95-103.89c.62-.36,1-1.02,1-1.74l-.03-10.68c0-.71-.38-1.37-1-1.73ZM198.81,363.86l-.02-6.07,175.96-101.59.02,6.07-175.96,101.59Z"/><path class="cls-1" d="M377.58,193.59c-.62-.36-1.38-.36-2,0l-179.95,103.9c-.62.36-1,1.02-1,1.74l.03,10.68c0,.71.38,1.37,1,1.73.31.18.65.27,1,.27s.69-.09,1-.27l179.95-103.89c.62-.36,1-1.02,1-1.74l-.03-10.68c0-.71-.38-1.37-1-1.73ZM198.65,306.44l-.02-6.07,175.96-101.59.02,6.07-175.96,101.59Z"/><path class="cls-1" d="M195.58,282.92c.31.18.65.27,1,.27s.69-.09,1-.27l168.84-97.48c.62-.36,1-1.02,1-1.74l-.03-10.68c0-.71-.38-1.37-1-1.73-.62-.36-1.38-.36-2,0l-168.84,97.48c-.62.36-1,1.02-1,1.74l.03,10.68c0,.71.38,1.37,1,1.73ZM363.4,176.48l.02,6.07-164.84,95.17-.02-6.07,164.84-95.17Z"/><path class="cls-1" d="M194.47,241.8l.03,10.68c0,.71.38,1.37,1,1.73.31.18.65.27,1,.27s.69-.09,1-.27l179.95-103.9c.62-.36,1-1.02,1-1.74l-.03-10.68c0-.71-.38-1.37-1-1.73-.62-.36-1.38-.36-2,0l-179.95,103.89c-.62.36-1,1.02-1,1.74ZM374.43,141.36l.02,6.07-175.96,101.59-.02-6.07,175.96-101.59Z"/><path class="cls-1" d="M529,431.51s0-.03,0-.04c-.05-.66-.41-1.25-.98-1.58l-25.32-14.62,13.71-7.91c.62-.36,1-1.02,1-1.73v-36.29s-.01-.07-.01-.1c0-.04-.01-.09-.02-.13-.07-.62-.42-1.19-.97-1.5l-31.43-18.15c-.62-.36-1.38-.36-2,0l-31.43,18.15c-.55.32-.9.88-.97,1.5,0,.04-.01.09-.02.13,0,.03-.01.06-.01.1v36.29c0,.71.38,1.38,1,1.73l13.71,7.91-25.32,14.62c-.58.33-.93.93-.98,1.58,0,.01,0,.03,0,.04,0,.04-.01.07-.01.11v49.7c0,.71.38,1.38,1,1.73l43.04,24.85s.05.02.08.03c.11.06.22.1.33.14.04.01.08.03.12.04.15.04.31.06.47.06s.32-.02.47-.06c.04-.01.08-.03.12-.04.12-.04.23-.08.33-.14.02-.01.05-.02.08-.03l43.04-24.85c.62-.36,1-1.02,1-1.73v-49.7s-.01-.07-.01-.11ZM485.97,420.3v-31.58l27.43-15.84v31.58l-27.43,15.84ZM483.97,353.49l27.5,15.88-27.5,15.88-27.51-15.88,27.51-15.88ZM454.54,372.88l27.43,15.84v31.58l-27.43-15.84v-31.58ZM482.97,425.5s.05.02.08.03c.11.06.22.1.33.14.04.01.08.03.12.04.15.04.31.06.47.06s.32-.02.47-.06c.04-.01.08-.03.12-.04.12-.04.23-.08.33-.14.02-.01.05-.02.08-.03l13.72-7.92,24.43,14.1-39.15,22.6-39.15-22.6,24.43-14.1,13.72,7.92ZM442.93,435.2l39.04,22.54v44.96l-39.04-22.54v-44.96ZM485.97,502.71v-44.96l39.04-22.54v44.96l-39.04,22.54Z"/></svg>