<?xml version="1.0" encoding="UTF-8"?><svg id="Layer_1" xmlns="http://www.w3.org/2000/svg" viewBox="0 0 600 600"><defs><style>.cls-1{fill:#051414;}</style></defs><path class="cls-1" d="M374.2,395.53c0-.15-.02-.31-.06-.46h0s0,0,0-.01l-21.48-81.53h0s.02-.03.03-.04c.11-.15.22-.3.33-.45h0c.68-.9,1.35-1.8,2-2.72l.02-.03c.09-.12.19-.25.28-.37.09-.13.17-.26.26-.39l.17-.26c.11-.17.22-.33.34-.5.34-.5.67-.99,1-1.49l.18-.27c.11-.16.22-.32.32-.48.07-.1.13-.21.19-.31l.12-.19c.15-.24.29-.47.43-.71.2-.32.4-.65.6-.98.03-.05.06-.1.09-.15l.24-.38c.12-.2.24-.39.36-.59l.22-.4c.16-.28.32-.57.48-.85.1-.18.2-.35.3-.53.08-.14.16-.29.24-.43l.24-.42c.12-.22.25-.44.37-.67l.16-.31c.17-.32.33-.65.5-.97,0-.01.01-.02.02-.03.12-.23.24-.46.35-.69l.3-.59c.12-.24.25-.49.37-.74l.11-.24c.32-.67.62-1.34.94-2.06l.2-.43c.1-.22.21-.45.31-.68l.06-.15c.45-1.04.88-2.09,1.31-3.21l.07-.17s.01-.03.02-.05c.43-1.11.85-2.29,1.27-3.54l.06-.17c.05-.16.1-.32.15-.48l.09-.29c.29-.91.58-1.83.83-2.73l.06-.18c.04-.12.07-.23.1-.34.15-.55.29-1.11.43-1.66l.12-.47c.2-.82.39-1.63.56-2.44l.07-.38c.05-.26.1-.51.15-.77l.07-.35c.12-.64.24-1.28.34-1.91,0,0,0,0,0,0,.03-.19.06-.38.09-.57.02-.13.04-.25.06-.38.01-.08.02-.16.04-.23l.06-.36c.03-.21.07-.41.09-.62.04-.33.08-.66.11-.98l.08-.68c.09-.92.17-1.83.22-2.71,0-.04,0-.09,0-.13,0-.17.02-.34.03-.51.05-1.03.07-1.9.07-2.71,0-.78-.02-1.55-.06-2.3-.02-.41-.06-.81-.09-1.22-.02-.34-.04-.68-.07-1.01-.04-.48-.11-.94-.17-1.41-.03-.25-.05-.5-.09-.74-.08-.53-.17-1.04-.27-1.55-.03-.17-.05-.35-.09-.51-.1-.52-.23-1.03-.35-1.54-.04-.15-.06-.3-.1-.45-.13-.51-.28-1-.43-1.49-.04-.14-.08-.28-.12-.41-.15-.47-.32-.93-.49-1.39-.05-.14-.1-.29-.15-.43-.17-.44-.36-.86-.54-1.28-.07-.15-.12-.3-.19-.45-.19-.4-.39-.78-.59-1.17-.08-.15-.15-.31-.24-.47-.2-.36-.41-.7-.62-1.04-.1-.16-.19-.34-.3-.5-.2-.31-.42-.61-.64-.91-.12-.17-.24-.36-.37-.53-.2-.27-.42-.52-.64-.78-.15-.19-.3-.38-.46-.56-.2-.23-.42-.44-.63-.66-.19-.19-.36-.39-.55-.58-.2-.19-.41-.37-.62-.55-.22-.19-.43-.39-.65-.58-.2-.16-.41-.31-.61-.46-.25-.19-.49-.38-.74-.56-.2-.14-.41-.26-.62-.39-.26-.17-.51-.34-.78-.5l-2.8-1.63c-.04.08-.08.15-.13.23-7.52-2.92-16.79-1.53-26.49,4.06-21.8,12.58-39.47,43.2-39.4,68.25.03,10.4,2.99,18.63,8.57,23.79.57.53,1.17,1.01,1.78,1.46,0,.06.02.11.02.17l.27.15,1.55.9s0,0,0,0l.15.09.05.03s.01,0,.02.01c.24.14.5.27.75.39.05.03.1.05.15.08.07.04.14.07.21.11.33.16.67.32,1.01.46,0,0,0,0,0,0,.02,0,.04.01.06.02.1.04.2.08.29.11.07.03.15.06.22.08.03.01.06.02.09.03.2.07.39.15.59.22.23.08.47.15.7.23.09.03.19.06.28.09,0,0,0,0,0,0,.08.02.17.04.25.06.25.07.5.14.75.2.17.04.34.08.52.11.09.02.19.04.28.06.08.02.15.03.23.05.09.02.18.04.26.05.03,0,.05.01.08.02,0,0,0,0,0,0,.14.02.29.04.44.06.27.04.55.09.82.12.07,0,.13.01.2.02.07,0,.14.01.21.02.3.03.59.06.89.08h0c.23.01.46.01.68.02.1,0,.21.02.31.02l-21.48,102.84c-.16.77.15,1.57.79,2.03.29.21.62.31.96.35,0,0,0,0,0,0,.07,0,.15.03.22.03.35,0,.69-.09,1-.27l78.75-45.46c.14-.08.26-.18.37-.29.02-.02.05-.04.07-.07.1-.11.2-.23.27-.36.01-.02.02-.04.03-.06.07-.12.12-.25.16-.39,0-.02.02-.04.02-.07.04-.15.06-.3.06-.45,0-.02,0-.03,0-.05,0-.02,0-.04,0-.05ZM331.68,243.69c9.67-5.58,18.67-6.54,25.34-2.7.22.13.43.27.64.41.2.13.4.24.59.38.21.14.4.3.6.46.18.14.36.27.53.41.2.16.38.34.57.51.16.15.33.29.49.45.18.18.35.37.52.55.16.17.32.33.47.51.16.19.31.39.47.58.15.19.31.37.45.57.14.19.27.39.4.59.15.22.3.43.44.65.11.18.22.38.33.57.15.25.3.5.44.76.09.18.18.36.27.54.14.29.29.57.43.88.08.17.14.35.22.53.14.32.27.64.4.97.06.16.11.33.17.5.13.36.25.71.37,1.08.05.16.09.32.13.48.11.39.23.78.33,1.18.04.16.07.33.11.5.09.41.19.82.27,1.25.03.16.05.32.08.48.08.44.16.88.22,1.34.03.21.05.43.07.64.05.41.1.83.14,1.25.02.22.03.45.05.68.03.42.07.85.09,1.28.02.49.03,1,.04,1.51,0,.17.01.34.01.52,0,.85-.03,1.71-.07,2.57,0,.17-.01.34-.03.52,0,.15-.03.31-.04.46-.05.72-.1,1.43-.17,2.16l-.03.29c-.08.76-.19,1.53-.3,2.3-.04.27-.08.55-.12.82-.13.82-.28,1.64-.45,2.47-.02.12-.05.24-.07.35-.38,1.86-.85,3.73-1.4,5.61-.15.53-.32,1.06-.49,1.59-1.45,4.64-3.36,9.3-5.69,13.83-.1.2-.2.39-.3.59-.37.72-.77,1.42-1.16,2.13-.18.33-.36.66-.55.98-.35.61-.72,1.22-1.09,1.82-.26.43-.52.87-.79,1.3-.33.52-.66,1.03-1,1.54-.36.54-.72,1.09-1.09,1.62-.3.43-.6.86-.91,1.29-.5.7-1.01,1.39-1.52,2.07-.04.05-.08.11-.12.16l-49.71-28.89c6.66-15.72,18.25-30.28,31.43-37.89ZM317.42,336.15c.04-.18.04-.36.03-.54,0-.05-.01-.1-.02-.16-.02-.14-.06-.28-.11-.41-.02-.05-.04-.1-.06-.15-.08-.17-.17-.33-.3-.47,0,0,0,0,0,0,0,0-.01,0-.02-.01-.12-.14-.27-.25-.43-.35-.02-.01-.03-.03-.06-.05l-19.55-11.36c-1.72-3.9-2.63-8.68-2.64-14.19-.02-7.42,1.6-15.36,4.47-23.13l50.01,29.06,20.29,77.04-56.34-32.74,4.71-22.54ZM368.22,395.58l-71.88,41.5,15.51-74.26,56.37,32.76Z"/><path class="cls-1" d="M520.79,60.66c0-.09-.02-.18-.04-.27-.01-.08-.01-.16-.03-.24-.02-.09-.07-.17-.11-.26-.03-.07-.05-.15-.09-.22-.04-.07-.1-.13-.14-.19-.06-.07-.1-.16-.17-.22-.04-.04-.1-.07-.14-.11-.09-.07-.17-.15-.27-.21l-63.69-37.01c-.62-.36-1.38-.36-2,0l-23.38,13.5c-1.75,1.01-3.5,1.99-5.24,2.95l-1.45.79c-1.4.76-2.79,1.51-4.18,2.24l-1.13.6c-1.71.89-3.41,1.75-5.1,2.59l-1.18.57c-1.36.67-2.72,1.31-4.07,1.95l-1.4.65c-1.69.78-3.37,1.54-5.13,2.3l-.12.05c-1.66.72-3.31,1.41-4.96,2.08l-.96.39c-1.62.65-3.24,1.29-4.85,1.89l-.72.27c-1.59.59-3.18,1.17-4.76,1.71l-.36.13c-1.62.56-3.24,1.09-4.85,1.6l-.9.29c-1.56.49-3.12.96-4.68,1.4l-.85.24c-1.15.32-2.3.62-3.44.92l-.33.08c-.6.16-1.2.31-1.8.46-1.02.25-2.04.49-3.05.72l-.61.14c-.46.11-.93.22-1.4.32-1.1.24-2.19.45-3.28.67l-.7.14c-.34.07-.68.14-1.02.2-1.47.27-2.92.52-4.38.75l-.57.1c-1.44.22-2.97.43-4.66.64-.31.04-.62.07-.93.11l-.48.05c-1.09.12-2.18.24-3.27.34-.52.05-1.05.09-1.57.13-1.1.09-2.19.16-3.27.22l-.52.03c-.27.02-.55.03-.82.05-1.56.08-2.99.12-4.39.14h-.82c-1.21.02-2.42.01-3.62,0-.44,0-.87-.02-1.31-.03-1.16-.03-2.31-.08-3.46-.14l-.93-.05c-1.37-.08-2.79-.2-4.22-.33l-1.01-.1c-1.12-.11-2.23-.24-3.33-.39l-1.13-.15c-1.51-.21-2.86-.42-4.13-.64l-.43-.08c-1.24-.22-2.47-.46-3.69-.72l-1.13-.24c-1.17-.26-2.33-.53-3.48-.82l-.61-.15c-1.23-.32-2.52-.68-3.95-1.1-.24-.07-.48-.15-.73-.22l-.33-.1c-1.03-.31-2.05-.64-3.06-.98l-1.04-.35c-1.4-.49-2.66-.95-3.86-1.41l-.57-.23c-1.09-.43-2.18-.88-3.26-1.34-.4-.17-.8-.35-1.2-.52-.97-.43-1.93-.87-2.89-1.32l-.4-.19c-.19-.09-.38-.18-.58-.27-1.28-.62-2.54-1.26-3.73-1.89l-.74-.4c-1.02-.55-2.03-1.11-3.03-1.69l-1.89-1.1c-.46-.27-1.01-.34-1.53-.2-.52.14-.95.48-1.22.94-1.31,2.31-2.64,4.61-3.97,6.9l-.8,1.35c-1,1.71-2.01,3.41-3.03,5.11-.41.68-.82,1.36-1.23,2.03-.94,1.56-1.89,3.1-2.84,4.64l-1.11,1.79c-1.29,2.08-2.6,4.15-3.91,6.2l-.55.85c-1.14,1.78-2.3,3.56-3.46,5.32l-1.28,1.94c-.96,1.45-1.92,2.88-2.89,4.32l-1.3,1.92c-1.16,1.7-2.32,3.38-3.49,5.05l-.64.93c-1.4,2-2.81,3.98-4.23,5.95l-1.19,1.64c-1.03,1.42-2.07,2.84-3.11,4.24l-1.54,2.06c-.96,1.28-1.92,2.55-2.89,3.82l-1.56,2.04c-.92,1.19-1.84,2.37-2.77,3.55l-.5.63c-.46.59-.93,1.19-1.39,1.77-.95,1.2-1.91,2.38-2.9,3.6l-.64.79c-.37.46-.74.92-1.12,1.38-1.14,1.39-2.28,2.76-3.43,4.13l-1.27,1.53c-1.57,1.86-3.16,3.71-4.75,5.54-1.74,2-3.57,4.07-5.44,6.14-.32.36-.65.71-.97,1.07l-.67.73c-1.29,1.42-2.58,2.83-3.89,4.23-.53.57-1.07,1.14-1.61,1.71l-.48.51c-1.17,1.24-2.34,2.47-3.52,3.68-.74.77-1.49,1.53-2.24,2.29-1.16,1.18-2.32,2.35-3.48,3.51-.85.85-1.71,1.7-2.57,2.54-.62.61-1.24,1.21-1.86,1.81-1.06,1.03-2.13,2.05-3.2,3.06l-.51.48c-.43.4-.85.81-1.28,1.21-1.22,1.14-2.45,2.27-3.67,3.39l-1.32,1.21c-1.67,1.51-3.34,3-5.02,4.48l-1.13.97c-1.32,1.14-2.63,2.28-3.96,3.4-.45.38-.9.75-1.35,1.13l-.45.38c-1.12.94-2.24,1.87-3.37,2.79-.65.53-1.3,1.06-1.96,1.59-1.11.89-2.22,1.78-3.33,2.66l-.24.19c-.56.44-1.12.88-1.68,1.32-1.22.95-2.45,1.89-3.68,2.82l-.63.48c-.31.24-.62.48-.94.71-1.75,1.31-3.5,2.61-5.26,3.88l-.78.55c-1.51,1.09-3.03,2.16-4.55,3.22-.41.28-.81.56-1.22.84l-.59.4c-1.19.82-2.39,1.63-3.58,2.43-.64.43-1.29.85-1.94,1.28l-.09.06c-1.16.76-2.32,1.51-3.48,2.25l-.1.07c-.64.41-1.28.82-1.92,1.22-1.24.78-2.49,1.55-3.73,2.31l-.67.42c-.36.22-.72.44-1.08.66-1.83,1.1-3.66,2.19-5.5,3.25l-23.38,13.5c-.15.09-.29.2-.42.32-.06.06-.1.13-.15.2-.05.07-.12.13-.16.21-.04.06-.05.13-.08.2-.04.09-.09.18-.12.28-.02.07-.02.14-.03.22-.02.1-.04.2-.04.3,0,0,0,0,0,0s0,0,0,0l.23,85.08c.14,48.25,8.01,90.32,23.4,125.04,14.93,33.7,36.08,58.67,62.85,74.23l63.69,37.01s.1.04.15.06c19.72,11.44,41.89,17.26,65.74,17.26,12.35,0,25.16-1.56,38.3-4.69.33-.08.64-.24.89-.47,110.42-101.26,187.24-277.04,186.81-427.46l-.24-85.07ZM299.05,66.33l.62.15c1.19.3,2.39.58,3.6.85l1.16.25c1.26.27,2.54.52,3.81.75l.45.08c1.32.23,2.71.45,4.26.66l1.16.15c1.14.15,2.29.28,3.44.4l1.04.11c1.47.14,2.93.25,4.35.34l.96.05c1.18.06,2.37.11,3.56.14.45.01.9.02,1.35.03,1.24.02,2.48.03,3.72.01h.84c1.44-.03,2.92-.07,4.52-.15.29-.01.58-.03.88-.05l.5-.03c1.12-.06,2.24-.14,3.36-.23.54-.04,1.08-.09,1.62-.14,1.12-.1,2.23-.22,3.36-.34l.47-.05c.33-.04.66-.07.99-.11,1.74-.21,3.3-.43,4.78-.65l.58-.1c1.49-.23,2.98-.49,4.49-.76.36-.07.72-.14,1.08-.21l.67-.13c1.12-.22,2.24-.44,3.36-.68.48-.1.97-.22,1.46-.33l.6-.14c1.04-.24,2.08-.48,3.12-.74.62-.15,1.23-.31,1.85-.47l.33-.08c1.17-.3,2.34-.61,3.52-.94l.87-.24c1.58-.45,3.17-.93,4.77-1.42l.92-.29c1.64-.52,3.29-1.06,4.95-1.63l.36-.13c1.61-.56,3.22-1.14,4.85-1.75l.74-.27c1.64-.62,3.28-1.26,4.93-1.93l.98-.4c1.67-.68,3.35-1.38,5.12-2.15l.12-.05c1.7-.74,3.41-1.51,5.13-2.31l1.43-.66c1.37-.64,2.75-1.3,4.13-1.98l1.19-.58c1.72-.85,3.44-1.72,5.17-2.62l1.14-.6c1.41-.74,2.82-1.5,4.24-2.27l1.47-.8c1.76-.97,3.53-1.96,5.3-2.99l22.38-12.92,59.71,34.7-20.39,11.77c-1.75,1.01-3.5,1.99-5.24,2.95l-1.39.76c-1.47.8-2.95,1.59-4.41,2.36l-.82.43c-1.8.94-3.6,1.85-5.39,2.73l-.52.25c-1.65.81-3.29,1.59-4.93,2.36l-.71.33c-13.01,6.02-25.71,10.59-38.05,13.72-.3.08-.59.15-.89.23-1.54.38-3.07.74-4.6,1.07-.19.04-.37.09-.56.13-.26.06-.52.1-.78.16-1.45.31-2.9.6-4.34.87-.49.09-.98.16-1.47.25-2.86.5-5.71.93-8.53,1.26-.15.02-.31.04-.46.05l-.44.05c-.57.06-1.14.12-1.71.18-.77.08-1.54.16-2.3.22-.28.02-.56.05-.84.07-.72.06-1.44.1-2.15.15-2.5.16-4.98.27-7.44.3h-.23c-.66,0-1.32,0-1.98,0-.88,0-1.76,0-2.64-.03-.1,0-.21,0-.31,0-.54-.02-1.08-.04-1.61-.07-2.69-.11-5.36-.28-8-.55-.39-.04-.77-.09-1.16-.13-2.79-.31-5.56-.71-8.29-1.21-.33-.06-.65-.13-.98-.19-1.22-.23-2.44-.48-3.64-.75-.33-.07-.66-.16-.99-.23-1.23-.29-2.46-.58-3.68-.91-.11-.03-.23-.06-.34-.09-1.34-.36-2.67-.75-4-1.15-.39-.12-.78-.25-1.17-.38-1.13-.36-2.26-.73-3.38-1.12-.14-.05-.28-.1-.41-.15-1.3-.46-2.59-.95-3.88-1.47-.21-.08-.41-.17-.62-.25-1.17-.47-2.33-.97-3.48-1.48-.6-.26-1.19-.54-1.78-.81-.89-.41-1.77-.82-2.65-1.25-.24-.12-.48-.24-.72-.36-1.12-.56-2.23-1.14-3.33-1.74h-.02c-.33-.19-.65-.37-.98-.55-1.23-.68-2.45-1.37-3.66-2.1,0,0,0,0-.01,0,0,0,0,0-.01,0l-35.3-20.52c.64.18,1.26.34,1.86.5ZM105.35,227.89c1.86-1.08,3.72-2.18,5.57-3.29.37-.22.74-.45,1.11-.68l.66-.41c1.26-.77,2.52-1.55,3.78-2.34.65-.41,1.29-.82,1.94-1.24l.1-.07c1.18-.75,2.35-1.51,3.52-2.28l.09-.06c.66-.43,1.31-.86,1.96-1.3,1.21-.81,2.42-1.63,3.62-2.46l.58-.4c.42-.28.84-.57,1.25-.86,1.54-1.07,3.07-2.16,4.6-3.25l.79-.56c1.78-1.29,3.55-2.6,5.32-3.92.32-.24.65-.49.97-.74l.62-.47c1.24-.94,2.48-1.89,3.72-2.85.57-.44,1.13-.89,1.7-1.34l.24-.19c1.12-.89,2.25-1.78,3.36-2.68.66-.53,1.32-1.07,1.98-1.61,1.14-.93,2.27-1.87,3.4-2.81l.45-.38c.46-.38.91-.76,1.36-1.14,1.34-1.13,2.67-2.28,4-3.44l1.14-.99c1.7-1.49,3.39-3,5.07-4.52l1.33-1.22c1.24-1.13,2.48-2.27,3.71-3.43.43-.41.86-.81,1.29-1.22l.51-.48c1.08-1.02,2.16-2.05,3.23-3.09.63-.61,1.25-1.22,1.88-1.83.87-.85,1.73-1.71,2.59-2.57,1.18-1.17,2.35-2.35,3.51-3.54.75-.77,1.51-1.54,2.26-2.31,1.19-1.23,2.37-2.47,3.55-3.71l.48-.5c.55-.58,1.09-1.15,1.63-1.73,1.31-1.41,2.62-2.83,3.92-4.26l.66-.72c.33-.36.67-.73,1-1.09,1.88-2.09,3.73-4.18,5.49-6.2,1.6-1.84,3.2-3.71,4.79-5.59l1.28-1.54c1.16-1.38,2.31-2.76,3.46-4.17.38-.46.76-.93,1.13-1.4l.66-.82c.96-1.19,1.93-2.39,2.89-3.59.47-.6.94-1.2,1.41-1.79l.5-.63c.93-1.19,1.87-2.38,2.79-3.58l1.57-2.05c.97-1.28,1.95-2.56,2.91-3.85l1.55-2.07c1.05-1.42,2.09-2.84,3.14-4.28l1.2-1.65c1.43-1.98,2.85-3.98,4.26-5.99l.65-.93c1.18-1.69,2.35-3.38,3.51-5.09l1.31-1.93c.97-1.44,1.94-2.89,2.91-4.35l1.29-1.95c1.17-1.77,2.33-3.56,3.48-5.36l.55-.86c1.32-2.07,2.63-4.15,3.94-6.24l1.11-1.8c.96-1.55,1.91-3.11,2.86-4.67.41-.68.83-1.36,1.23-2.05,1.02-1.7,2.04-3.42,3.05-5.14l.8-1.36c1-1.72,2-3.44,2.99-5.17l60.23,35c-1.02,1.78-2.03,3.55-3.06,5.3l-.58.98c-1.18,2-2.36,4-3.55,5.97l-.6.99c-38.64,63.85-85.37,114.69-136.58,148.64-.05.03-.09.06-.14.09-1.7,1.12-3.4,2.23-5.11,3.31-.31.2-.63.4-.95.6-1.54.98-3.09,1.93-4.64,2.88-.34.21-.67.41-1.01.61-1.83,1.1-3.66,2.19-5.5,3.25l-22.38,12.92-59.71-34.7,20.39-11.77ZM167.46,520.56c-53.28-30.96-83.99-102.34-84.26-195.83l-.22-81.59,2.65,1.54,57.04,33.15c.02,8.21.15,54.67.23,83.93,0,.33.01.66.01.99.01,2.48.04,4.95.1,7.41.03,1.32.08,2.62.12,3.93.04,1.42.08,2.84.14,4.25.07,1.64.16,3.26.24,4.89.05,1.01.11,2.03.17,3.04.11,1.86.24,3.7.38,5.53.05.71.11,1.42.16,2.13.17,2.04.35,4.07.54,6.09.04.43.08.85.13,1.27.23,2.23.47,4.45.73,6.65.01.1.02.19.04.29,1.46,12.06,3.48,23.62,6.08,34.66.03.13.06.27.09.4.39,1.63.79,3.24,1.2,4.84.22.85.43,1.7.65,2.54.32,1.19.64,2.37.98,3.55.37,1.32.74,2.63,1.13,3.93.24.79.47,1.58.72,2.37.55,1.8,1.12,3.59,1.71,5.36.11.33.21.65.32.98,4.75,14.16,10.56,27.19,17.37,38.98.15.25.29.51.44.76.56.95,1.12,1.9,1.69,2.84.57.93,1.14,1.85,1.72,2.77.26.41.51.83.77,1.24.99,1.54,2,3.05,3.03,4.54.08.11.16.23.24.34,5.89,8.52,12.35,16.2,19.37,23l-35.72-20.76ZM331.9,569.89c-38.13,8.97-73.27,4.31-102.6-13.43-.32-.19-.64-.39-.96-.58-.81-.5-1.61-1.01-2.42-1.53-.37-.24-.73-.48-1.09-.72-.57-.38-1.14-.76-1.71-1.15-.4-.27-.79-.55-1.18-.82-.54-.38-1.07-.77-1.6-1.15-.39-.29-.79-.57-1.17-.86-.75-.56-1.5-1.14-2.25-1.72-.37-.29-.73-.58-1.09-.87-.89-.71-1.77-1.44-2.65-2.17-.64-.54-1.28-1.09-1.91-1.64-.58-.51-1.16-1.02-1.73-1.54-35.37-32.06-57.09-85.87-61.71-153.45-.02-.37-.05-.73-.08-1.1-.08-1.18-.15-2.37-.22-3.56-.1-1.72-.18-3.45-.26-5.19-.03-.71-.06-1.42-.08-2.13-.08-2.09-.15-4.19-.19-6.31,0-.32-.01-.63-.02-.95-.05-2.41-.08-4.82-.09-7.26l-.23-82.49c0-.56,0-1.04,0-1.43l22.38-12.92c2.2-1.27,4.39-2.58,6.58-3.91.04-.03.09-.05.13-.08l.64-.4c1.26-.77,2.52-1.55,3.78-2.34.02-.01.04-.03.06-.04.34-.21.67-.43,1.01-.64.3-.19.59-.38.89-.56l.09-.06c1.17-.75,2.35-1.51,3.52-2.28.17-.11.34-.22.51-.34.08-.06.17-.11.25-.17.43-.28.86-.57,1.29-.86,1.21-.81,2.42-1.63,3.62-2.46l.58-.4c.42-.28.84-.57,1.25-.86,1.54-1.07,3.08-2.16,4.61-3.26l.77-.55c1.78-1.29,3.56-2.6,5.33-3.92.32-.24.65-.49.97-.74l.6-.46c1.25-.95,2.49-1.9,3.73-2.86.49-.38.97-.76,1.46-1.14l.47-.37c1.13-.89,2.25-1.79,3.38-2.69.66-.53,1.31-1.06,1.97-1.6,1.14-.93,2.27-1.87,3.4-2.82l.31-.26c.5-.42,1-.84,1.5-1.26,1.34-1.14,2.68-2.29,4.01-3.45l1.13-.97c1.7-1.49,3.39-3,5.07-4.52l1.33-1.22c1.24-1.13,2.48-2.27,3.71-3.43.42-.39.83-.78,1.25-1.18l.56-.53c1.08-1.02,2.16-2.05,3.23-3.09.63-.61,1.25-1.22,1.88-1.83l1.3-1.27c.24-.23.47-.47.71-.71l.58-.59c1.18-1.17,2.35-2.35,3.51-3.54.75-.77,1.5-1.54,2.26-2.31,1.19-1.23,2.37-2.47,3.55-3.72l.57-.6c.51-.54,1.03-1.08,1.54-1.63,1.32-1.41,2.62-2.84,3.93-4.27l.69-.75c.32-.35.64-.69.96-1.05,1.95-2.16,3.74-4.19,5.48-6.18.01-.01.08-.1.1-.11,1.58-1.81,3.14-3.64,4.7-5.49l1.28-1.54c1.15-1.38,2.31-2.76,3.46-4.16.38-.46.76-.93,1.13-1.4l.66-.82c.96-1.19,1.93-2.39,2.89-3.59.47-.6.94-1.2,1.41-1.79l1.23-1.56c.39-.5.78-.99,1.17-1.49l.88-1.16c.52-.68,1.05-1.37,1.57-2.05.97-1.28,1.95-2.56,2.91-3.85l.21-.29c.45-.6.89-1.19,1.34-1.79,1.05-1.42,2.09-2.84,3.13-4.27l1.2-1.65c1.38-1.92,2.75-3.84,4.12-5.79,0,0,.06-.09.06-.09l.72-1.04c1.18-1.69,2.35-3.39,3.52-5.1l1.31-1.94c.97-1.44,1.95-2.89,2.91-4.35l1.29-1.94c1.17-1.78,2.34-3.58,3.5-5.38l.65-1.01c1-1.57,2-3.16,2.99-4.74.02-.03.04-.06.05-.09.26-.42.52-.83.78-1.25l1.1-1.79c.56-.91,1.12-1.84,1.69-2.76.36-.58.72-1.16,1.07-1.75.04-.06.08-.12.11-.19l1.23-2.04c.5-.83,1-1.68,1.5-2.52.52-.87,1.04-1.74,1.55-2.61,0,0,0,0,0-.01l1.04-1.76c.56-.96,1.12-1.94,1.68-2.91.36-.63.73-1.24,1.09-1.87.03.02.06.03.09.05.34.2.68.39,1.02.58.64.36,1.29.71,1.94,1.06l1.01.55c.15.08.3.15.45.23,1.1.58,2.24,1.15,3.42,1.73.08.04.15.07.23.11.56.27,1.13.52,1.69.78.69.32,1.38.64,2.07.95.08.04.16.07.24.11.34.15.69.3,1.03.45l.36.16c.18.08.36.16.55.24.81.34,1.62.66,2.44.98l.59.23c1.24.48,2.55.96,3.99,1.46.08.03.15.05.23.08.2.07.41.14.62.21l.24.08c1.05.35,2.1.69,3.16,1.02l.34.11s.02,0,.04.01c.18.06.37.11.55.17.05.02.11.03.16.05l.63.19c1.15.33,2.3.65,3.46.95l.62.15c1.19.3,2.39.59,3.6.85l.2.04c.19.04.39.08.58.13l.38.08c1.26.27,2.54.52,3.81.75l.57.11c1.23.21,2.59.42,4.14.64.02,0,.03,0,.05,0,.14.02.27.03.41.05.17.02.35.05.52.07l.18.02c.97.13,1.95.24,2.94.34.38.04.76.09,1.14.12l.41.04c1.33.13,2.66.24,4.01.32l1.3.06c.64.03,1.29.05,1.94.08.8.03,1.6.07,2.4.08.19,0,.38,0,.58.01.78.01,1.56.02,2.35.02.22,0,.44,0,.66,0,.37,0,.73,0,1.1,0h.46c1.33-.02,2.66-.06,4-.12h.1c.12-.01.25-.02.37-.03h.05c.29-.02.58-.04.88-.05l.5-.03c.38-.02.77-.05,1.15-.08.71-.05,1.41-.08,2.12-.13.31-.02.62-.06.93-.09.26-.02.52-.04.78-.07.54-.05,1.08-.11,1.63-.17.87-.09,1.74-.17,2.62-.28.19-.02.37-.04.56-.06,1.47-.18,2.81-.36,4.08-.55h.05c.22-.04.43-.07.64-.1l.58-.1c.9-.14,1.82-.31,2.73-.46.53-.09,1.06-.17,1.59-.27.06-.01.11-.02.17-.03.36-.07.72-.14,1.08-.21l.67-.13c.85-.17,1.7-.34,2.55-.52.36-.08.72-.15,1.08-.23.4-.09.79-.18,1.19-.27l.59-.13c1.04-.24,2.08-.48,3.12-.74.01,0,.02,0,.04,0,.28-.07.56-.14.85-.22.32-.08.65-.16.97-.25l1.1-.28c.37-.09.73-.18,1.11-.29l2.5-.7c1.58-.45,3.17-.93,4.77-1.42l.92-.29c1.64-.52,3.29-1.06,4.94-1.63l.37-.13c1.61-.56,3.22-1.14,4.84-1.74l.74-.27c1.64-.62,3.28-1.26,4.93-1.92l2.2-.89c1.27-.53,2.54-1.07,3.9-1.66l.12-.05c1.7-.74,3.41-1.51,5.13-2.3l.24-.11c.26-.12.52-.24.78-.36l.41-.19c1.37-.64,2.75-1.3,4.13-1.97l.33-.16c.24-.12.48-.23.71-.35l.15-.07c1.72-.85,3.44-1.72,5.17-2.62h.02c.32-.18.63-.35.95-.51l.17-.09c1.2-.63,2.4-1.28,3.6-1.93,2.46-1.33,4.93-2.7,7.41-4.13l20.39-11.77.23,81.62c.42,149.21-75.69,323.54-185.13,424.15Z"/><path class="cls-1" d="M497.85,100.54c0-.71-.38-1.36-.98-1.71-.61-.36-1.36-.37-1.98-.04l-7.78,4.24c-27.71,15.1-54.53,24.58-79.72,28.18-25.06,3.59-48.6,1.37-69.96-6.61l-5.13-1.91c-.88-.33-1.86,0-2.38.78l-5.09,7.81c-21.49,32.94-45.19,62.61-70.42,88.17-25.25,25.57-52.13,47.12-79.91,64.06l-7.79,4.75c-.6.36-.96,1.01-.96,1.71l.17,58.49c.2,69.45,17.56,125.01,50.21,160.7,7.53,8.22,15.82,15.2,24.73,20.91.05.07.11.14.16.22l4.12,2.39c.05.03.1.06.16.09.36.21.72.41,1.08.62.03.02.07.04.1.06l.16.09c.98.55,1.96,1.08,2.96,1.6l.04.02s.03.01.04.02c.88.46,1.77.91,2.66,1.35.02,0,.04.02.06.03l.11.05c11.86,5.8,24.64,9.55,38.07,11.16.04,0,.07,0,.1.01l.15.02c.13.02.26.03.39.04.89.1,1.79.2,2.69.28,0,0,.01,0,.02,0h.13c2.26.22,4.53.36,6.82.45l.56.02c.09,0,.18,0,.26,0,.57.02,1.14.03,1.72.04.34,0,.68.01,1.04.02h.21c.29,0,.59,0,.88,0,.1,0,.2,0,.29,0,.47,0,.95-.01,1.42-.02.22,0,.43,0,.65,0h.16c2.48-.05,4.98-.15,7.5-.33h.2c.14-.02.27-.04.41-.05.91-.07,1.82-.15,2.73-.23.1,0,.19-.02.29-.02l.8-.08s.05,0,.07,0c.79-.08,1.59-.17,2.39-.27.1-.01.19-.02.29-.03l.42-.05c2.44-.31,4.89-.67,7.35-1.1l2.64-.47c.2-.04.39-.1.57-.2.09-.04.16-.11.23-.17.08-.06.17-.1.24-.17l.02-.02h0s2.62-2.56,2.62-2.56c43.92-43.01,83.84-102.3,112.39-166.93,32.12-72.68,48.99-147.69,48.79-216.92l-.17-58.49ZM328.18,133.47l4.22-6.47,3.63,1.35c22,8.21,46.19,10.5,71.93,6.82,17.39-2.48,35.53-7.72,54.17-15.6l13.55,7.87c-.4.2-.8.4-1.19.6-.29.14-.58.29-.87.43-.62.3-1.24.59-1.86.89-1.15.56-2.31,1.11-3.46,1.65-.73.34-1.46.67-2.19,1-1.05.48-2.1.96-3.15,1.42-.79.35-1.58.69-2.37,1.04-.96.42-1.93.83-2.88,1.23-1,.42-2.01.84-3.01,1.25l-.98.4c-1.38.55-2.75,1.09-4.12,1.62l-.43.17c-1.59.61-3.18,1.19-4.76,1.76l-.14.05c-1.44.52-2.88,1.01-4.31,1.5l-.96.32c-1.24.41-2.47.81-3.71,1.2l-.88.28c-3,.93-5.98,1.8-8.94,2.59-.23.06-.45.12-.68.18-1.81.48-3.62.92-5.41,1.35-1.4.33-2.79.65-4.18.95-.64.14-1.27.26-1.9.39-1.12.23-2.25.45-3.36.66-.26.05-.52.09-.79.14-.38.07-.76.14-1.14.21-1.1.2-2.2.38-3.29.55-.98.16-1.96.32-2.93.46-1.51.22-3.02.41-4.52.59-.27.03-.54.06-.81.09l-.64.07c-.17.02-.35.04-.52.05-.84.09-1.68.18-2.51.26-.35.03-.7.06-1.05.09h-.13c-1.08.1-2.16.19-3.24.26-.45.03-.9.05-1.35.08h-.05c-1.02.06-2.04.12-3.05.16-.46.02-.92.03-1.38.04-1,.03-2.01.06-3,.07-.52,0-1.03,0-1.56,0-.96,0-1.92,0-2.88-.01-.51,0-1.03-.02-1.54-.04-.94-.02-1.87-.05-2.8-.09-.51-.02-1.01-.05-1.52-.08-.95-.05-1.91-.11-2.85-.17-.44-.03-.87-.07-1.31-.1-.96-.08-1.92-.16-2.88-.26-.46-.05-.92-.09-1.38-.14-.94-.1-1.87-.22-2.8-.33-.46-.06-.91-.12-1.37-.18-.98-.14-1.96-.28-2.93-.44-.41-.06-.81-.13-1.22-.19-1.05-.18-2.09-.37-3.13-.57h-.03c-.29-.06-.58-.11-.87-.17-1.09-.22-2.17-.45-3.25-.69l-.14-.03c-.22-.04-.43-.09-.65-.14-1.35-.31-2.69-.64-4.03-.98h0c-1.3-.34-2.6-.7-3.89-1.08-.19-.06-.37-.11-.56-.17-1.16-.35-2.32-.7-3.47-1.08l-9.35-5.43c1.7-2.52,3.39-5.06,5.06-7.62ZM477.88,130.83l.11,37.47c.18,64.94-15.61,135.22-45.67,203.26-25.71,58.2-61.4,111.82-100.53,151.07-38.64,5.85-73.96-6.29-99.52-34.21-30.12-32.91-46.14-84.5-46.33-149.21l-.11-39.61c.77-.49,1.53-1,2.29-1.51.57-.37,1.14-.74,1.71-1.12.15-.1.3-.2.45-.3.86-.57,1.71-1.15,2.56-1.73.63-.43,1.27-.85,1.9-1.28l.42-.29c.8-.55,1.6-1.11,2.4-1.67.69-.48,1.37-.95,2.06-1.43.13-.1.27-.19.4-.29.87-.62,1.75-1.25,2.62-1.87.61-.44,1.23-.88,1.84-1.32.16-.12.32-.23.48-.35.69-.51,1.38-1.02,2.08-1.53.76-.56,1.53-1.13,2.29-1.69.17-.13.34-.26.51-.39.86-.64,1.71-1.29,2.56-1.94.58-.44,1.16-.88,1.75-1.33.14-.11.28-.22.42-.33.81-.62,1.62-1.26,2.42-1.89.65-.51,1.31-1.02,1.96-1.54.15-.12.31-.24.46-.37.79-.62,1.57-1.25,2.35-1.88.65-.53,1.31-1.05,1.96-1.59.16-.13.32-.26.48-.39.7-.57,1.39-1.14,2.09-1.71.73-.6,1.46-1.21,2.19-1.82.16-.13.31-.26.47-.4.55-.47,1.11-.93,1.66-1.4,0,0,.02-.01.02-.02.86-.73,1.72-1.46,2.57-2.2l.19-.17c.11-.09.21-.18.32-.28.57-.49,1.14-.98,1.71-1.48.83-.73,1.66-1.46,2.49-2.19l.21-.19c.09-.08.18-.16.28-.25.9-.8,1.8-1.6,2.69-2.4.44-.4.89-.8,1.33-1.2l.75-.68s.09-.08.13-.12c.76-.69,1.52-1.39,2.28-2.09.47-.44.95-.88,1.42-1.32l.88-.82s.05-.05.08-.07c.9-.84,1.81-1.69,2.71-2.55.35-.33.7-.67,1.06-1l.67-.63c2.04-1.95,4.07-3.92,6.09-5.91l.07-.07c.64-.63,1.27-1.27,1.91-1.91.83-.83,1.66-1.65,2.48-2.48,3.66-3.71,7.3-7.52,10.9-11.39.02-.02.04-.04.05-.06.25-.27.5-.54.75-.81,3.89-4.2,7.74-8.48,11.55-12.85.05-.05.09-.1.14-.16l1.34-1.55c.1-.12.21-.24.31-.36,1.03-1.2,2.06-2.4,3.09-3.61.09-.1.18-.21.27-.31.44-.51.87-1.03,1.31-1.55l.48-.58s.06-.07.09-.11c.94-1.12,1.88-2.25,2.82-3.39.1-.12.2-.24.31-.37.43-.52.85-1.04,1.28-1.56,1.19-1.45,2.38-2.92,3.56-4.39.08-.09.15-.19.23-.28l.61-.76c1.91-2.39,3.81-4.79,5.7-7.23l.24-.31c.72-.93,1.43-1.86,2.14-2.79.66-.87,1.33-1.73,1.99-2.6l.31-.41s0,0,0,0h0c.59-.79,1.18-1.58,1.77-2.37.74-.98,1.47-1.96,2.2-2.95.14-.19.28-.38.42-.56l1.23-1.68c.12-.16.23-.32.35-.48.8-1.1,1.61-2.2,2.41-3.31.12-.17.24-.33.36-.5.37-.52.74-1.03,1.11-1.55l.59-.83c.76-1.06,1.52-2.13,2.27-3.2.11-.15.22-.31.33-.46l.34-.48c.55-.78,1.1-1.57,1.64-2.36.5-.72,1-1.43,1.49-2.15l.46-.66c.51-.74,1.02-1.5,1.52-2.24.52-.76,1.04-1.51,1.55-2.27.04.01.09.03.13.04.91.29,1.86.57,2.9.88l.15.05c.16.05.33.09.49.14.51.15,1.02.28,1.53.42.37.1.74.21,1.11.3l.63.17c.22.06.43.1.65.16.67.17,1.34.33,2.01.49.46.11.93.23,1.39.34.25.06.49.11.74.16.66.15,1.33.29,1.99.43.45.1.91.2,1.36.29.26.05.52.1.79.15.45.09.9.17,1.35.26h.03c.45.09.9.18,1.35.26l.6.1c.26.04.52.08.79.13.73.12,1.46.23,2.19.34.41.06.82.13,1.23.18.24.03.49.06.73.1.75.1,1.51.19,2.27.28.41.05.83.1,1.24.15.25.03.5.05.75.08.77.08,1.55.16,2.33.23.4.04.8.08,1.2.11.27.02.55.04.82.06.45.03.9.07,1.35.1l.72.06c.27.02.55.03.83.04l.54.03c.25.01.49.02.74.04.91.05,1.82.08,2.73.11.32,0,.64.02.95.03.22,0,.44,0,.66.02.76.02,1.53.03,2.3.04.32,0,.65,0,.97,0h.71c.17,0,.34,0,.52,0,.92,0,1.85-.02,2.78-.04.35,0,.7-.01,1.05-.02h.51c.12-.02.25-.02.37-.03.44-.01.88-.02,1.32-.04h.44c.44-.03.88-.06,1.33-.09l1.14-.07c.06,0,.11,0,.17,0,.91-.05,1.82-.12,2.74-.19.38-.03.75-.06,1.13-.09l.77-.06c.11,0,.22-.02.32-.03,1.02-.09,2.04-.19,3.06-.3.28-.03.56-.06.85-.09l.59-.06c.14-.01.28-.03.41-.04.24-.03.47-.05.71-.08,1.45-.17,2.91-.36,4.38-.57.6-.09,1.2-.17,1.8-.27.21-.03.43-.07.65-.11l.49-.08c1.11-.18,2.22-.36,3.33-.56.03,0,.05,0,.08-.01.2-.04.4-.07.61-.11,3.84-.69,7.71-1.5,11.61-2.43.03,0,.06-.01.09-.02l.3-.07c1.18-.29,2.42-.6,3.73-.94.18-.05.36-.09.54-.14.36-.09.72-.19,1.09-.29l.41-.1c.75-.2,1.5-.42,2.25-.63.29-.08.58-.16.87-.24.25-.07.5-.14.75-.21l.46-.14c.61-.18,1.22-.37,1.83-.55.61-.18,1.23-.36,1.84-.55.1-.03.2-.06.31-.09l1.42-.45c.4-.13.8-.26,1.2-.39.62-.2,1.24-.4,1.86-.6.03,0,.05-.02.08-.02l1.49-.5c.47-.16.94-.33,1.41-.49.62-.22,1.25-.43,1.88-.65.06-.02.13-.04.19-.07l1.03-.36c.55-.2,1.1-.41,1.65-.61.66-.24,1.32-.48,1.98-.73.29-.11.57-.21.86-.32l1.09-.42c.29-.11.58-.23.88-.34.69-.27,1.39-.54,2.08-.82.17-.07.33-.13.5-.2l2.9-1.18c.13-.05.25-.11.38-.16,2.02-.84,4.04-1.71,6.07-2.61.06-.02.11-.05.17-.07.2-.09.4-.18.6-.27,1.4-.62,2.8-1.25,4.2-1.9.21-.1.42-.19.63-.29.31-.15.63-.3.94-.45,1.11-.52,2.22-1.05,3.33-1.59l.13-.06c.35-.17.69-.33,1.04-.5.32-.16.65-.33.97-.48.53-.26,1.05-.51,1.57-.77ZM326.24,543.1l-.34.05c-.49.07-.98.14-1.47.21-.74.1-1.49.21-2.23.3-.53.06-1.06.12-1.58.18-.78.09-1.56.17-2.34.24-.5.05-.99.09-1.49.13-.8.07-1.6.13-2.4.18-.46.03-.92.05-1.39.08-.85.05-1.69.09-2.54.12-.4.01-.79.03-1.18.04-.88.02-1.75.04-2.63.04-.36,0-.72,0-1.08,0-.96,0-1.93-.02-2.88-.04-.26,0-.53,0-.79-.02-1.17-.04-2.34-.09-3.51-.16l-.27-.02c-2.49-.15-4.96-.38-7.4-.68-.04,0-.08-.01-.12-.02-1.16-.14-2.32-.31-3.47-.48-.16-.02-.32-.05-.47-.08-1.07-.17-2.13-.35-3.19-.55-.14-.03-.28-.05-.41-.08-1.11-.21-2.22-.44-3.32-.68-.07-.02-.15-.03-.22-.05-4.82-1.07-9.53-2.44-14.13-4.1-.03,0-.05-.02-.08-.03-1.09-.4-2.17-.81-3.25-1.24-.11-.04-.22-.09-.32-.13-1.01-.41-2.02-.83-3.01-1.26-.12-.05-.25-.11-.37-.16-1.01-.44-2.01-.9-3.01-1.38-.09-.04-.19-.09-.28-.13-11.83-5.67-22.73-13.45-32.44-23.24.15.02.3.05.45.07l.98.15c.95.14,1.9.26,2.93.39l.15.02c1.03.12,2.06.23,3.1.32l.95.08c.73.06,1.46.12,2.19.17l1.1.07c.74.04,1.48.08,2.23.11l1.03.04c.98.03,1.97.06,2.95.07h.27c1.08.01,2.16,0,3.25,0l.97-.02c.77-.02,1.55-.04,2.33-.07l1.1-.05c.89-.04,1.77-.09,2.66-.15l.8-.05c.4-.03.81-.07,1.22-.1,14.16,8.89,29.98,14.35,46.87,16.18l26.87,15.61c-.26.04-.52.09-.77.12ZM176.58,286.94c28.05-17.1,55.19-38.86,80.67-64.66,22.6-22.89,43.96-49.04,63.62-77.86l7.93,4.61c-.9,1.33-1.8,2.66-2.7,3.98l-.89,1.29c-1,1.44-1.99,2.88-3,4.3h0c-.73,1.05-1.47,2.09-2.21,3.12-.7.99-1.4,1.98-2.11,2.95-.76,1.05-1.52,2.09-2.28,3.13-.69.95-1.38,1.91-2.08,2.85-.11.15-.23.3-.34.45-2.21,2.99-4.44,5.94-6.69,8.87-.52.68-1.04,1.36-1.56,2.03-.56.72-1.12,1.43-1.68,2.15-1.05,1.34-2.1,2.68-3.15,4.01-.67.85-1.35,1.69-2.03,2.53-.93,1.15-1.85,2.3-2.78,3.44-.73.9-1.46,1.79-2.2,2.67-.91,1.1-1.82,2.2-2.73,3.29-.73.87-1.45,1.73-2.18,2.59-1.09,1.29-2.19,2.56-3.29,3.84-.54.62-1.07,1.25-1.61,1.87-1.7,1.96-3.42,3.9-5.14,5.82-.49.55-.98,1.09-1.48,1.63-1.3,1.44-2.6,2.87-3.9,4.29-.22.24-.44.47-.66.71-.38.41-.75.81-1.13,1.22-1.26,1.35-2.52,2.7-3.79,4.03-.11.11-.22.23-.32.34l-1.35,1.42c-1.79,1.87-3.59,3.73-5.41,5.57-.46.47-.93.93-1.39,1.39-1.01,1.02-2.03,2.04-3.05,3.04l-1.4,1.37c-.76.74-1.52,1.49-2.28,2.22-.3.29-.59.58-.89.87-.4.39-.8.77-1.2,1.15l-.36.35c-1,.96-2.01,1.92-3.02,2.87-.43.41-.86.81-1.3,1.21-1.09,1.01-2.18,2.03-3.27,3.03-.48.44-.96.88-1.45,1.32l-.18.16c-1.02.93-2.04,1.85-3.07,2.77-.56.5-1.13,1-1.7,1.5-1.01.89-2.01,1.78-3.02,2.65-.54.47-1.09.94-1.63,1.41-1.03.89-2.07,1.78-3.11,2.65-.56.47-1.12.94-1.68,1.42-1,.84-2.01,1.68-3.02,2.51-.55.45-1.1.9-1.65,1.35-1.01.82-2.02,1.64-3.03,2.45-.59.47-1.18.94-1.77,1.41-1,.79-2,1.57-3,2.35-.62.48-1.23.96-1.85,1.44-1,.77-1.99,1.53-2.99,2.28l-.21.16c-.51.39-1.02.78-1.54,1.16-1.06.79-2.12,1.58-3.18,2.36l-.27.2c-.45.33-.9.66-1.35.99-1,.73-2.01,1.45-3.02,2.17l-.47.34c-.48.34-.95.68-1.43,1.02-1.04.73-2.07,1.45-3.11,2.17l-1.72,1.2c-1.16.79-2.33,1.58-3.49,2.36l-1.38.93c-.07.05-.14.09-.21.14-1.21.8-2.43,1.59-3.65,2.38l-11.42-6.64,4.23-2.58ZM169.75,292.64l12.07,7.02.11,39.56c.19,65.72,16.57,118.25,47.37,151.9,5.72,6.24,11.9,11.72,18.49,16.41l-.47.02c-.75.03-1.51.05-2.26.07l-.95.02c-1.05.02-2.1.02-3.14.01h-.26c-.96-.02-1.91-.04-2.86-.07l-1-.04c-.72-.03-1.45-.07-2.16-.11l-1.07-.07c-.71-.05-1.42-.1-2.12-.16l-.92-.08c-1-.09-2-.2-3.08-.32l-.14-.02c-.92-.11-1.84-.23-2.76-.36l-.95-.14c-.68-.1-1.35-.21-2.03-.32-.35-.06-.7-.12-1.06-.18-.66-.12-1.31-.24-1.96-.37l-.58-.12c-31.29-34.98-47.93-89.15-48.12-156.83l-.16-55.82ZM445.56,374.33c-28.36,64.18-67.97,123.02-111.53,165.68l-1.55,1.51-23.29-13.54c1.27.04,2.54.07,3.82.07,6.56,0,13.25-.53,20.04-1.59.42-.07.81-.26,1.11-.56,39.65-39.63,75.81-93.88,101.82-152.75,30.29-68.54,46.2-139.39,46.01-204.88l-.12-40.71c0-.11-.02-.21-.04-.31,0-.06,0-.12-.02-.18-.03-.13-.09-.26-.15-.38-.02-.03-.02-.07-.04-.1-.08-.15-.19-.29-.31-.41-.03-.04-.08-.06-.12-.09-.09-.08-.18-.16-.28-.22,0,0-.01,0-.02,0,0,0-.01,0-.02-.01l-14.2-8.25c7.38-3.28,14.83-6.95,22.34-11.05l4.84-2.64.16,55.13c.19,68.68-16.56,143.12-48.45,215.29Z"/></svg>