<?xml version="1.0" encoding="UTF-8"?><svg id="Layer_1" xmlns="http://www.w3.org/2000/svg" viewBox="0 0 600 600"><defs><style>.cls-1{fill:#051414;}</style></defs><path class="cls-1" d="M334.26,352.96s.03-.06.05-.09c.81-1.34,1.62-2.68,2.41-4.03.08-.14.16-.27.24-.4,0,0,.05-.08.05-.09l.1-.17s.03-.05.04-.07c.87-1.5,1.73-3,2.57-4.51,0,0,0,0,0-.01l.58-1.04s.05-.1.08-.15c.75-1.36,1.5-2.73,2.23-4.1.07-.13.14-.25.21-.38,0-.01.06-.1.06-.12l.21-.41c.71-1.33,1.4-2.67,2.08-4.01.04-.07.07-.14.11-.21l.51-1c.07-.14.14-.28.21-.42.64-1.26,1.26-2.53,1.88-3.8.06-.13.13-.26.19-.39l.42-.88c.13-.28.26-.56.39-.84.42-.88.84-1.77,1.25-2.66.11-.24.22-.47.33-.71l.37-.81c.1-.22.2-.45.3-.67.46-1.02.92-2.05,1.37-3.07.14-.32.28-.63.42-.95l.45-1.05c.16-.36.31-.73.46-1.1.3-.7.59-1.4.89-2.1.23-.56.47-1.1.7-1.66,0,0,.04-.09.04-.1.22-.53.42-1.06.63-1.58.37-.93.75-1.86,1.11-2.8.07-.19.15-.38.23-.57l.4-1.04c.14-.37.27-.74.41-1.1.26-.68.51-1.36.76-2.03.24-.64.48-1.28.71-1.92l.31-.87c.59-1.67,1.17-3.34,1.76-5.09l.05-.14s.04-.11.04-.12c.59-1.78,1.19-3.64,1.82-5.68l.25-.82c.09-.29.16-.57.25-.86.41-1.37.81-2.74,1.2-4.11.05-.17.1-.35.15-.52l.36-1.31c.17-.61.33-1.22.49-1.83.15-.57.3-1.14.45-1.72.16-.61.31-1.21.46-1.82l.42-1.72c.09-.39.18-.77.27-1.15.02-.07.03-.15.05-.22.04-.15.07-.3.11-.45.13-.57.27-1.14.4-1.71.07-.32.14-.64.21-.96.03-.14.06-.28.09-.43.03-.15.07-.3.1-.44l.34-1.6c.04-.18.07-.36.11-.54.13-.6.25-1.21.37-1.81.04-.23.09-.45.14-.68l.19-.98c.02-.1.03-.19.05-.29.27-1.4.52-2.8.76-4.19l.06-.39c.01-.08.02-.15.04-.23.19-1.16.38-2.31.55-3.46l.11-.74s0-.04,0-.06c.23-1.6.46-3.2.65-4.79.02-.19.02-.39-.01-.57,0-.05-.03-.1-.05-.15-.03-.13-.07-.26-.13-.39-.03-.06-.07-.11-.11-.17-.06-.1-.12-.2-.2-.29-.05-.06-.12-.1-.18-.16-.07-.06-.13-.13-.21-.18-.02-.01-.04-.01-.05-.03-.02-.01-.03-.03-.05-.04l-.33-.19s-.02.03-.02.04c-.54-.19-1.15-.14-1.65.15l-110.21,63.63c-.4.23-.7.59-.87,1.01l-54.68,141.73c-.25.66-.14,1.4.29,1.96.38.49.96.76,1.57.76.09,0,.17,0,.26-.02.01,0,.02,0,.03,0,.61-.08,1.23-.17,1.83-.26l.37-.06c3.47-.54,6.98-1.29,10.52-2.24.04-.01.08-.02.12-.03h.03c10.38-2.81,21.05-7.35,31.86-13.59,1.17-.68,2.34-1.38,3.51-2.09l.23-.14c.43-.26.86-.53,1.29-.8.18-.11.35-.21.53-.33.01,0,.03-.02.04-.03.25-.16.51-.32.76-.49l.56-.36c.48-.31.97-.62,1.45-.93l1.37-.91c.46-.31.93-.62,1.39-.93.31-.21.62-.43.94-.64l.27-.19c.51-.36,1.03-.71,1.54-1.07.41-.29.81-.58,1.21-.87.5-.36,1.01-.73,1.51-1.1.41-.3.81-.6,1.21-.9.5-.37,1-.74,1.5-1.12l1.21-.93c.49-.38.98-.76,1.47-1.15.4-.32.8-.63,1.2-.95.49-.39.98-.79,1.47-1.18.39-.32.79-.64,1.18-.97.49-.41.99-.82,1.48-1.23l.15-.12c.34-.28.67-.56,1.01-.85.45-.38.9-.77,1.35-1.16l.3-.26c.32-.28.64-.55.96-.83.51-.45,1.01-.9,1.54-1.36l1.04-.93c.5-.45,1-.91,1.5-1.37l1.07-.98c.65-.61,1.3-1.22,1.95-1.84l.59-.56c.83-.79,1.65-1.59,2.5-2.44,1.04-1.03,2.07-2.06,3.09-3.11l.88-.91c.77-.79,1.53-1.59,2.29-2.39l.89-.94c1.01-1.08,2.01-2.16,3.04-3.3.99-1.09,1.96-2.2,2.93-3.31l.64-.74c1.53-1.76,3.03-3.54,4.48-5.3l.56-.68c1.45-1.78,2.91-3.6,4.33-5.43l.56-.73c.08-.1.16-.21.24-.32,1-1.29,1.99-2.61,2.97-3.92.14-.19.29-.38.43-.57l.59-.81c.07-.09.14-.19.21-.29,1.06-1.44,2.11-2.9,3.15-4.37.07-.1.14-.2.21-.3l.53-.77c.11-.16.23-.33.34-.49.35-.5.7-1,1.04-1.51.5-.72.99-1.45,1.49-2.19.12-.17.23-.34.35-.51.03-.04.06-.08.09-.13.06-.09.12-.19.19-.28,1.01-1.51,2.01-3.04,3-4.58,0,0,0,0,0-.01l.54-.84s.03-.05.05-.08c.11-.18.23-.36.35-.54.83-1.31,1.65-2.63,2.46-3.95l.53-.88ZM334.74,344.28c-.74,1.3-1.5,2.59-2.26,3.88-.41.7-.83,1.39-1.24,2.09-.82,1.36-1.67,2.72-2.51,4.07-.4.63-.79,1.28-1.19,1.9-.11.17-.22.34-.33.51l-.23.35c-.51.79-1.02,1.59-1.54,2.38-.56.86-1.13,1.71-1.7,2.56-1,1.5-2.02,2.98-3.05,4.45-.26.37-.52.75-.78,1.12-1.06,1.51-2.14,3-3.23,4.49-.36.49-.72.98-1.08,1.47-1.02,1.37-2.05,2.73-3.09,4.08-.65.84-1.31,1.68-1.97,2.52-.11.14-.22.28-.33.42-17.02,21.44-36.32,39.27-56.23,51.8h0c-.19.12-.38.23-.57.35-.6.37-1.19.74-1.79,1.1l-.37.23c-.63.38-1.27.76-1.91,1.13-.28.16-.55.33-.83.49-.02,0-.03.02-.05.03-1.25.72-2.49,1.41-3.74,2.08l-.91.49c-1.22.65-2.45,1.29-3.68,1.9-.09.05-.19.09-.28.14l-.09.04c-1.17.58-2.33,1.12-3.5,1.66l-.88.4c-1.23.55-2.46,1.09-3.69,1.6l-.66.26c-.85.35-1.7.68-2.55,1.01-.34.13-.69.26-1.04.39-.76.28-1.52.56-2.28.82l-.97.34c-1.04.35-2.09.7-3.12,1.02h0s-.02,0-.03,0c-1.05.32-2.09.62-3.12.9l-.34.1c-.18.05-.36.09-.53.14l-.52.13c-.41.1-.81.21-1.22.31-.44.11-.87.21-1.31.31-.45.1-.89.21-1.33.3-.38.08-.75.16-1.13.23l-.35.07c-.35.07-.7.14-1.05.21-.09.02-.18.03-.27.05-.33.06-.65.12-.97.17l-.28.05,6.02-15.59c.73-.31,1.45-.62,2.18-.95l.91-.42c1.19-.55,2.39-1.11,3.59-1.71l.31-.15c1.28-.63,2.56-1.3,3.84-1.98l.94-.5c1.29-.7,2.58-1.41,3.88-2.16.94-.54,1.87-1.09,2.81-1.66l1.16-.71c.55-.33,1.09-.67,1.64-1.01l1.22-.78c.52-.33,1.04-.66,1.56-1l1.18-.78c.53-.35,1.05-.7,1.58-1.06.34-.23.68-.47,1.03-.71l.18-.12c.51-.36,1.03-.71,1.54-1.07.41-.29.81-.58,1.21-.86.51-.36,1.01-.73,1.52-1.1.41-.3.81-.6,1.21-.9.5-.37,1-.74,1.49-1.12.41-.31.81-.62,1.21-.93.5-.38.99-.77,1.48-1.15.4-.31.8-.63,1.21-.95.49-.39.98-.79,1.47-1.18l1.19-.97c.49-.41.99-.82,1.47-1.23l.13-.11c.34-.29.68-.57,1.03-.86.5-.43,1-.86,1.5-1.29l1.11-.96c.51-.45,1.03-.91,1.53-1.36l1.05-.94c.43-.39.86-.78,1.28-1.17l1.28-1.18c.65-.61,1.3-1.22,1.94-1.83l.6-.56c.84-.8,1.67-1.62,2.5-2.44,1.04-1.02,2.07-2.06,3.09-3.11l.88-.91c.76-.79,1.53-1.59,2.29-2.39l.89-.94c1.01-1.08,2.01-2.16,3.05-3.31.98-1.09,1.95-2.19,2.92-3.3l.63-.73c1.53-1.76,3.04-3.55,4.48-5.3l.56-.68c1.45-1.78,2.91-3.6,4.33-5.43l.56-.72c1.23-1.59,2.44-3.2,3.64-4.82l.59-.8c1.21-1.64,2.39-3.29,3.57-4.96l.54-.77c1.11-1.58,2.2-3.18,3.31-4.83,1.08-1.62,2.15-3.25,3.2-4.89l.54-.83c.96-1.5,1.9-3.01,2.83-4.52l.56-.92c.91-1.5,1.82-3.01,2.71-4.53l.14-.25c.89-1.52,1.76-3.06,2.62-4.6l.58-1.04c.85-1.53,1.68-3.06,2.51-4.61l.29-.55c.74-1.4,1.47-2.8,2.19-4.21l.51-1c.77-1.53,1.53-3.06,2.28-4.61l.42-.88c.67-1.4,1.33-2.8,1.98-4.21l.37-.81c.71-1.56,1.41-3.13,2.09-4.69l.45-1.04c.69-1.61,1.38-3.22,2.04-4.84l.05-.12c.67-1.65,1.32-3.3,1.96-4.95l.4-1.04c.64-1.68,1.27-3.37,1.88-5.05l.31-.87c.59-1.67,1.18-3.34,1.74-5.01l.12-.35c.63-1.89,1.23-3.79,1.82-5.68l.26-.83c.55-1.83,1.09-3.65,1.6-5.48l.37-1.32c.17-.61.33-1.22.49-1.83.15-.57.3-1.14.45-1.71.11-.44.22-.87.33-1.31l20.89-12.06c-.03.18-.05.36-.08.54-.28,1.89-.57,3.79-.91,5.69-.04.22-.08.44-.12.66-.32,1.82-.67,3.65-1.05,5.49-.06.28-.11.55-.17.83-.42,2.01-.86,4.03-1.34,6.05-.02.09-.04.18-.06.27-.94,3.94-2,7.9-3.15,11.87-.17.58-.33,1.15-.51,1.73-1.23,4.12-2.58,8.25-4.04,12.38-.03.08-.06.17-.09.25-1.54,4.32-3.2,8.64-4.98,12.94-.11.26-.22.51-.32.76-.75,1.79-1.52,3.59-2.3,5.38-.21.48-.43.96-.64,1.44-.71,1.59-1.44,3.17-2.18,4.75-.25.52-.49,1.05-.74,1.57-.85,1.77-1.71,3.54-2.59,5.31-.12.24-.23.47-.35.71-1.01,2.01-2.05,4.01-3.12,6-.28.52-.56,1.04-.85,1.55-.78,1.44-1.57,2.88-2.38,4.32-.39.69-.78,1.37-1.17,2.06ZM261.79,312.98l80.32-46.37c-.09.33-.18.66-.27.98l-.36,1.29c-.5,1.8-1.03,3.6-1.57,5.39l-.25.82c-.58,1.87-1.17,3.73-1.79,5.6l-.12.35c-.55,1.65-1.12,3.29-1.71,4.94l-.3.85c-.6,1.66-1.22,3.32-1.85,4.98l-.4,1.03c-.63,1.63-1.27,3.25-1.94,4.88l1.85.76-1.9-.64c-.65,1.59-1.33,3.18-2.01,4.77l-.44,1.03c-.67,1.55-1.36,3.09-2.06,4.63l-.37.79c-.64,1.39-1.29,2.77-1.95,4.15l-.41.86c-.74,1.52-1.48,3.03-2.25,4.54l-.5.98c-.71,1.39-1.43,2.78-2.15,4.15l-.29.56c-.81,1.52-1.64,3.04-2.47,4.54l-.57,1.03c-.85,1.52-1.71,3.03-2.58,4.53l-.14.24c-.88,1.5-1.77,2.99-2.67,4.47l-.55.91c-.92,1.5-1.85,2.98-2.79,4.46l-.53.83c-1.04,1.62-2.09,3.23-3.12,4.78-.01.02-.05.07-.06.09-1.06,1.59-2.15,3.16-3.24,4.72l-.53.76c-1.16,1.64-2.33,3.27-3.52,4.89l-.58.79c-1.18,1.6-2.38,3.18-3.59,4.75l-.56.72c-1.4,1.8-2.84,3.61-4.28,5.36l-.55.67c-1.42,1.73-2.91,3.48-4.41,5.22l-.63.72c-.95,1.09-1.91,2.18-2.85,3.22,0,0-.06.07-.07.07-.98,1.08-1.97,2.15-2.96,3.21l-.88.93c-.75.79-1.5,1.58-2.25,2.35l-.87.89c-1.01,1.03-2.02,2.05-3.04,3.06-.82.81-1.64,1.6-2.46,2.4l-.58.55c-.63.61-1.27,1.21-1.91,1.8l-1.26,1.16c-.42.38-.84.77-1.26,1.15l-1.04.92c-.5.45-1,.9-1.51,1.34l-1.09.94c-.49.42-.98.85-1.48,1.27-.33.28-.67.56-1,.84l-.13.11c-.48.41-.97.81-1.45,1.2l-1.17.95c-.48.39-.96.78-1.44,1.16-.39.31-.78.62-1.18.93-.48.38-.96.75-1.45,1.13-.39.3-.79.61-1.18.91-.49.37-.98.74-1.47,1.1-.4.29-.79.59-1.19.88-.49.36-.99.72-1.49,1.08-.39.28-.79.57-1.18.84-.5.35-1,.7-1.51,1.05l-1.18.81c-.51.35-1.03.69-1.55,1.04l-1.15.77c-.5.33-1.01.65-1.52.98l-1.2.76c-.53.33-1.06.66-1.6.99l-1.13.7c-.91.55-1.83,1.09-2.74,1.62-1.26.73-2.52,1.43-3.78,2.11l-.91.49c-1.25.66-2.5,1.31-3.75,1.94l-.29.14c-.96.47-1.91.92-2.87,1.36l45.13-116.97Z"/><path class="cls-1" d="M229.36,309.28c.02-.07.04-.13.06-.2,0-.04.01-.08.02-.13,0-.03,0-.06.01-.08,0-.04,0-.09,0-.13,0-.05,0-.1,0-.16,0-.05,0-.1,0-.15,0-.02,0-.03,0-.05,0-.05-.02-.1-.03-.14-.01-.06-.03-.12-.05-.18,0-.03-.02-.06-.03-.09,0-.02-.02-.04-.03-.06-.02-.05-.05-.11-.07-.16-.03-.05-.05-.1-.08-.15-.02-.03-.03-.06-.05-.08l-54.86-78.84c-.06-.08-.12-.15-.19-.22,0,0,0,0,0,0-.38-.4-.89-.62-1.47-.65-.66,0-1.28.34-1.64.89-7.08,10.61-13.55,21.77-19.21,33.18-13.7,27.59-22.62,56.27-25.79,82.96-3.09,26.02-.7,49.62,6.92,68.25,4.37,10.68,10.41,19.56,17.87,26.44.17.36.44.68.81.9l.57.33c5.88,5.1,12.58,9.01,20.02,11.59.03.01.06.01.09.02.03.01.07.02.1.03.15.04.31.06.46.06.18,0,.36-.03.54-.08.02,0,.05-.01.07-.02.02,0,.03,0,.05-.01.15-.05.29-.13.43-.22.03-.02.06-.05.09-.07.11-.08.22-.18.31-.28.04-.04.07-.08.1-.12.11-.15.21-.3.27-.47l54.69-141.8s.02-.07.03-.1ZM171.75,447.56l-16.73-9.72,53.24-138.02,16.73,9.72-52.71,136.66-.52,1.36ZM172.65,233.39l48.03,69.01-7.98-4.64-4.07-2.36-39.4-56.62c1.13-1.81,2.27-3.61,3.43-5.39ZM136.56,411.59c-15.24-37.27-8.06-93.95,18.75-147.92,3.57-7.18,7.46-14.26,11.63-21.17l38.05,54.68-53.17,137.85c-6.29-6.25-11.44-14.11-15.25-23.44Z"/><path class="cls-1" d="M258.47,269.27c.11.16.25.3.4.42,0,0,0,.02-.01.03l.25.14s.03.01.04.02c.1.06.21.09.31.13.05.02.1.04.15.06.16.04.32.06.48.06,0,0,0,0,0,0h0c.17,0,.34-.02.51-.07.17-.04.33-.11.49-.2l110.16-63.6s.04-.03.06-.05c.02-.01.04-.02.06-.03.05-.03.08-.08.12-.11.07-.05.14-.1.2-.16.02-.02.04-.04.06-.07.05-.05.08-.11.12-.17.05-.07.1-.14.14-.22.02-.03.03-.06.05-.09.02-.05.04-.11.06-.16.03-.09.06-.18.08-.27,0-.04.02-.08.03-.12,0-.05,0-.1,0-.15,0-.05.02-.09.02-.14,0-.05-.02-.1-.02-.16,0-.05,0-.09,0-.14-.23-1.56-.5-3.09-.78-4.61-.05-.26-.09-.51-.14-.77-.24-1.23-.5-2.44-.78-3.64-.25-1.08-.51-2.14-.78-3.2-.1-.38-.19-.76-.3-1.14-4.57-16.96-12.67-30.47-23.9-39.89-.01-.01-.03-.02-.04-.04-.9-.75-1.82-1.49-2.76-2.19-.59-.44-1.18-.87-1.79-1.29-.33-.23-.67-.46-1.01-.69-.92-.61-1.85-1.19-2.8-1.75-.09-.05-.18-.12-.27-.17l-.98-.57s-.01,0-.02.01c-1.02-.57-2.06-1.12-3.12-1.63-23.39-11.28-53.57-7.51-84.97,10.62-15.12,8.73-29.9,20.4-43.94,34.68-.67.69-.76,1.75-.21,2.54l54.82,78.75ZM251.36,252.05l98.67-56.97,16.25,9.44-105.57,60.95-9.35-13.43ZM335.19,148.51c.78.46,1.55.94,2.3,1.44.4.26.8.53,1.19.8.47.32.93.66,1.39,1,12.3,9.12,21.2,23.39,25.89,41.52.1.4.2.8.3,1.2.22.88.42,1.77.62,2.67.21.98.42,1.98.61,2.98.03.18.07.35.1.53l-15.73-9.14c-2.8-17.87-8.97-32.68-18.15-43.85.5.27.99.55,1.47.84ZM326.41,144.3c-.11-.03-.23-.04-.34-.08-.4-.14-.78-.3-1.16-.46.5.17,1,.36,1.5.55ZM249.8,156.76c27.2-15.7,53.28-20.28,74.38-13.25,12.22,10.94,20.31,27.37,23.65,48.22l-98.77,57.03-41.18-59.15c13.43-13.49,27.53-24.54,41.92-32.84Z"/><path class="cls-1" d="M561.69,274.38c0-.09-.02-.18-.04-.27-.01-.08-.01-.17-.03-.25-.02-.08-.06-.15-.09-.23-.03-.08-.06-.17-.11-.25-.03-.06-.08-.11-.12-.16-.06-.09-.12-.18-.19-.25-.04-.04-.09-.07-.13-.1-.09-.08-.18-.16-.28-.22l-22.87-13.29c-.62-.36-1.38-.36-2,0l-133.84,77.27c-.15-3.02-1.29-5.52-3.41-6.9l-15.5-11.54c-.39-.3-.75-1.86.21-4.14,1.57-3.77,3.04-7.62,4.38-11.42.77-2.09,2.21-3.73,4.27-4.89l22.92-8.09c.87-.26,1.76-.65,2.65-1.16,4.43-2.56,8.26-7.83,9.74-13.42l3.56-13.43c1.16-4.3.75-8.18-1.13-10.66-.52-.69-1.15-1.24-1.85-1.67-.04-.03-.07-.06-.11-.08l-20.23-11.76h0s-.05-.03-.05-.03c0,0,0,0,0,0h-.02c-.19-.12-.39-.21-.59-.3-.03-.01-.05-.03-.08-.04,0,0,0,0,0,0,0,0,0,0,0,0,0,0,0,0,0,0-.08-.03-.16-.05-.24-.08-.15-.06-.3-.12-.46-.16-.02,0-.05-.01-.07-.02-.11-.03-.23-.05-.34-.08-.11-.02-.22-.06-.33-.08,0,0,0,0,0,0-.05,0-.1-.01-.15-.02-.12-.02-.24-.03-.36-.04-.1,0-.19-.03-.28-.03,0,0,0,0-.01,0,0,0,0,0,0,0-.07,0-.15,0-.23-.01.13-.95.26-1.91.39-2.9.24-2.1,1.59-4.5,3.27-5.82l23.31-17.78c5.28-3.79,9.12-11.01,9.14-17.19l-.04-12.33c-.17-3.25-1.46-5.78-3.65-7.12-.03-.02-.05-.03-.08-.04-.02-.01-.03-.03-.05-.04,0,0,0,0,0,0h0s0,0-.01,0l-20.29-11.79c-.22-.13-.46-.24-.72-.35-.02,0-.04-.02-.07-.02,0,0-.01,0-.02,0,0,0,0,0,.01,0,0,0-.01,0-.02,0-.06-.02-.13-.05-.16-.06-.15-.06-.29-.11-.44-.15-.07-.02-.14-.04-.15-.04h0c-.08-.02-.17-.04-.33-.08-.09-.02-.18-.04-.3-.06-.08-.01-.16-.02-.24-.03-.1-.01-.21-.03-.29-.03-.05,0-.2-.02-.25-.03-.1,0-.2-.01-.37,0-.08,0-.17,0-.28,0-.05,0-.14,0-.19,0-.11,0-.22.02-.34.03h-.11c-.12.02-.25.03-.28.04-.05,0-.15.01-.21.02-.1.01-.2.04-.38.08-.18.04-.36.07-.46.1-.05,0-.16.03-.21.05-.1.03-.2.06-.22.07-.32.09-.65.21-.92.32-.06.02-.21.07-.27.09l-.28.11,16.59-20.21c4.78-5.57,6.82-13.17,4.85-18.06l-3.62-9.32c-.63-1.62-1.65-2.85-2.97-3.63-.02-.01-.03-.02-.05-.03,0,0,0,0-.01,0l-20.22-11.75s-.07-.04-.08-.04c-.22-.12-.44-.23-.66-.32-.07-.03-.14-.06-.17-.06l-.17-.06-.65,1.89.55-1.93c-.1-.04-.19-.07-.29-.1-.12-.03-.24-.06-.36-.09l-.19-.04s-.14-.03-.19-.04c-.26-.04-.52-.08-.71-.09-.11-.01-.21-.01-.47-.01-.15,0-.29,0-.45,0-.08,0-.17.01-.23.02-.12,0-.25.02-.42.04-.08,0-.17.02-.27.03-.09.01-.19.04-.33.07-.16.03-.32.06-.47.1-.09.02-.18.04-.24.05-.1.03-.2.06-.28.09-.27.08-.54.17-.79.27-.09.03-.19.06-.28.1-.07.03-.14.06-.22.11-.49.21-.92.43-1.31.66-.26.15-.51.33-.77.5l4.41-8.44c3.74-6.81,3.67-14.01-.19-17.12l-6.76-5.39c-.18-.15-.38-.26-.57-.39-.08-.07-.17-.13-.26-.19h0s0,0,0,0l-.12-.07s0,0,0,0l-20.09-11.68s-.06-.03-.07-.04c-.22-.12-.45-.24-.67-.33-.07-.03-.15-.06-.21-.08l-.15-.05-.65,1.89.56-1.92c-.08-.03-.16-.06-.28-.09-.14-.04-.29-.07-.48-.11-.02,0-.05-.01-.08-.02-.05-.01-.11-.03-.16-.03-.25-.04-.51-.07-.72-.09-.09,0-.18,0-.19,0-.08,0-.17,0-.34,0-.11,0-.22,0-.36,0-.09,0-.18.01-.29.03-.13.01-.25.02-.34.03-.09,0-.19.02-.25.03-.11.02-.23.04-.38.08-.17.03-.34.07-.44.09-.05,0-.18.04-.23.05-.1.03-.2.06-.29.09-.27.08-.55.18-.78.27-.1.03-.19.06-.27.09-.08.03-.16.07-.24.11-.49.21-.92.43-1.32.66-.43.25-.88.55-1.45.96l-.17.12c-.42.31-.85.67-1.28,1.07l-.35.33c-.09.08-.18.17-.28.26-.16.16-.32.33-.47.5l-.25.26c-.09.09-.18.19-.26.28-.03.03-.11.12-.14.15-.28.32-.55.66-.83,1-.1.13-.2.26-.26.35l-2.13,2.71c1.07-4.05.77-7.74-.9-10.21-.56-.84-1.28-1.51-2.1-2.01-.02-.01-.03-.03-.05-.04-.01,0-.03-.02-.05-.03l-18.09-10.51-2.14-1.25h0s-.05-.03-.05-.03c0,0,0,0,0,0h-.02c-.07-.05-.15-.08-.23-.12-.14-.07-.27-.14-.41-.2-.01,0-.02-.01-.04-.02,0,0,0,0,0,0,0,0,0,0,0,0,0,0-.01,0-.02,0-.07-.03-.15-.05-.22-.08-.14-.05-.27-.1-.41-.15-.02,0-.03-.01-.05-.02,0,0,0,0,0,0,0,0,0,0,0,0-.09-.03-.19-.04-.28-.06-.13-.03-.27-.07-.4-.09-.02,0-.05-.01-.07-.02h0s0,0,0,0c-.19-.03-.39-.06-.59-.08,0,0,0,0,0,0h-.01s0,0,0,0h0l-9.15-.82c-.07,0-.14-.01-.18-.01-.28-.02-.56-.02-.84,0-.1,0-.21.01-.36.03l-.3.03c-.08,0-.17.01-.26.03-.34.05-.69.13-1.04.22-.01,0-.02,0-.03,0-.08.02-.16.05-.22.07-.36.11-.72.22-1.09.38-.03.01-.07.03-.11.05-.49.21-.97.45-1.43.71-.37.22-.75.46-1.11.71l-.33.24c-.27.2-.54.41-.87.68l-.25.2c-.34.29-.68.6-1.03.94-.38.38-.75.77-1.12,1.2-.28.32-.55.66-.82,1l-.44.6c-.08.1-.15.2-.23.32-.12.16-.23.33-.34.5l-.15.23s-.08.12-.09.14c-.18.28-.35.56-.52.85l-.33.59s-.05.08-.05.09l-.1.19c-.15.29-.3.57-.44.86l-8.07,16.36c-.21-2.84-1.3-5.1-3.15-6.45-.14-.1-.29-.18-.43-.27-.05-.03-.09-.07-.14-.1l-20.23-11.76s-.06-.03-.07-.04c-.17-.1-.35-.19-.55-.27-.02,0-.04-.02-.05-.03-.04-.02-.07-.03-.11-.05-.23-.09-.46-.18-.77-.27-.01,0-.03,0-.05-.01-.06-.01-.12-.03-.2-.05-.14-.04-.28-.07-.36-.08-.06-.01-.13-.02-.2-.03-.07-.01-.14-.02-.22-.03h-.11c-.11-.03-.22-.04-.33-.05-.02,0-.11,0-.12,0-.1,0-.21,0-.31,0h-.1c-.1,0-.2,0-.28,0-.04,0-.12,0-.18.01-.13,0-.27.02-.48.05-.09,0-.19.02-.24.03-.06,0-.06,0-.13.02-.27.04-.54.1-.82.17h-.05s-.09.03-.13.04c-.29.08-.58.17-.89.29l-10.42,3.92-.35.14c-.06.03-.13.06-.2.09-.51.22-.96.44-1.37.68-.3.18-.61.37-.91.57-.08.05-.16.11-.23.17l-.1.07c-.18.13-.37.26-.55.4l-.41.33c-.15.12-.3.24-.43.36-.1.08-.19.17-.29.26l-.06.06c-.16.14-.32.29-.48.45-.02.02-.08.08-.1.09-.05.05-.1.1-.15.16-.3.3-.59.62-.88.94l-.18.2c-.25.29-.51.6-.75.91-.01.02-.03.03-.04.05l-.14.19c-.17.23-.34.45-.51.69-.01.02-.03.04-.04.06-.2.28-.39.57-.58.86,0,.01-.01.02-.02.03h0c-.18.28-.35.57-.56.92l-.23.4c-.07.13-.15.26-.22.41l-.97,2.07c-.06.14-.11.27-.18.44l-.37,1.01s-.04.11-.05.13l-.17.53c-.04.13-.08.27-.12.4,0,.03-.03.11-.04.14-.08.28-.15.57-.21.82l-7.66,30.38c-.06.25-.14.51-.22.72l-.04.12c-.09.25-.2.5-.33.78-.12.25-.25.5-.44.81-.14.23-.28.45-.44.66l1.62,1.17-1.57-1.01-.82-2.25c-.59-1.85-1.68-3.28-3.11-4.17-.04-.03-.08-.07-.13-.09,0,0,0,0,0,0l-20.22-11.75s-.07-.04-.09-.05c-.22-.12-.44-.23-.73-.35l-.37-.13c-.1-.04-.21-.08-.29-.1-.12-.04-.25-.07-.45-.11-.07-.02-.14-.03-.12-.03-.05-.01-.14-.03-.19-.04-.26-.05-.53-.08-.88-.1-.07,0-.14,0-.21,0-.01,0-.11,0-.13,0-.14,0-.28,0-.44,0-.08,0-.17.01-.22.02-.13,0-.26.02-.4.04-.1,0-.2.02-.3.03-.1.01-.2.04-.32.07-.16.03-.33.06-.47.1-.09.02-.18.04-.27.06-.09.03-.19.06-.26.09-.27.08-.55.18-.79.27-.1.03-.19.06-.31.11l-.55.25c-.33.16-.66.32-1,.52-.62.36-1.24.78-1.85,1.25l-10.43,8.11c-.48.38-.98.82-1.47,1.29-.04.03-.13.12-.17.15-.05.05-.1.1-.11.11-.34.34-.67.69-1,1.06-.02.02-.03.04-.05.05-.08.09-.15.18-.23.28l-.16.19c-.13.16-.27.32-.39.48-.02.03-.04.05-.06.07-.24.3-.46.61-.69.94l-.07.1c-.18.26-.35.52-.52.78l-.22.36,1.67,1.11-1.75-.97c-.08.13-.16.26-.22.37l-.34.61s-.05.09-.05.09l-.1.18c-.07.13-.13.26-.2.38l-.19.38s-.05.09-.05.11c-.14.3-.28.59-.42.93l-.09.22c-.09.22-.19.45-.27.67l-.44,1.27c-.05.16-.1.32-.17.56l-.14.54c-.05.21-.11.41-.16.67-.02.08-.04.16-.06.24-.02.08-.03.15-.04.24-.06.32-.12.63-.17,1-.02.08-.03.17-.04.25,0,.06-.01.13-.01.15-.04.29-.06.58-.08.88v.11c-.02.1-.02.2-.03.3-.02.43-.02.86,0,1.21l.44,27.1c0,.22-.01.46-.05.71-.03.23-.08.46-.13.7l-.03.13c-.06.23-.13.47-.24.79-.09.25-.19.49-.34.81-.12.26-.25.52-.4.77,0,0-.01.02-.02.03-.15.25-.31.49-.45.7,0,0-.06.08-.06.09-.16.22-.33.44-.51.65-.01.01-.02.02-.03.04-.19.22-.39.42-.59.61-.02.02-.05.05-.07.07-1.79,1.84-5.41,5.52-7.68,7.81l-19.82-11.52c-.22-.12-.44-.23-.66-.33-.08-.03-.16-.06-.18-.07l-.28-.1c-.08-.03-.16-.06-.26-.09-.16-.04-.31-.08-.49-.12-.04,0-.08-.02-.11-.03-.04,0-.09-.02-.12-.03-.26-.04-.52-.08-.78-.09-.05,0-.09,0-.14,0h-.22s-.07,2-.07,2l-.05-2c-.12,0-.24,0-.37,0-.08,0-.17.01-.28.03-.12,0-.24.02-.38.04-.08,0-.16.01-.22.02-.11.02-.22.04-.33.07l-.11.02c-.15.03-.29.06-.39.08-.05,0-.18.04-.23.05-.1.03-.21.06-.29.1-.27.08-.54.17-.78.27-.09.03-.19.06-.28.1-.08.04-.17.07-.31.14l-.29.13c-.32.15-.64.32-.96.5-.4.23-.8.5-1.19.77l-.31.22c-.37.28-.75.57-1.11.89-.02.02-.04.04-.06.05-.29.26-.58.52-.86.8-.06.06-.12.12-.21.22-.15.15-.3.32-.51.54l-.12.13c-.1.1-.19.2-.3.32-.17.19-.33.39-.5.59l-9.12,11.36-.29.36c-.08.11-.17.22-.25.33l-.36.48s-.07.1-.09.12c-.2.29-.4.58-.62.93-.17.27-.33.54-.51.84l-.21.37s-.05.09-.05.09l-.2.35c-.05.1-.1.2-.15.3l-.29.57c-.14.29-.28.59-.42.92,0,0-.04.1-.04.11-.11.26-.22.53-.32.78l-.44,1.27c-.05.16-.1.32-.17.56-.02.08-.05.16-.07.22-.02.08-.04.17-.08.32-.05.21-.11.42-.16.67-.02.08-.04.16-.06.23-.02.08-.03.16-.04.24-.06.32-.12.64-.17,1-.02.09-.03.17-.04.25,0,0,0,.1,0,.11-.06.54-.1,1.07-.12,1.58v.32c0,.5.02.96.07,1.42,0,.04.01.17.02.2.06.49.15.97.29,1.47.03.12.06.23.1.33.15.5.31.91.49,1.29,0,0,0,0,0,0l8.48,20.55c.04.11.07.24.1.38,0,.01.02.12.02.13.02.11.03.22.04.34v.2c0,.13,0,.26,0,.39l-.02.23c-.02.18-.05.36-.09.56v.09c-.06.24-.13.47-.2.71,0,0-.03.1-.03.1-.08.25-.17.49-.24.66,0,.02-.05.12-.06.13-.11.27-.24.53-.39.81-.14.27-.3.53-.48.8l-2.66,4.06c-.72,1.1-1.45,2.22-2.21,3.42l-.12.19c-.58.91-1.16,1.83-1.74,2.77-.19.3-.39.59-.55.8-.02.02-.06.08-.08.1-.18.23-.38.45-.58.66,0,0-.08.08-.09.09-.13.13-.27.25-.45.4l-.21.19c-.22.17-.43.32-.63.43-.15.08-.3.16-.44.22-.1.04-.19.08-.31.11-.02,0-.04,0-.06.01-.09.02-.17.04-.29.05-.06,0-.12,0-.13.01l-20.06-2.69c-.26-.04-.52-.07-.78-.09-.02,0-.05,0-.07,0-.11,0-.22,0-.33,0h-.1c-.11,0-.22,0-.24,0-.05,0-.11,0-.16,0-.27.01-.54.04-.82.08,0,0-.02,0-.03,0-.04,0-.06,0-.1.02,0,0,0,0,0,0-.25.04-.51.1-.79.17-.05,0-.11.02-.14.03-.07.02-.14.04-.21.07-.4.11-.76.24-1.1.38-.02,0-.04.02-.06.02-.19.08-.39.17-.61.28-.03.01-.13.06-.16.08-.26.13-.52.27-.78.42-.36.21-.71.43-1.06.67-.08.06-.17.12-.33.24-.24.17-.48.36-.72.55-.12.1-.24.19-.36.29-.23.2-.46.4-.68.61l-.33.31s-.1.09-.12.11c-.08.08-.16.17-.24.25l-.09.1c-.22.23-.44.45-.66.7-.05.05-.1.1-.14.16-.11.13-.22.27-.33.4l-.4.48s-.08.1-.1.12c-.23.3-.46.61-.67.91,0,0-.07.1-.07.11l-.21.3c-.11.16-.22.32-.33.49l-.27.45s-.05.09-.06.09l-.2.33c-.17.28-.33.57-.48.86l-6.87,13.5c-.1.19-.2.39-.3.59l-.34.75s-.05.12-.06.13c-.13.3-.26.61-.39.96l-.04.12c-.1.27-.2.53-.3.83l-.21.7c-.04.11-.07.22-.1.32-.02.07-.04.15-.06.23-.05.2-.1.4-.15.59l-.09.39c-.01.06-.02.13-.03.18-.07.36-.13.72-.18,1.08-.01.08-.03.16-.04.29-.05.45-.09.89-.11,1.33v.33c-.01.33,0,.65,0,.95,0,.15.02.3.03.44.02.3.06.58.11.94.02.1.03.21.05.32.07.35.15.69.24.99,0,.04.04.15.05.18.12.37.26.74.44,1.13.04.08.08.16.15.29.13.25.27.5.42.72.08.12.16.24.24.33.17.23.35.44.59.69.07.07.14.15.22.22.3.28.59.51.89.7l15.51,11.45s.06.06.11.13c.04.05.07.1.1.18,0,.01.02.03.03.05.03.08.06.17.08.27l.02.1c.02.12.04.24.05.37v.08c.02.17.02.35,0,.54l2,.14-2.01.02c-.01.17-.04.34-.07.51,0,0-.03.16-.03.17-.04.23-.1.45-.17.69l1.92.57-1.95-.47c-.08.26-.17.53-.29.8-.77,1.85-1.52,3.74-2.21,5.54,0,.02-.04.09-.04.11-.74,1.93-1.46,3.88-2.14,5.77-.08.23-.18.46-.31.75-.11.23-.22.45-.35.67,0,0,0,.02-.01.02-.13.22-.27.43-.45.69-.14.19-.29.38-.49.62-.17.19-.34.38-.58.6l-.1.1c-.14.13-.29.26-.44.39l-.21.17c-.15.12-.31.23-.48.35,0,0-.08.06-.08.06l-.13.09c-.2.13-.41.26-.62.38l-23.01,8.17c-.34.1-.68.23-1,.36-.07.03-.13.06-.21.09-.49.21-.95.44-1.38.69-.29.17-.59.36-.89.56l-.28.2c-.19.13-.38.27-.57.42l-.33.26c-.17.14-.34.27-.5.42l-.33.3c-.16.14-.31.29-.5.47-.03.03-.13.12-.16.15l-.09.09c-.33.33-.66.68-.98,1.04-.01.01-.03.03-.04.04l-.11.14c-.22.25-.43.51-.63.77-.02.02-.08.09-.09.11l-.21.28c-.12.17-.25.33-.38.51l-.29.42c-.1.14-.19.29-.33.49-.01.02-.07.1-.08.12l-.45.74s-.07.11-.08.12c-.07.11-.13.23-.23.41l-.18.33s-.06.1-.06.11c-.11.2-.21.41-.33.66l-.09.18s0,0,0,.01c0,0,0,.01,0,.02-.14.29-.27.58-.4.88-.01.03-.03.07-.04.1l-.14.33c-.07.16-.13.32-.23.57l-.21.56c-.04.11-.08.22-.11.31l-.04.12c-.05.16-.1.33-.17.55l-.04.12c-.03.1-.06.2-.09.29l-3.66,13.68c-.09.33-.17.67-.24,1,0,.04-.02.08-.03.11v.08c-.1.42-.17.83-.22,1.21-.01.07-.03.15-.03.19,0,.04,0,.06,0,.1-.06.46-.09.9-.11,1.33v.25c-.02.45-.01.9.02,1.32h0s0,.04,0,.06c.03.42.09.82.17,1.28,0,.02.02.14.03.16.08.39.18.77.3,1.15l.07.21c.15.42.3.78.47,1.11.18.34.38.67.6.96.05.07.1.14.15.2.23.3.49.58.79.85l.15.13c.33.29.65.51.96.7l20.22,11.75s0,0,.01,0c.03.02.07.03.1.04.94.52,2,.82,3.15.85-.13.96-.26,1.92-.39,2.91-.03.24-.07.49-.13.74l1.95.43-1.98-.33c-.06.24-.12.49-.19.68,0,.02-.03.08-.04.1-.09.25-.19.5-.33.82-.11.25-.23.49-.41.8-.13.24-.28.46-.47.76-.15.21-.3.42-.47.62,0,0-.09.11-.09.11-.17.2-.35.4-.53.58-.2.19-.4.37-.58.52l-23.31,17.79c-.37.26-.73.55-1.09.85l-.33.29c-.24.21-.47.42-.7.64l-.15.14c-.06.06-.12.12-.2.21-.25.25-.49.51-.75.8-.06.06-.12.12-.17.19l-.12.15c-.15.17-.29.35-.45.54l-.77,1c-.06.09-.13.17-.18.25l-.45.67c-.05.08-.1.15-.14.22-.06.09-.12.19-.17.28l-.28.46s-.07.11-.08.13c-.15.25-.28.5-.42.76-.02.03-.04.08-.06.11-.15.29-.3.58-.43.84l-.8,1.84c-.05.13-.1.26-.14.39l-.17.46s-.04.11-.04.13c-.07.19-.12.39-.18.58l-.04.13s-.03.09-.03.1l-.08.26c-.03.12-.06.24-.09.36l-.08.32c-.04.16-.08.33-.1.4-.01.04-.03.1-.03.14-.02.07-.03.14-.04.21-.08.37-.14.74-.18,1.08,0,.04-.03.16-.03.2-.02.14-.03.27-.04.4l-.05.5c-.03.37-.05.75-.05,1.12l.04,12.09c0,3.62,1.31,6.38,3.72,7.78l20.23,11.76s.08.03.13.05c2.05,1.14,4.62,1.13,7.29-.07l.06-.02-16.59,20.22c-.26.3-.5.6-.71.87-.01.02-.08.1-.09.12l-.32.42c-.1.14-.2.27-.32.43l-1.1,1.73c-.13.23-.26.45-.41.73,0,.02-.06.11-.07.13-.15.29-.3.58-.44.87l-.78,1.79c-.05.14-.1.27-.15.41l-.16.46s-.03.09-.04.1c-.08.23-.15.46-.21.69l1.9.62-1.94-.49-.05.15s-.02.07-.03.1c-.03.1-.05.21-.08.31l-.06.25c-.05.2-.1.41-.13.53,0,.03-.02.08-.03.12-.02.07-.03.14-.04.21-.07.37-.14.74-.19,1.08,0,.04-.03.16-.03.2-.01.09-.02.17-.02.23-.05.39-.08.78-.09,1.16,0,0,0,.1,0,.1v.25c-.02.49,0,.96.03,1.42,0,.08.02.16.03.27.04.39.1.76.17,1.12.03.13.05.26.08.38.12.51.25.93.41,1.31l3.66,9.28c.47,1.21,1.17,2.22,2.06,2.98.3.26.62.49.96.68l20.23,11.75h0s0,0,0,0c.02.01.04.02.06.03.33.19.68.36,1.05.49,2.23.78,4.92.37,7.57-1.16.27-.16.54-.34.81-.52l-4.45,8.52c-.08.15-.16.29-.24.44-.11.21-.21.41-.34.68l-.1.2c-.14.3-.28.6-.4.87l-.49,1.23c-.05.14-.1.28-.17.46l-.23.69c-.04.14-.08.28-.13.42l-.05.17c-.03.1-.05.2-.08.31l-.05.19c-.05.18-.09.36-.13.54,0,.03-.04.15-.04.19-.02.08-.03.15-.05.27-.06.32-.12.64-.17.98-.01.08-.03.15-.04.24,0,.07-.01.13-.02.2-.03.28-.05.55-.08.91,0,.12-.02.25-.02.34-.01.33-.01.66,0,1.02v.22c.02.41.06.8.12,1.19.01.09.03.17.05.31.05.28.1.56.17.83.03.13.07.25.12.41.07.24.15.47.23.7.05.14.11.27.17.4.1.22.2.43.33.67.06.12.13.23.2.35.14.22.28.42.48.67.06.08.12.15.2.25.27.31.53.57.83.82l6.77,5.42c.08.06.16.12.25.17h0c.19.14.37.28.57.4l20.23,11.76s.04.02.07.03c2.36,1.33,5.48,1.1,8.56-.68,2.08-1.2,4.07-3.04,5.73-5.27l2.11-2.68c-.06.22-.11.45-.18.72l-.05.21s-.02.09-.02.11c-.09.42-.16.83-.22,1.26,0,.04-.02.09-.02.12-.01.08-.02.16-.02.18-.05.42-.08.83-.1,1.26,0,.02,0,.14,0,.16-.01.44,0,.87.02,1.29l.02.28c.04.43.09.85.17,1.29.08.4.18.78.29,1.11.03.09.05.18.09.27.13.38.28.74.46,1.08l.09.17c.17.31.36.61.56.89.02.03.09.12.11.15.23.3.49.58.75.83.07.06.13.12.21.18.33.29.65.51.96.7l20.23,11.76s.05.02.08.03c.82.46,1.74.75,2.74.84l9.21.79c.21.02.43.03.65.03,1.66,0,3.45-.53,5.21-1.54,3.36-1.94,6.41-5.45,8.33-9.58l7.97-15.92c.29,3,1.58,5.36,3.7,6.59l20.23,11.76s.04.01.06.03c1.88,1.07,4.22,1.17,6.7.27l10.42-3.92c.64-.24,1.29-.55,1.93-.92,4.62-2.67,8.62-8.35,9.97-14.12l7.65-30.32c.28-1.09.82-2.18,1.5-3.12l.76,2.09c.3.94.72,1.78,1.26,2.49.55.73,1.22,1.33,1.99,1.78l20.23,11.76s.04.02.07.03c.28.16.56.3.86.42,2.29.89,5.07.5,7.84-1.09.66-.38,1.28-.81,1.84-1.26l10.44-8.12c5.2-4.1,8.78-11.42,8.51-17.37l-.44-27.11c-.02-1.89,1.14-4.38,2.78-5.94,3.13-3.02,5.45-5.37,7.81-7.78l19.59,11.38s0,0,0,0c0,0,0,0,0,0,.02.01.04.01.05.02,1.22.69,2.64.96,4.16.81l.29,102.66c0,.71.38,1.37,1,1.72l22.87,13.29s0,0,0,0c0,0,0,0,0,0,.06.04.14.05.2.08.09.04.18.09.28.12.17.04.34.07.51.07.35,0,.69-.09,1-.27l125.44-72.42,44.8,25.54c.62.35,1.38.35,2,0,.62-.36,1-1.02.99-1.73l-.15-51.3,30.28-17.48c.62-.36,1-1.02,1-1.74l-.47-166.91ZM536.81,263.4l18.89,10.98-142.64,82.35-56.72,32.75-18.89-10.98,199.36-115.1ZM403.3,243.13c.12-.84.24-1.66.36-2.48l12.32,7.16-12.33-.75c-.14,0-.17-.04-.2-.08-.07-.08-.63-.9-.15-3.85ZM410.25,165.29s.06-.03.09-.04l.1-.05s.18-.06.23-.08c.21-.08.42-.16.65-.22.04-.01.08-.03.13-.04.03,0,.06-.01.08-.02.11-.03.21-.05.33-.07.06-.01.12-.02.19-.04.03,0,.05,0,.07,0l.43-.04s.06,0,.07,0h.19s.1,0,.11,0c.03,0,.13.02.16.02l.41.06s.12.03.12.03c.03,0,.07.02.11.03.04.01.08.03.16.06.02,0,.09.03.13.05.08.04.16.08.26.13l14.45,8.4-22.11,8.65-2.42-1.41c-.42-2.82-.87-5.7-1.47-8.34-.24-1.22.21-2.98,1.09-4.54l6.44-2.52ZM394.71,104.05c.63-.54,1.27-1,1.91-1.37.28-.16.59-.31.96-.48.04-.02.08-.04.12-.05.06-.02.11-.04.16-.06.17-.07.35-.13.5-.17.06-.02.12-.04.19-.06.04,0,.1-.02.12-.03.1-.02.2-.04.29-.06l.57-.08s.09-.01.11-.01c.05,0,.1,0,.14,0,0,0,.11,0,.12,0h.12s.04,0,.07,0c.09,0,.17.02.26.03.04,0,.06.01.07.01l.1.02s.19.04.2.05l.09.04s.09.03.1.03l.08.03c.09.04.18.08.28.14,0,0,0,0,0,0l14.52,8.44c-.29.14-.59.3-.88.46-.02.01-.05.03-.07.04-.47.27-.93.58-1.39.91-.37.27-.73.55-1.07.84l-23.03,18.39-5.17-3c-.62-.87-1.24-1.73-1.88-2.58-.47-.6-.6-2.52.58-4.86l6.45-12.34,5.37-4.28ZM359.08,64.79l.25-.32c.22-.29.45-.57.66-.81.02-.02.1-.11.12-.13l.47-.51c.11-.12.22-.24.34-.36l.5-.46c.33-.3.67-.58,1.01-.84l.08-.06s.09-.06.09-.06c.39-.28.72-.5,1.03-.68.28-.17.59-.32.99-.49.02,0,.06-.03.1-.05.05-.02.12-.04.14-.05.18-.07.36-.13.52-.18.06-.02.12-.04.19-.06.04,0,.08-.02.11-.02.09-.02.18-.04.28-.06l.17-.04s.14-.01.18-.02l.78-.03c.09,0,.17.02.26.03,0,0,0,0,.01,0l.17.04c.06.01.12.02.14.03l.2.07c.06.02.11.04.09.03.08.04.17.08.27.13,0,0,0,0,.01,0l14.56,8.46c-.32.15-.61.3-.9.47-.02,0-.03.01-.05.02-2.08,1.2-4.07,3.04-5.73,5.27l-20.29,25.77c-.12.15-.24.29-.37.43-.01.01-.03.03-.03.03l-.14.15c-.08.08-.15.16-.23.23-.02.02-.04.04-.05.05-.13.13-.27.24-.42.36,0,0-.07.06-.08.06l-.09.07c-.18.14-.36.27-.55.37-.15.08-.28.15-.42.2-.01,0-.02.01-.04.02h-.01s-.03.02-.04.02c-.01,0-.02,0-.03.01-.42.16-.76.17-.96.08,0,0,0,0,0,0-.03-.01-.05-.02-.08-.03-1.83-.78-3.59-1.48-5.27-2.09-.53-.19-1.04-.38-1.56-.56-.42-.18-.74-1.37-.25-3.14l5.82-21.19,8.03-10.19ZM307.85,52.18l.13-.26c.12-.25.24-.49.41-.81l.36-.64c.14-.24.29-.48.42-.7,0,0,.07-.1.07-.11l-1.68-1.08,1.76.96.08-.11c.09-.14.18-.28.27-.4l.57-.77c.22-.29.45-.56.68-.83.3-.34.6-.67.93-.99.27-.26.54-.51.81-.74l.16-.13s.08-.07.09-.07c.21-.17.41-.33.7-.54l.17-.12c.27-.19.55-.37.82-.53.33-.19.68-.36,1-.5.04-.02.08-.04.13-.06.22-.09.43-.15.63-.21.08-.02.16-.05.18-.06h0s0,0,0,0c.2-.05.4-.1.57-.12.02,0,.13-.01.15-.01l.35-.04c.14,0,.27,0,.48,0l8.74.78,12.06,7.01-.22-.02c-.74-.06-1.5-.01-2.28.14-.1.02-.21.04-.31.07-.11.02-.21.05-.32.07-.02,0-.04,0-.06.01,0,0-.02,0-.02,0-.05.01-.09.03-.14.05-.89.26-1.8.64-2.7,1.16,0,0,0,0-.01,0-.21.12-.42.27-.64.41-2.01,1.29-3.88,3.13-5.44,5.33-.11.15-.22.31-.33.48-.45.66-.87,1.35-1.26,2.07-.24.45-.48.9-.68,1.33l-14.8,30s-.03.07-.05.1c-.07.16-.14.31-.22.46l-.03.05h0c-.1.19-.21.38-.32.56h0c-.08.13-.16.26-.25.38-.01.01-.06.07-.06.08l-.58.7s-.07.08-.08.08l-.05.05s-.05.04-.07.07c-.03.03-.07.06-.09.08-.12.12-.24.22-.41.36l-.08.06c-.14.11-.28.21-.43.29,0,0-.01,0-.02,0-.12.07-.24.13-.36.17-.03.01-.06.02-.11.04,0,0,0,0,0,0-.12.04-.24.07-.36.08l-.39.04c-.67.08-2.01.23-3.6.44-.01,0-.02,0-.03,0l-.15.02c-.61.08-1.25.17-1.89.27l-.1.02s-.09.01-.14.02c-.36.06-.73.11-1.09.18-.07.01-.13.02-.2.03-.01,0-.02,0-.03,0-.04,0-.07.01-.1.02-.4.07-.79.14-1.17.21-.04,0-.08.01-.12.02,0,0-.02,0-.03,0-.09.02-.2.03-.31.03,0,0-.01,0-.02,0-.11,0-.22-.03-.29-.09-.19-.15-.4-.63-.39-1.46l.2-19.96,11.59-23.48ZM235.84,104.22c.2-.2.4-.4.63-.65.02-.02.1-.11.12-.13.25-.28.48-.57.73-.91,0,0,.06-.08.07-.09.22-.31.43-.62.67-1.02.21-.35.4-.71.59-1.11.17-.35.32-.71.45-1.07,0,0,.04-.11.04-.12.13-.38.25-.75.35-1.13l7.67-30.42c.05-.23.12-.47.17-.68,0-.02.03-.1.04-.12l.24-.77s.04-.1.04-.12l.27-.74s.04-.11.05-.12l1.36-2.79c.14-.25.29-.49.44-.73,0,0,0,0,0-.01.16-.24.31-.48.48-.71.01-.02.02-.03.03-.05h0c.14-.21.29-.41.44-.6l.1-.14s.01-.02.02-.03c.21-.27.42-.53.65-.79l.03-.04s.09-.1.11-.12c.24-.27.48-.53.72-.77l.11-.12s.08-.07.09-.08c.12-.12.25-.24.39-.36l.28-.26c.11-.1.22-.18.39-.33l.27-.22c.14-.11.28-.2.46-.33l.21-.16c.22-.15.44-.29.67-.42.29-.17.62-.33,1-.49.06-.02.12-.05.18-.08l10.56-3.98c.18-.07.36-.12.54-.17.04,0,.08-.02.1-.02.18-.05.35-.08.45-.1.03,0,.08-.01.12-.02l.22-.02c.07,0,.13-.02.23-.02.01,0,.03,0,.05,0h.23s.07,0,.07,0c.06,0,.08,0,.14,0l.12.02s.16.02.17.02c.01,0,.03,0,.04,0l.2.05.51-1.93-.27,1.47-.14.49h.05s0,.02,0,.02c.06.02.13.04.19.07.03.01.06.03.08.04.08.03.15.07.23.11,0,0,.02.01.03.02l14.45,8.4-1.12.42-8.28,3.11s-.02,0-.03.01c-.12.05-.24.1-.36.15l-.1.04s-.03.02-.05.02c-.21.09-.41.18-.62.29-.26.13-.51.26-.75.4-.3.17-.6.36-.9.56,0,0,0,0-.01,0-.07.05-.14.1-.21.15l-.1.07s-.08.06-.11.08c-.15.11-.29.21-.44.32,0,0,0,0-.01.01-.08.06-.16.13-.25.2l-.12.1s-.04.04-.07.05c-.13.11-.26.21-.39.33,0,0-.01,0-.02.01-.1.09-.2.18-.3.27h0s-.07.06-.11.1h0s-.05.05-.08.07c-.1.09-.2.19-.3.29-.01.01-.03.03-.04.04l-.25.25s-.05.05-.07.07c-.24.24-.47.49-.7.74-.06.06-.11.12-.16.18l-.13.14s-.01.01-.02.02c-.25.28-.49.58-.72.88-.02.02-.03.04-.05.06l-.14.19c-.14.18-.27.36-.41.55-.04.05-.08.1-.11.15,0,0-.01.02-.02.02-.21.3-.41.6-.59.88,0,.02-.02.03-.03.05-.19.3-.38.6-.56.92v.02c-.05.06-.08.13-.11.19l-.03.06c-.12.22-.25.44-.36.66h0c-.06.12-.12.23-.18.35h0s-.01.03-.02.04c-.17.34-.33.69-.49,1.03-.06.13-.12.28-.19.45-.36.86-.68,1.74-.92,2.62-.09.32-.17.63-.24.91,0,0,0,.01,0,.02l-7.66,30.38c-.07.27-.15.53-.25.8v.04c-.5,1.31-1.32,2.56-2.3,3.5-.14.14-.3.26-.45.39l-.22.19c-.25.19-.48.35-.7.47l-7.94,4.58-3.89-2.26-4.41-12.12c.05-.05.11-.09.16-.14ZM180.68,145.4c.28-.26.56-.55.82-.85.01-.01.02-.03.04-.04.27-.31.52-.63.82-1.04.24-.34.47-.69.68-1.05,0-.02.02-.03.03-.05.2-.35.38-.7.54-1.03,0-.01.05-.11.06-.12.16-.35.3-.7.43-1.05,0,0,.04-.12.05-.13.12-.35.22-.7.32-1.07l.04-.17c.09-.38.16-.75.2-1.11.06-.43.08-.85.08-1.27l-.44-27.18c-.01-.3-.01-.61,0-.92l.02-.31c.02-.22.03-.44.06-.69l.05-.33c.04-.24.08-.49.13-.75l.09-.41c.04-.16.08-.33.13-.51l.13-.49c.04-.13.08-.26.12-.39l.37-1.06c.07-.19.15-.37.23-.56,0,0,.04-.11.05-.12,0-.02.03-.08.04-.09.11-.25.22-.5.34-.75,0-.01.04-.08.05-.1l.06-.13s.05-.09.05-.1l.21-.42s.05-.09.05-.09l.36-.65c.05-.09.11-.18.17-.27l.06-.09s.06-.09.06-.1l.16-.26c.14-.22.29-.44.43-.65l.07-.1c.18-.26.37-.52.51-.7.03-.03.07-.08.09-.11.1-.14.21-.27.32-.4l.33-.4s.02-.02.02-.03c.27-.31.55-.61.87-.92,0,0,.02-.02.04-.04.04-.04.1-.09.12-.11.43-.42.83-.77,1.19-1.06l10.41-8.1c.46-.36.93-.68,1.39-.94.24-.14.48-.26.72-.37l.32-.15c.07-.02.14-.04.23-.08.17-.07.35-.13.53-.18.05-.02.11-.04.18-.06.05,0,.11-.02.13-.03.1-.02.19-.04.3-.06l.17-.04s.15-.01.18-.02l.22-.02s.08-.01.1-.01c.05,0,.1,0,.15,0h.28c.1,0,.19.02.3.04.03,0,.06.01.09.02l.1.02s.18.04.19.04l.2.07s.08.03.12.04c.08.03.15.07.25.13l14.49,8.42c-.34.16-.68.34-1.02.53-.62.36-1.24.78-1.85,1.25l-10.42,8.11c-.05.04-.1.09-.16.13-.2.16-.4.33-.62.52-.27.24-.53.48-.79.74,0,0,0,0,0,0h-.01c-4.1,4.02-6.86,9.98-6.94,15.11,0,.31,0,.61,0,.87l.44,27.1c0,.24-.02.49-.05.75,0,.01,0,.03,0,.04-.03.22-.08.45-.13.67l-.02.08s0,.04-.02.07c-.06.25-.14.49-.23.74v.02c-.3.81-.73,1.62-1.25,2.35h0c-.35.49-.73.94-1.15,1.33,0,0,0,0,0,0l-.06.06c-1.37,1.41-3.81,3.89-5.89,6-.59.6-1.15,1.16-1.64,1.67l-16.66-9.68c2.23-2.26,5.21-5.29,6.8-6.92ZM126.31,168.58c0-.39.04-.79.08-1.13,0-.06.01-.09.02-.16.01-.08.03-.15.03-.2.04-.25.08-.5.13-.76l.09-.42c.04-.16.08-.32.12-.49l.62-1.94c.08-.22.17-.43.26-.64,0,0,.04-.11.05-.12.11-.25.22-.49.35-.75,0,0,.06-.12.06-.12l.47-.9s.05-.09.05-.09l.18-.32c.13-.23.27-.45.44-.72.16-.25.33-.5.5-.75.01-.02.06-.08.07-.1l9.86-12.34c.13-.17.27-.33.4-.48.05-.06.11-.11.16-.17l.25-.26c.12-.13.23-.25.35-.38l.17-.19c.22-.22.44-.42.66-.62.02-.02.04-.03.05-.04.3-.26.59-.49.93-.74l.19-.14c.3-.21.59-.41.89-.58.23-.13.46-.25.68-.35l.35-.17s.17-.06.22-.08c.18-.07.35-.13.53-.18.06-.02.12-.04.17-.06.04,0,.09-.02.11-.02.09-.02.17-.04.27-.06.07-.01.14-.03.21-.05.02,0,.13-.01.15-.02l.43-.04h.13s.21,0,.21,0c.1,0,.19.02.29.03,0,0,.02,0,.03,0,.02,0,.13.03.16.04.06.01.12.02.16.04l.12.04s.12.04.12.04l.08.03c.08.03.16.07.25.13l14.54,8.45s0,0,0,0c-.32.15-.64.32-.96.5-.4.23-.8.5-1.2.78-.01.01-.03.02-.04.03-.08.06-.16.11-.24.17,0,0-.02.01-.02.02-.38.28-.75.57-1.13.9-.02.01-.03.03-.04.04h0c-.36.32-.72.67-1.08,1.04-.02.02-.03.03-.05.05-.13.14-.26.28-.39.42l-.09.09c-.3.32-.59.65-.89,1.02l-9.12,11.36s-.01.01-.02.02c-.21.26-.41.53-.65.85-.09.13-.19.26-.28.39-.2.28-.39.56-.54.8-2.37,3.65-3.66,7.73-3.66,11.28l-14.7-8.54-1.14-.66c-.03-.09-.06-.19-.09-.3l-.06-.19c-.09-.33-.15-.64-.18-.93,0-.02-.01-.13-.01-.15-.03-.32-.05-.65-.05-.99,0,0,0-.1,0-.11v-.12ZM143.76,185.91l5.98,14.48-14.54-8.45-5.98-14.48,14.54,8.45ZM81.83,247.33c-.11-.07-.23-.17-.39-.32,0,0-.08-.08-.08-.09-.08-.08-.16-.17-.24-.28-.03-.04-.06-.08-.1-.13-.08-.12-.15-.24-.21-.36l-.08-.16c-.09-.19-.17-.4-.23-.57,0-.03-.03-.11-.04-.14-.06-.2-.11-.42-.15-.63l-.03-.16s-.01-.1-.02-.11c-.03-.19-.05-.38-.07-.58,0-.09-.02-.18-.02-.29-.01-.23-.01-.46,0-.7v-.24c.02-.33.04-.66.09-1v-.03s.03-.16.04-.19c.04-.28.09-.56.14-.83.01-.07.03-.13.02-.15l.08-.32c.04-.16.07-.31.12-.49,0-.01.04-.15.04-.16l.26-.85c.07-.22.16-.45.24-.67l.05-.13c.1-.25.2-.51.33-.79,0-.02.04-.1.05-.11l.06-.14s.04-.1.05-.1l.16-.36c.08-.17.17-.34.25-.51l6.72-13.23.11-.21c.13-.25.27-.49.43-.77,0-.01.05-.09.06-.1l.36-.59c.08-.13.17-.26.26-.38l.07-.11s.06-.1.07-.1l.09-.14c.18-.26.37-.52.55-.75.02-.02.07-.09.09-.11l.38-.46c.08-.1.16-.2.24-.29.02-.02.1-.11.12-.13.18-.2.35-.38.53-.57l.27-.29s.09-.08.1-.1l.25-.24c.18-.17.37-.33.55-.49l.28-.23c.18-.15.37-.29.56-.43l.25-.18c.26-.18.52-.35.79-.5.18-.11.37-.21.54-.29.02,0,.12-.06.14-.07.13-.06.25-.12.38-.17.01,0,.03,0,.04-.02.26-.11.51-.19.77-.26.02,0,.06-.02.09-.03.02,0,.04,0,.05-.01.17-.04.33-.08.47-.1.02,0,.07-.01.11-.02.15-.02.29-.04.35-.04.02,0,.05,0,.08,0,.03,0,.05,0,.06,0h.15s.1,0,.11,0h.1s.04,0,.06,0c.1,0,.21.02.38.05l20.2,2.71c.29.03.58.03.92,0l.17-.02c.25-.03.5-.07.76-.14.04,0,.07-.02.1-.02.28-.08.57-.18.86-.3.3-.12.6-.27.9-.45.36-.21.72-.46,1.09-.74.1-.08.19-.16.28-.24l.11-.1c.21-.18.42-.37.63-.57l.15-.16c.26-.27.51-.55.8-.91.02-.02.05-.06.07-.08.3-.39.59-.8.85-1.22.57-.92,1.14-1.82,1.76-2.78l.06-.09s.06-.09.06-.1c.72-1.12,1.43-2.22,2.15-3.32l2.65-4.04c.24-.36.46-.73.67-1.14.2-.37.37-.74.53-1.11,0,0,.04-.09.04-.09.15-.35.27-.71.38-1.04l.05-.16c.11-.35.2-.71.28-1.07.01-.06.02-.12.03-.16.01-.05.02-.11.03-.16l16.35,9.5c.01.09.03.19.03.29v.21c0,.13,0,.26,0,.39,0,.07,0,.15-.02.24,0,.01,0,.06,0,.1-.01.1-.03.2-.05.3,0,.04-.01.09-.02.13,0,.02-.02.14-.03.17-.01.05-.03.1-.04.16-.03.14-.07.28-.11.43,0,.03-.05.17-.05.17l-.02.08c-.06.19-.14.39-.22.58l-.03.08s-.03.06-.04.1c-.1.24-.22.48-.34.72-.01.02-.02.04-.04.07-.14.26-.3.53-.47.79l-.31.47-.74,1.13c-.12.18-.24.37-.36.55l-1.26,1.92c-.14.21-.27.42-.41.63-.39.6-.78,1.2-1.17,1.81-.19.3-.38.58-.57.88l-.18.28c-.57.89-1.14,1.79-1.71,2.71-.01.02-.02.03-.03.05-.18.29-.37.56-.57.83,0,0,0,0,0,0-.19.24-.38.46-.58.67l-.07.08c-.15.15-.3.28-.45.41l-.25.22c-.21.17-.43.32-.65.45-.22.13-.43.22-.62.29-.04.01-.08.03-.12.04-.14.04-.25.06-.36.07h0s-.04,0-.04,0c0,0-.01,0-.02,0-.03,0-.06,0-.13,0l-4.74-.64-15.26-2.05s-.02,0-.02,0c-.26-.04-.52-.07-.78-.09,0,0,0,0-.01,0-.11,0-.22,0-.34,0h-.16s-.02,0-.03,0c-.09,0-.18,0-.27,0,0,0-.02,0-.02,0-.04,0-.07,0-.11.01-.24.01-.48.04-.73.07-.02,0-.04,0-.05,0,0,0-.11.02-.11.02-.04,0-.07.02-.11.02-.22.04-.44.09-.67.14-.02,0-.05,0-.07.01l-.23.07c-.17.05-.33.1-.5.16-.14.05-.28.1-.41.15-.08.03-.15.06-.23.09,0,0-.02,0-.03,0-.01,0-.03.01-.04.02-.16.07-.33.14-.49.22h0s-.06.03-.09.04h0s-.01,0-.02,0c-.05.03-.1.05-.16.07,0,0-.01,0-.02,0-.26.13-.52.27-.79.42-.35.2-.71.43-1.05.67,0,0-.02.01-.02.02-.08.06-.17.12-.25.18l-.06.04c-.24.17-.48.36-.72.55l-.05.04c-.09.07-.17.14-.26.22l-.05.04c-.23.2-.46.4-.68.61l-.12.11c-.05.05-.11.1-.16.15l-.04.04c-.12.11-.23.23-.34.35l-.11.12c-.06.06-.11.12-.17.18-.15.16-.3.31-.45.48-.01.02-.03.03-.04.04-.2.23-.4.46-.59.7l-.22.27s-.03.04-.04.05l-.04.05c-.28.36-.56.73-.81,1.1l-.05.07s-.04.06-.06.09l-.04.05c-.23.34-.46.69-.67,1.04,0,0-.04.07-.06.09-.29.49-.58.98-.84,1.49l-6.7,13.18c-.08.16-.16.33-.24.49-.09.18-.18.36-.27.55,0,.02-.01.03-.02.04-.16.36-.31.71-.45,1.06-.04.09-.08.18-.11.27v.03c-.14.34-.26.68-.37,1.02,0,.02-.01.03-.02.05h0c-1.07,3.31-1.23,6.44-.5,8.94.01.05.04.15.05.19.02.05.03.1.05.15l-15.01-11.08s-.08-.05-.12-.08ZM52.44,327.72c-.1-.06-.22-.15-.43-.32-.12-.11-.22-.22-.32-.35l-1.6,1.2,1.54-1.29c-.12-.16-.22-.32-.3-.47-.1-.19-.17-.39-.26-.62,0,0-.03-.09-.04-.09-.07-.22-.13-.46-.19-.74,0,0-.02-.1-.02-.1-.05-.27-.09-.54-.11-.83,0-.02,0-.04,0-.05-.02-.29-.02-.59-.01-.9,0,0,0-.19,0-.2.01-.33.04-.66.08-1,0-.02,0-.05,0-.08,0-.05.02-.11.02-.13.04-.32.1-.64.17-.98v-.06s.02-.04.02-.05c.06-.27.12-.55.2-.84l3.6-13.47.17-.58c.04-.12.07-.24.11-.36,0-.02.03-.09.03-.1l.29-.8c.05-.13.1-.25.16-.38l.15-.35s.01-.03.02-.05c.1-.24.21-.48.33-.71.02-.04.05-.1.06-.11,0-.01.05-.1.06-.11.08-.17.16-.33.24-.47,0,0,.05-.1.06-.1l.16-.29s.05-.09.05-.1l.15-.27s.05-.08.06-.1l.88-1.37s.07-.09.08-.11c.1-.14.21-.28.3-.41l.16-.22s.07-.08.08-.1c.17-.22.35-.43.53-.64.01-.02.06-.07.08-.09,0-.01.02-.02.03-.03.27-.31.54-.59.82-.87.02-.02.09-.09.11-.11.01-.01.1-.09.11-.1.13-.12.26-.24.38-.36,0,0,.08-.07.08-.07l.19-.17c.13-.11.27-.22.4-.33,0,0,.08-.06.08-.06l.17-.14c.15-.11.29-.21.44-.32l.22-.16c.22-.15.44-.28.65-.41.31-.18.64-.34,1.02-.5.05-.02.09-.04.14-.07.21-.08.42-.16.63-.22.03,0,.07-.02.1-.03l23.21-8.24c.1-.04.19-.08.29-.13.36-.19.69-.4,1.02-.61l.29-.2c.23-.16.45-.32.66-.48.1-.08.21-.16.3-.24.22-.18.44-.37.69-.61l.16-.15c.27-.26.53-.54.74-.79.01-.01.07-.08.08-.09.23-.27.45-.55.64-.82,0-.01.06-.08.07-.09.22-.31.42-.63.61-.95,0-.01.01-.02.02-.03.18-.31.34-.63.49-.94,0,0,.04-.1.05-.11.15-.33.29-.66.42-1.01.67-1.87,1.37-3.78,2.13-5.74.71-1.83,1.44-3.69,2.2-5.5.16-.39.3-.77.42-1.18,0,0,.03-.11.04-.12.11-.36.19-.71.25-1.03.02-.08.03-.16.05-.29.03-.18.06-.35.08-.53l1.8,1.05,14.13,8.21s.03.04.05.05c0,.01.02.02.03.04.03.05.06.09.08.13.02.04.04.09.06.14.02.07.05.14.06.21,0,.02,0,.03.01.05,0,.03.01.06.01.07.03.12.04.25.06.38,0,.04,0,.07.01.11,0,.17,0,.34,0,.58v.1s-.02.11-.02.12l-.1.63c-.04.19-.09.39-.15.59h0s-.03.08-.03.1c0,0-.01.04-.02.06-.08.24-.17.49-.28.76-1.53,3.7-3.01,7.54-4.39,11.42-.09.23-.18.46-.29.68h0s0,0,0,0c-.12.26-.25.51-.39.76-.02.03-.03.05-.05.08-.11.19-.24.38-.37.56-.01.02-.03.04-.03.05-.02.03-.05.07-.07.1-.12.17-.25.33-.39.48,0,0-.01.01-.02.02-.01.02-.03.04-.05.06,0,0-.01.01-.02.02-.14.16-.3.32-.45.47-.03.03-.06.05-.07.07-.01.01-.09.08-.1.09-.14.13-.29.26-.44.39l-.21.17c-.15.12-.31.23-.48.35,0,0-.08.06-.08.06l-.13.09c-.2.13-.4.26-.62.38l-23.01,8.17c-.34.1-.71.24-1.15.43,0,0,0,0-.01,0-.12.05-.24.11-.37.17-.37.17-.72.34-1.04.53,0,0-.01,0-.02,0-.3.17-.6.36-.89.56,0,0,0,0,0,0l-.18.13c-3.78,2.61-6.98,7.14-8.45,12.01l-.07.25c-.05.16-.1.32-.14.47l-1.31,4.91-2.29,8.54s0,.02,0,.03c-.09.34-.17.67-.25,1.01l-.03.15c-.01.06-.02.11-.03.16-.04.23-.08.45-.12.67-.02.13-.05.27-.07.39l-.04.29c0,.06,0,.12-.02.19-.03.23-.04.46-.06.69-.01.15-.03.31-.04.46v.25s0,.08,0,.13c0,.21,0,.41.01.61,0,.2,0,.4.01.59v.03s-14.52-8.44-14.52-8.44ZM43.6,403.92c-1.1-.64-1.73-2.21-1.73-4.32l-.04-12.08c0-.27.01-.55.04-.83l.06-.64s.03-.14.03-.18c.04-.29.09-.58.14-.85,0-.02.02-.12.03-.19,0-.02,0-.03.01-.04.02-.11.05-.22.08-.34l.15-.6s.03-.11.04-.12l.09-.3c.04-.15.09-.29.14-.44,0-.02.03-.09.04-.11l.91-2.22c.11-.23.22-.45.36-.71l-.03.05s.02-.03.03-.05c.01-.02.02-.04.03-.06,0,.02-.02.04-.03.06.02-.04.04-.08.05-.09.12-.21.23-.43.38-.67,0-.01.06-.09.07-.11l1.67-2.4c.12-.14.23-.29.36-.44l.26-.3c.19-.22.39-.42.59-.63l.15-.17s.11-.1.13-.12c.18-.18.37-.35.55-.5l.27-.24c.28-.23.56-.46.89-.7l23.38-17.85c.32-.25.64-.53.94-.83.27-.27.53-.55.78-.84l.14-.17c.23-.28.45-.57.66-.87,0,0,.06-.09.06-.09.21-.31.41-.64.59-.95l.07-.12c.18-.33.35-.67.51-1.01,0,0,.04-.09.05-.1.16-.36.3-.72.41-1.04.01-.03.03-.08.04-.11.12-.35.22-.71.32-1.12,0-.02.03-.1.03-.12.08-.39.15-.77.19-1.12.14-1.07.28-2.11.42-3.15l16.81,1.02c.07,0,.11.01.14.02h0s.03.04.04.05c0,0,.02.02.04.04.02.03.04.07.04.08l.06.13s.03.1.04.11c.02.07.05.14.06.2l.04.21c.02.09.03.19.04.29,0,0,0,.01,0,.02,0,.07.01.15.02.26,0,.12.01.25.01.4,0,.11,0,.23,0,.34,0,.15-.01.31-.03.47,0,0,0,0,0,0,0,0,0,0,0,.01-.01.13-.02.27-.04.4v.03c-.03.26-.06.53-.12.83-.48,3.25-.9,6.25-1.32,9.44,0,0,0,.03,0,.06-.03.24-.07.48-.12.72l-.02.1s0,.03-.01.06c-.05.22-.12.44-.19.66-.01.03-.02.06-.02.07-.01.03-.02.06-.03.09-.07.21-.16.41-.24.62l-.05.11s-.04.09-.04.1c-.09.19-.19.38-.29.57l-.02.03s-.06.11-.07.12c0,0-.02.03-.03.06-.1.17-.21.34-.32.51l-.1.15s-.04.07-.05.08c-.11.16-.23.31-.35.46l-.2.24s-.01.02-.02.03c-.08.09-.16.18-.25.27-.08.09-.16.18-.24.26-.2.19-.4.37-.58.52l-23.31,17.79s-.03.02-.05.04c-.35.25-.69.53-1.03.81,0,0,0,0,0,0-.09.08-.18.16-.27.24l-.07.06s0,0,0,0c-.27.24-.53.48-.79.73-.04.04-.09.09-.14.14-3.46,3.45-5.96,8.33-6.6,12.94,0,0,0,0,0,0-.03.24-.06.48-.09.79,0,.03,0,.05,0,.08-.04.45-.06.89-.07,1.33l.03,12.09c0,.34.01.68.03,1.01l-14.54-8.45ZM56.2,466.6c-.39-.33-.7-.8-.94-1.41l-3.67-9.3c-.08-.21-.16-.46-.24-.78l-.05-.23c-.05-.24-.09-.48-.11-.74,0-.02-.02-.17-.02-.18-.03-.32-.04-.66-.03-1v-.25c.02-.29.05-.58.08-.88,0-.06.01-.11.01-.18,0-.05.02-.1.02-.13.04-.29.09-.57.15-.86l.03-.16s0-.03,0-.04c.03-.15.07-.3.11-.45l.1-.41s.02-.07.03-.1l.09-.3c.05-.18.1-.36.16-.53,0,0,.03-.09.03-.1l.74-1.86s.04-.09.04-.1l.13-.28c.12-.24.24-.48.38-.75,0-.01.06-.1.06-.11.1-.19.21-.38.36-.65,0-.01.05-.08.06-.09l1.4-2.06c.2-.26.4-.51.64-.79l20.68-25.21c.14-.18.26-.36.39-.54l14.67-5.75,2.57,1.5c.03.19.06.39.09.58.05.32.1.64.15.97.07.42.13.84.2,1.27.05.33.11.66.16.99.08.45.16.91.24,1.36.05.29.1.57.16.86.14.73.29,1.45.45,2.16.03.14.03.29.04.44,0,.06,0,.12,0,.2v.18c-.01.16-.02.32-.04.53,0,.04,0,.08,0,.12,0,0,0,0,0,0-.02.13-.04.26-.07.39l-.02.1s0,0,0,.02c-.02.11-.05.22-.08.33-.02.09-.05.18-.08.27l-.08.25c-.02.07-.05.13-.07.2-.05.13-.09.25-.15.38l-.03.07h0s-.03.09-.05.13h0c-.02.06-.05.12-.08.18-.08.18-.17.35-.26.53,0,0,0,.02-.01.03-.03.05-.06.11-.09.16-.11.19-.22.38-.34.56l-.11.16c-.13.2-.27.39-.42.58l-17.86,21.78-2.8,3.41c-.27.32-.53.64-.78.97,0,0,0,0-.01.01h0c-2.93,3.8-4.63,8.35-4.78,12.32,0,.09-.01.18-.01.27,0,.02,0,.05,0,.07-.01.98.07,1.93.26,2.81,0,0,0,0,0,0,.02.1.04.21.07.3,0,.02,0,.03.01.05.04.18.09.35.14.53.08.26.16.51.25.73l2.27,5.76-13.82-8.03c-.13-.07-.25-.16-.36-.26ZM82.08,503.15l-.09-.12c-.07-.09-.15-.19-.21-.29l-.11-.19c-.06-.11-.11-.22-.17-.33-.03-.07-.06-.15-.09-.22-.05-.13-.09-.26-.15-.46l-.05-.18c-.04-.17-.08-.35-.11-.52l-.04-.21c-.04-.26-.06-.54-.08-.83,0-.02,0-.14,0-.16,0-.23,0-.47,0-.73l.02-.32c.01-.21.03-.41.05-.6,0-.07.01-.13.02-.19l.03-.19c.04-.25.08-.51.13-.74.02-.08.03-.16.04-.24,0-.02.03-.13.04-.15.03-.14.07-.28.12-.49l.09-.36s.04-.11.04-.14l.68-1.93s.04-.1.04-.1l.06-.13s.04-.11.05-.12c.11-.25.22-.49.34-.75,0,0,.05-.09.05-.1l.06-.12c.08-.17.17-.34.26-.52l8.81-16.83,17.97-14.3c.35-.19,1.07-.51,1.46-.26.05.04.11.08.15.15,1.36,2.12,2.86,4.28,4.5,6.44h0c.04.06.08.13.12.21l.05.15c.03.09.07.19.09.3l.03.19c.02.12.03.25.04.38,0,.09,0,.17,0,.26h0c0,.16-.01.3-.03.46,0,.06,0,.12,0,.16,0,.04,0,.07-.01.11l-.05.3s-.01.07-.02.11c-.03.13-.06.27-.1.41,0,.03-.01.06-.02.08-.01.04-.03.08-.03.1-.02.05-.03.11-.05.16-.05.16-.1.33-.17.49-.01.03-.02.06-.03.08l-.06.14c-.09.23-.19.45-.31.69l-15.41,29.46c-.19.35-.37.7-.57,1.08l-.08.16s0,0,0,0c-.05.11-.1.22-.15.33-.11.25-.23.49-.34.74l-.04.09c-.09.2-.16.4-.24.6-.05.13-.11.27-.16.4l-.07.19c-.06.15-.11.31-.16.46-.05.16-.11.33-.17.53l-.11.37s0,0,0,0c-.04.13-.07.26-.11.4,0,.03-.02.06-.02.09l-.05.19c-.04.18-.09.35-.13.53,0,.02,0,.04-.01.06-.02.11-.04.21-.06.32,0,.03,0,.04-.01.07-.01.05-.02.11-.03.16-.06.3-.11.61-.15.91-.02.12-.03.24-.05.36-.02.16-.03.33-.04.49,0,.1-.02.2-.03.3,0,.02,0,.04,0,.06v.12c-.02.1-.02.21-.03.3,0,.16,0,.33,0,.49,0,.06,0,.13,0,.19,0,.11,0,.22,0,.34,0,.07,0,.14,0,.22,0,.16.03.31.04.46,0,.02,0,.04,0,.06.02.21.03.44.06.64.01.1.03.19.06.33.02.15.05.3.08.44l-8.44-4.9-6.63-5.31c-.12-.1-.24-.22-.34-.35ZM129.32,524.53c-.1-.06-.22-.14-.36-.26,0,0-.08-.07-.08-.07-.12-.11-.23-.23-.3-.33-.01-.02-.05-.08-.07-.09-.1-.13-.18-.27-.26-.42,0,0-.05-.08-.05-.09-.09-.18-.17-.38-.24-.57l-.05-.15c-.07-.23-.14-.46-.19-.73-.05-.26-.08-.54-.11-.89v-.13c-.03-.3-.04-.6-.02-.95,0-.01,0-.11,0-.12.01-.3.04-.61.08-.93,0-.03,0-.08.01-.13,0-.03,0-.05.01-.07.04-.34.1-.68.17-.99.01-.06.03-.12.03-.16l.04-.17c.04-.19.09-.39.15-.61,0-.01.03-.12.03-.13.04-.16.09-.31.15-.52l2.3-8.38,11.8-14.99c.6-.76,1.27-1.37,1.95-1.76.69-.4,1.22-.47,1.51-.34,1.99.85,4.16,1.69,6.89,2.66.15.05.29.24.39.53,0,0,0,0-.01,0,.02.05.03.1.04.15,0,0,.01.05.02.08,0,.03.01.06.02.09.01.06.02.11.03.15.01.08.02.18.02.27,0,0,0,.01,0,.01,0,.14,0,.29,0,.52,0,0,0,.11-.01.12v.15c-.02.09-.03.18-.05.27l-.04.21s0,.04,0,.06c-.04.18-.07.36-.13.55l-8.33,30.29s-.01.04-.02.07c-.07.24-.13.47-.2.69-.06.22-.11.43-.16.65-.03.11-.05.22-.08.34l-.03.12c-.06.29-.1.58-.15.87-.03.18-.07.37-.09.55l-.02.15c-.03.24-.04.47-.06.71-.02.21-.04.42-.05.62,0,.04,0,.08,0,.1,0,.25,0,.49.01.73,0,.22,0,.45.02.67v.06s-14.53-8.45-14.53-8.45ZM187.43,517.53c-1.23-.72-1.88-2.5-1.78-4.97l.06-6.16,3.02-6.04c.82-1.65,1.92-2.78,3.54-3.61,3-.31,5.14-.7,8.87-1.41.19-.04.45-.06.61.06.03.02.06.06.09.09.02.03.04.04.06.08.02.04.04.09.07.14.02.05.05.1.07.17.02.05.03.12.04.17.02.08.04.16.06.26.02.17.04.35.04.55l-.29,27.39s0,.08,0,.12c-.02.49,0,.97.03,1.44,0,.05,0,.1,0,.14l-14.49-8.42ZM249.89,483.54c-.3-.18-.58-.42-.81-.73-.27-.35-.48-.79-.67-1.37l-1.3-3.56,8.14-4.7c.16-.09.31-.16.45-.22l1.66.96,6.46,17.72-13.93-8.09ZM328.93,438.08s-.08-.07-.12-.11l-15.28-12.75c-1.53-1.29-3.36-1.38-5.3-.26-.75.43-1.52,1.04-2.4,1.9l-.21.21c-2.57,2.63-5.01,5.11-8.38,8.36-2.43,2.32-4.05,5.88-4.01,8.89l.44,27.18c.21,4.73-2.79,10.79-6.98,14.09l-10.45,8.13c-.43.34-.88.65-1.36.93-1.7.98-3.26,1.27-4.4.83-.18-.07-.33-.16-.49-.27-.06-.04-.12-.09-.18-.13-.12-.1-.23-.2-.33-.32-.04-.04-.08-.09-.12-.13-.13-.17-.26-.36-.37-.58,0,0,0-.01-.01-.02-.12-.24-.23-.51-.33-.81l-7.77-21.33s0,0,0,0v-.02c-.52-1.37-1.51-2.37-2.77-2.82-1.46-.52-3.18-.27-4.85.69l-8.95,5.17c-2.73,1.57-4.95,4.58-5.81,7.88l-7.66,30.37c-1.1,4.72-4.42,9.49-8.08,11.6-.45.26-.9.47-1.34.64l-10.4,3.91c-.99.36-2.37.62-3.45-.07-.08-.05-.16-.11-.24-.18-.06-.05-.12-.1-.18-.16-.07-.07-.13-.14-.19-.21-.06-.07-.12-.15-.18-.23-.05-.06-.09-.13-.13-.2-.06-.1-.12-.21-.18-.32-.03-.05-.05-.11-.07-.16-.06-.14-.12-.29-.17-.44,0-.03-.02-.06-.03-.09-.06-.19-.11-.38-.15-.58,0,0,0,0,0,0-.09-.45-.15-.95-.17-1.48,0-.07,0-.15,0-.23,0-.2,0-.4,0-.61l.29-27.43h0c0-.26-.01-.52-.03-.77,0-.08-.02-.15-.03-.23-.02-.17-.04-.34-.08-.51-.02-.08-.03-.15-.05-.23-.04-.16-.08-.32-.13-.47-.02-.07-.05-.13-.07-.2-.06-.16-.12-.31-.19-.46-.03-.06-.05-.11-.08-.16-.08-.16-.16-.3-.26-.45-.03-.04-.05-.08-.07-.12-.11-.16-.23-.32-.35-.46-.01-.02-.02-.03-.04-.05-.15-.17-.31-.33-.48-.47-.16-.13-.34-.25-.52-.36,0,0,0,0-.01,0,0,0,0,0,0,0-.98-.59-2.17-.78-3.41-.53-3.82.73-5.82,1.09-8.86,1.39-.23.02-.45.08-.66.18-2.61,1.24-4.42,3.02-5.69,5.59l-15,30c-1.58,3.4-4.1,6.34-6.73,7.86-1.28.74-2.51,1.09-3.51,1l-9.2-.79c-.44-.04-.82-.16-1.16-.35-.03-.02-.07-.05-.1-.07-.11-.07-.22-.15-.32-.25,0,0,0,0,0,0-.04-.04-.07-.07-.1-.1-.1-.1-.19-.21-.28-.34-.06-.09-.12-.18-.17-.27-.06-.1-.12-.21-.17-.32-.06-.13-.12-.27-.17-.41-.03-.08-.06-.16-.08-.24-.06-.19-.11-.38-.15-.58-.02-.09-.04-.18-.05-.27-.03-.21-.06-.43-.08-.67,0-.08-.01-.16-.02-.24-.01-.24-.02-.5-.01-.76,0-.11,0-.22,0-.33.01-.22.03-.44.05-.67.02-.17.03-.34.06-.52.03-.18.06-.36.09-.54.04-.21.08-.43.12-.64v-.02c.03-.1.05-.2.08-.29.08-.31.16-.62.25-.93,0-.02,0-.03.01-.04l8.34-30.35c.06-.22.12-.45.17-.68.02-.08.03-.16.04-.25.02-.12.04-.23.07-.38v-.02s.02-.09.03-.14v-.07c.03-.11.03-.23.04-.34v-.17c.02-.09.03-.17.03-.25,0-.07,0-.14,0-.21,0-.17,0-.33,0-.49,0-.04,0-.08,0-.11,0,0,0,0,0,0,0,0,0,0,0,0-.11-2.41-1.24-4.24-3.2-4.89-2.6-.93-4.7-1.74-6.55-2.53-.6-.28-1.25-.42-1.93-.42-1.03,0-2.12.32-3.21.94-1.11.64-2.17,1.59-3.09,2.75l-20.33,25.82c-1.37,1.85-2.95,3.31-4.55,4.24-.9.52-3.07,1.57-4.64.64-.01,0-.02-.02-.04-.03-.09-.06-.18-.12-.27-.19l-4.82-3.86-1.93-1.54h0c-.09-.08-.18-.17-.27-.26-.02-.03-.05-.05-.07-.08l-.09-.12c-.07-.09-.15-.19-.21-.29l-.05-.08c-.06-.1-.11-.2-.16-.3-.02-.04-.04-.09-.06-.13,0,0,0,0,0,0-.06-.15-.12-.31-.17-.47-.01-.03-.02-.06-.03-.1-.05-.18-.1-.37-.14-.56,0-.02,0-.04-.01-.06-.16-.83-.2-1.81-.09-2.88,0-.05,0-.09.01-.14.02-.19.05-.38.08-.57.03-.17.06-.35.09-.53.04-.2.08-.4.12-.6.01-.06.03-.13.05-.2.06-.23.12-.46.19-.69l.09-.29c.07-.23.15-.46.23-.7l.07-.18c.1-.28.21-.56.33-.85l.03-.07c.13-.3.27-.6.41-.9.01-.03.02-.05.04-.08,0-.01.05-.1.06-.11,0-.01.01-.02.02-.03.15-.3.3-.59.47-.89l15.4-29.44s0,0,0,0v-.02s.01,0,.01,0c.01-.03.03-.07.04-.07l.08-.16c.08-.17.16-.34.24-.51.06-.13.11-.26.18-.43.02-.03.03-.07.04-.1h0s0-.03.01-.04c.06-.17.13-.34.18-.51.06-.17.11-.34.16-.52.01-.03.02-.07.03-.1,0-.03.01-.06.02-.09.01-.05.02-.1.04-.15.04-.15.08-.31.11-.45.02-.09.03-.17.05-.29l.05-.29c.01-.07.02-.13.03-.2,0-.04.01-.08.02-.12.01-.12.02-.23.02-.3,0-.06,0-.12.01-.18.02-.3.04-.59.03-.87,0-.08,0-.16,0-.23,0-.11-.01-.22-.03-.34-.02-.19-.04-.37-.07-.55-.02-.12-.04-.25-.06-.35,0-.04-.02-.08-.03-.11-.06-.24-.12-.47-.21-.69,0-.01,0-.02,0-.03-.04-.12-.08-.24-.13-.36-.01-.02-.02-.04-.03-.07-.05-.11-.11-.21-.16-.32-.14-.26-.28-.49-.43-.68-1.55-2.05-3-4.12-4.3-6.16-.2-.3-.42-.56-.66-.8-.06-.05-.12-.1-.18-.15-.2-.17-.4-.34-.62-.47-.02-.01-.04-.04-.07-.05l-.31-.18s-.01.02-.02.03c-1.49-.71-3.38-.58-5.24.49-.09.05-.17.11-.25.17l-24.16,19.24c-.63.54-1.27,1-1.9,1.36-1.6.92-3.15,1.23-4.25.85-.18-.06-.34-.15-.5-.25-.04-.03-.08-.06-.12-.09-.11-.08-.22-.17-.32-.28-.04-.04-.09-.09-.13-.14-.09-.11-.18-.23-.26-.35-.03-.05-.07-.1-.1-.16-.11-.19-.21-.39-.3-.61l-3.67-9.3c-.06-.15-.11-.31-.15-.47-.03-.1-.06-.19-.08-.31l-.05-.23c-.05-.24-.09-.48-.11-.75,0-.01-.02-.16-.02-.18-.03-.32-.04-.66-.03-1v-.12s.01-.12.01-.13c.01-.29.04-.58.07-.87l.04-.31c.04-.29.09-.57.15-.86l.04-.21c.03-.15.07-.29.11-.44l.2-.76c.05-.17.11-.35.16-.52.03-.09.06-.18.09-.27l.06-.18c.04-.12.09-.24.13-.35.07-.17.13-.34.2-.52l.03-.06s.03-.07.04-.1c.12-.29.25-.57.39-.86,0-.02.02-.04.03-.06.3-.61.63-1.22.99-1.82h0c.37-.61.78-1.21,1.22-1.78.21-.28.43-.55.69-.85l20.68-25.21s0-.01.01-.02l.1-.13c.13-.17.26-.35.4-.54l.21-.31h0s.05-.07.08-.11c.02-.02.05-.07.06-.09.1-.16.2-.32.3-.49.07-.13.14-.25.23-.41.01-.02.02-.04.03-.06,0,0,0-.02.01-.02,0-.01.01-.02.02-.04,0,0,0-.02.01-.02.08-.15.15-.29.22-.43.08-.17.16-.35.26-.57,0-.01.04-.1.04-.11v-.03s.02-.02.03-.04l.12-.3c.07-.19.14-.37.2-.55,0,0,.05-.17.06-.18l.04-.14c.03-.1.06-.2.09-.29.07-.23.12-.47.17-.7,0-.05.02-.11.03-.16.05-.25.09-.49.13-.75,0-.07.01-.13.02-.2,0-.08.01-.15.02-.23,0-.03,0-.07,0-.1,0-.16.02-.33.02-.52,0-.12,0-.24,0-.34,0-.07,0-.12-.01-.19,0-.03,0-.06,0-.09-.02-.35-.05-.68-.11-.98,0-.02,0-.03,0-.05,0,0,0,0,0,0-.2-.9-.39-1.83-.56-2.78-.38-2.06-.7-4.18-.99-6.12,0,0,0-.01,0-.02-.22-1.73-1.04-3.1-2.31-3.86-1.28-.77-2.87-.84-4.5-.2l-23.36,9.15s-.06.03-.1.04c-1.55.7-2.91.77-3.85.2-.07-.04-.14-.1-.21-.15-.06-.04-.12-.09-.17-.14-.06-.06-.12-.12-.18-.19-.05-.06-.11-.12-.16-.18-.05-.06-.09-.14-.14-.21-.05-.08-.1-.15-.15-.24-.04-.07-.07-.14-.1-.21-.05-.1-.1-.2-.14-.31-.03-.07-.05-.14-.07-.22-.04-.12-.08-.24-.12-.36-.02-.08-.03-.16-.05-.25-.03-.13-.06-.26-.08-.39-.02-.11-.03-.22-.04-.34-.01-.12-.03-.23-.04-.36-.02-.24-.03-.49-.03-.75l-.03-12.09c0-.28.01-.56.04-.84l.03-.26c.02-.18.04-.36.06-.54.04-.29.09-.58.14-.85l.04-.23c.03-.13.06-.25.09-.38l.07-.3c.02-.1.05-.2.1-.38l.05-.16c.07-.23.14-.45.21-.68l.11-.29c.08-.21.15-.42.24-.63l.12-.3c.09-.21.18-.42.27-.62l.12-.27c.14-.29.28-.58.42-.84,0-.01.04-.08.05-.09.14-.26.29-.52.45-.78l.16-.26c.12-.19.24-.38.36-.57l.21-.31c.12-.17.24-.33.36-.5l.25-.34c.1-.14.21-.27.33-.41.12-.15.24-.3.36-.44l.27-.3c.19-.21.38-.42.64-.67.08-.08.16-.16.24-.24.17-.16.34-.32.52-.48.11-.1.22-.2.33-.29.06-.05.12-.09.17-.14.22-.18.45-.36.68-.53l23.38-17.84c.33-.26.64-.54.94-.83,0,0,0,0,0,0,.22-.22.44-.45.66-.7l.07-.09c.08-.09.15-.18.23-.28,0,0,0,0,0,0l.16-.2c.1-.13.21-.28.33-.45.1-.14.19-.28.29-.42l.11-.16c.1-.16.21-.33.31-.5h0c.04-.07.08-.13.12-.2.58-.9,1.91-1.17.98-1.71-.05-.03-.1-.06-.15-.08,0,0,0-.02.01-.03.03-.08.05-.15.08-.23.06-.16.12-.33.17-.49.05-.15.09-.3.13-.43.03-.11.06-.22.08-.33h0c.02-.1.05-.19.07-.29,0-.03.01-.06.02-.08.06-.3.12-.59.15-.88l.02-.13c.1-.79.21-1.58.31-2.35.31-2.33.64-4.6.99-7,0-.02,0-.03,0-.05.04-.23.07-.46.1-.69l.02-.19c.03-.22.05-.44.06-.65h0c.17-2.11-.11-3.74-.87-4.94-.02-.03-.03-.06-.05-.08-.06-.09-.12-.17-.18-.25-.03-.04-.05-.08-.08-.11-.03-.04-.08-.07-.11-.12,0,0,0,0,0,0-.08-.1-.16-.19-.25-.28-.06-.06-.12-.11-.18-.16-.05-.04-.09-.08-.14-.12,0,0,0,0,0,0,0,0,0,0,0,0-.67-.53-1.49-.84-2.4-.89l-20.75-1.26s-.07,0-.1,0c-.68,0-1.24-.19-1.7-.55-.04-.03-.08-.06-.13-.1-.14-.12-.27-.25-.39-.41-.01-.01-.02-.03-.03-.04h0s-.06-.1-.09-.15c-.08-.12-.16-.24-.23-.37-.09-.18-.16-.36-.24-.57,0,0-.04-.11-.04-.11-.07-.22-.13-.45-.18-.71l-.03-.14c-.05-.26-.09-.53-.11-.82,0,0,0-.01,0-.02,0,0,0,0,0-.01-.02-.3-.02-.61-.02-.92,0,0,0-.19,0-.2.01-.33.04-.66.08-1l.02-.12c0-.07.02-.15.04-.23.04-.27.08-.54.14-.82.07-.32.14-.65.23-.98l3.6-13.47s0,0,0,0c.14-.53.31-1.06.51-1.59l.06-.16c.19-.5.4-1,.63-1.48.03-.07.06-.13.1-.21.22-.45.45-.88.7-1.31.03-.05.06-.1.08-.15l.15-.24c.21-.35.44-.69.67-1.02.05-.07.1-.14.15-.21.07-.09.14-.2.23-.31.2-.27.41-.53.62-.79.08-.09.15-.19.24-.29,0,0,.09-.11.1-.12.16-.18.33-.36.5-.53.13-.14.26-.29.4-.42l.14-.14c.09-.09.19-.17.28-.26.3-.27.6-.54.91-.78l.11-.09s.1-.07.15-.11c.38-.28.76-.55,1.15-.77,0,0,0,0,0,0,0,0,.01,0,.02-.01.23-.13.46-.24.69-.35.1-.05.19-.09.3-.14.12-.05.23-.09.35-.13.14-.05.29-.12.43-.16.03,0,.07-.02.1-.03l23.21-8.24c.1-.04.19-.08.29-.13.43-.23.84-.49,1.24-.76l.08-.05c.23-.16.45-.32.67-.48,0,0,0,0,0,0,.06-.04.11-.09.17-.13.04-.03.09-.07.13-.1.22-.18.43-.37.66-.58,0,0,0,0,0,0,.02-.02.04-.03.05-.05.04-.04.07-.07.08-.07.03-.02.09-.08.11-.1.24-.23.46-.47.67-.72l.04-.05s.04-.05.05-.05c.13-.15.25-.3.38-.46.09-.12.19-.25.29-.4.02-.02.05-.07.07-.09.1-.15.21-.3.3-.45.09-.14.18-.29.27-.43,0-.01.01-.03.02-.04.08-.13.15-.27.23-.41.08-.15.15-.29.26-.53,0-.01,0-.02.01-.03.02-.03.06-.14.07-.14l.1-.22c.07-.15.13-.31.2-.47l.1-.26c.67-1.89,1.38-3.8,2.1-5.69.73-1.9,1.48-3.77,2.22-5.56l.14-.35c.07-.19.14-.37.2-.56l.11-.37c.02-.06.04-.11.05-.17l.02-.07c.06-.23.12-.45.17-.72l.05-.28c.02-.12.04-.25.06-.37,0-.06.02-.11.03-.17,0,0,0,0,0-.01.01-.11.02-.22.03-.33l.03-.32s0-.03,0-.05c.01-.24,0-.46,0-.69,0-.1,0-.2,0-.3l-.02-.18s0-.04,0-.06c-.01-.13-.03-.25-.04-.38-.02-.15-.05-.3-.08-.46l-.04-.19s-.02-.05-.02-.07c-.06-.21-.13-.41-.21-.61-.04-.1-.06-.2-.1-.3-.02-.04-.04-.09-.07-.13,0-.02-.02-.03-.03-.05-.07-.14-.16-.27-.24-.41-.06-.09-.11-.2-.17-.29-.05-.07-.1-.14-.17-.23,0,0,0,0,0,0-.04-.04-.08-.08-.11-.12-.21-.24-.42-.45-.65-.62,0,0,0,0-.01,0,0,0,0,0,0,0l-15.59-11.51s-.08-.05-.11-.08c-.09-.06-.17-.13-.25-.2-.05-.04-.09-.08-.15-.13,0,0-.07-.07-.07-.08-.08-.08-.16-.17-.24-.28-.02-.02-.03-.04-.04-.06-.03-.05-.06-.1-.1-.15-.06-.09-.11-.18-.17-.3,0,0,0,0,0,0-.13-.26-.25-.55-.34-.87-.05-.19-.1-.38-.14-.57,0-.01,0-.02,0-.03l-.04-.25c-.03-.19-.05-.39-.07-.59l-.02-.29c-.01-.23-.01-.46,0-.7v-.24c.02-.33.04-.66.1-1.08l.02-.15c.04-.28.09-.56.15-.85.03-.15.06-.29.1-.44.04-.16.08-.32.12-.47.05-.18.1-.37.16-.55l.11-.36c.08-.26.18-.52.28-.78,0,0,.04-.12.05-.13.11-.3.24-.6.38-.93l.11-.23c.13-.29.27-.58.42-.87l6.7-13.18c.2-.38.41-.76.63-1.12,0,0,.05-.09.05-.09l.06-.09s.06-.1.09-.14c.16-.26.32-.51.49-.75,0,0,.1-.15.11-.17.01-.01.02-.03.03-.04.21-.31.44-.61.65-.88l.25-.31c.16-.2.33-.39.49-.58.18-.2.36-.38.54-.57l.14-.14c.08-.08.16-.16.23-.24l.26-.24c.18-.17.36-.33.54-.48l.28-.24c.18-.15.37-.29.56-.42l.24-.17c.27-.18.53-.36.8-.51.35-.2.7-.37,1.04-.52,0,0,0,0,0,0,1.03-.43,2-.59,2.85-.44l20.14,2.7s.03,0,.04,0h.02s0,0,0,0c.06,0,.15.01.18.02.18.01.36.01.55,0,.05,0,.1,0,.14-.01.02,0,.04,0,.06,0h.14c.05-.02.19-.03.24-.04.15-.02.31-.06.5-.1,0,0,0,0,.01,0,0,0,0,0,0,0,.04,0,.09-.02.13-.03,0,0,0,0,.01,0,.27-.07.54-.17.81-.28.03-.01.05-.02.08-.03.26-.11.53-.25.79-.4.02-.01.04-.02.06-.03,0,0,0,0,.01,0,.35-.2.71-.45,1.07-.73.02-.02.04-.03.06-.05.08-.07.16-.14.29-.25l.1-.09c.18-.15.35-.3.49-.44.02-.02.09-.09.11-.11h0s.02-.03.03-.04l.17-.18c.12-.12.23-.24.34-.37.14-.16.28-.33.39-.48,0,0,.02-.02.03-.03,0,0,0-.01.01-.02.01-.01.02-.03.03-.04.13-.17.26-.34.38-.52.11-.16.22-.33.33-.5l.11-.17s.05-.08.07-.12c.79-1.28,1.59-2.53,2.39-3.76.39-.6.77-1.19,1.16-1.78.57-.88,1.14-1.75,1.71-2.61l1.12-1.71.23-.35s0,0,0,0l.1-.15c.11-.17.22-.35.31-.51.09-.15.17-.29.27-.49,0,0,0-.01,0-.02,0-.02.02-.03.02-.05.08-.14.15-.29.21-.42.08-.17.16-.34.23-.51,0,0,.04-.09.04-.1l.04-.09s.03-.07.04-.11l.1-.23c.07-.19.14-.37.2-.57l.04-.13s.03-.11.04-.12h0c.02-.05.03-.1.05-.15l.06-.19c.07-.24.12-.47.16-.64,0-.03.02-.1.03-.13l.03-.15s0,0,0-.01c0-.05.02-.1.03-.15.03-.17.07-.34.09-.51,0,0,0-.01,0-.02,0-.07.01-.14.01-.18.01-.1.02-.2.03-.3,0-.07,0-.14.01-.2.01-.2.02-.4.02-.6,0-.13,0-.27-.01-.4,0,0,0,0,0,0,0-.03,0-.06,0-.09-.02-.22-.04-.43-.08-.69-.01-.09-.03-.19-.05-.28,0-.01,0-.03,0-.04,0-.02-.01-.04-.02-.06-.08-.34-.16-.65-.28-.93,0,0,0,0,0-.01,0,0,0-.01,0-.02l-8.49-20.57s-.04-.09-.06-.13c0,0,0,0,0,0,0,0,0,0,0,0,0,0,0,0,0,0-.06-.13-.11-.27-.17-.41-.04-.12-.09-.24-.13-.4l-.05-.18c-.09-.33-.15-.64-.18-.92,0-.02-.01-.14-.01-.16-.03-.32-.05-.65-.05-.99,0,0,0-.11,0-.11v-.12c0-.39.04-.79.09-1.2l.04-.29c.04-.25.08-.5.13-.77.03-.13.05-.26.09-.41.04-.16.08-.33.12-.49.04-.17.09-.33.14-.52.04-.13.08-.25.11-.37.06-.19.13-.39.2-.6l.11-.3c.1-.27.21-.54.36-.9.13-.3.27-.59.4-.87l.13-.26c.1-.2.21-.4.31-.59.02-.04.04-.08.06-.12l.11-.2c.03-.06.07-.11.1-.17.14-.24.28-.48.44-.72.11-.18.24-.35.36-.53.08-.11.15-.22.23-.33l.13-.18s.06-.09.07-.09c.17-.23.34-.46.52-.68l9.12-11.36c.24-.29.48-.56.75-.84l.09-.1c.1-.11.2-.22.3-.33.12-.13.25-.24.38-.36.16-.15.32-.32.48-.46.15-.13.31-.25.46-.37.17-.13.33-.27.5-.4l.18-.13c.24-.17.48-.32.72-.47,0,.01.02.03.02.04.03.05.06.1.09.15.05.07.11.12.17.18.03.03.06.07.1.1.1.09.21.17.33.24l20.28,11.78s.01,0,.02.01c.04.02.08.04.13.06.07.04.13.07.2.1.07.04.15.08.22.11.02.01.05.02.07.03.07.03.15.05.22.08.07.03.14.05.21.07.05.02.1.04.15.05,0,0,.02,0,.03,0,.11.03.23.05.35.08.02,0,.05.01.07.02.04,0,.07.02.11.03,0,0,.01,0,.02,0,0,0,0,0,.01,0,.02,0,.05,0,.07,0,.12.02.24.03.36.04.05,0,.1.01.14.02,0,0,0,0,.01,0,0,0,0,0,0,0,.04,0,.09,0,.13,0,.02,0,.03,0,.05,0h0s.09,0,.13,0c.03,0,.07,0,.1,0,.05,0,.1,0,.14,0,0,0,0,0,.01,0,.06,0,.13-.01.19-.02.03,0,.06,0,.1,0,.03,0,.07,0,.1,0,.06,0,.11-.01.17-.02,0,0,0,0,0,0,0,0,0,0,0,0,.19-.03.37-.07.56-.12.02,0,.04,0,.06-.01,0,0,.02,0,.03,0,0,0,0,0,0,0,.16-.05.33-.11.49-.17.09-.03.17-.05.25-.09,0,0,0,0,0,0,0,0,0,0,0,0,0,0,0,0,.01,0,0,0,0,0,.01,0,.26-.11.52-.24.78-.39h0s0,0,0,0c.3-.18.6-.38.9-.6.08-.06.16-.15.25-.22.19-.15.37-.31.55-.48.01-.01.02-.02.04-.03,0,0,.02-.01.03-.02,0,0,0,0,0,0,0,0,0,0,0,0,0,0,0,0,0,0,0,0,0,0,0,0,.54-.55,1.26-1.28,2.06-2.09,2.2-2.23,5.02-5.1,6.55-6.67,0,0,0,0,0,0l.22-.21c.18-.18.36-.37.57-.61.02-.03.05-.05.07-.08.16-.19.32-.38.48-.58.07-.09.14-.19.21-.28l.1-.14s.05-.07.06-.09c.12-.17.23-.34.34-.5.1-.16.2-.32.3-.49.01-.02.02-.04.03-.05.08-.14.16-.28.24-.43.09-.16.17-.33.26-.5l.08-.18s.05-.11.06-.13l.08-.18c.08-.17.15-.35.22-.54l.07-.18h-.01s.03-.07.04-.11h0s0,0,0,0c.01-.03.03-.07.04-.1h0s.05-.15.05-.15c.07-.2.13-.41.18-.6l.12-.49c.02-.08.04-.15.05-.2.06-.29.11-.58.15-.87,0-.02,0-.04,0-.05,0-.02,0-.03,0-.05.05-.4.07-.79.07-1.18l-.44-27.18c-.01-.3-.01-.61,0-.92l.02-.32c.01-.22.03-.43.06-.66l.04-.24s.02-.1.02-.11c.04-.25.08-.49.13-.74.03-.14.06-.28.09-.42.04-.16.08-.33.12-.5.04-.17.09-.33.13-.5.04-.13.08-.26.12-.4.06-.19.12-.37.2-.58l.11-.31c.09-.24.19-.48.28-.71l.08-.18c.13-.29.26-.58.4-.87l.12-.25c.11-.21.22-.43.34-.64l.16-.28c.12-.2.23-.4.35-.6l.16-.26c.16-.26.33-.51.55-.83.2-.28.4-.55.6-.81.11-.14.22-.27.33-.4l.36-.43c.27-.31.55-.61.85-.91l.18-.17c.21-.2.41-.39.6-.56.14-.12.29-.25.43-.37.05-.04.11-.09.16-.13l10.41-8.1c.36-.28.72-.52,1.08-.75.1-.06.21-.14.31-.2.01,0,.02-.01.04-.02.23-.13.45-.24.66-.34l.11-.05c.05-.02.1-.05.15-.07.08-.04.17-.07.31-.12.18-.07.35-.13.53-.18h.03c.09-.04.17-.06.26-.08.02,0,.03,0,.05-.01.09-.02.18-.04.26-.05.11-.02.22-.04.32-.05.02,0,.05,0,.07,0l.17-.02c.13,0,.27-.01.4,0,.02,0,.09,0,.11,0,.09,0,.16.02.25.03.06,0,.13.01.19.02.02,0,.1.02.1.02.11.02.22.06.3.08,0,0,.1.03.11.04.02,0,.03.02.05.02.81.34,1.4,1.06,1.77,2.24l7.78,21.36c.52,1.36,1.5,2.36,2.77,2.81,1.46.52,3.18.28,4.85-.69l8.94-5.16s.01,0,.02-.01c.27-.15.54-.33.81-.53.1-.07.19-.13.29-.2,0,0,0,0,.01,0,.09-.07.18-.15.34-.28.23-.19.45-.37.66-.58.05-.04.12-.1.15-.14.13-.13.25-.26.38-.4.08-.09.17-.18.25-.27.01-.01.03-.03.04-.04.16-.19.32-.38.48-.59l.1-.13c.06-.09.13-.17.19-.26.02-.02.07-.1.09-.12.12-.17.23-.33.32-.49l.11-.17c.05-.09.11-.17.16-.26.01-.02.02-.04.02-.04.09-.16.18-.32.27-.48.07-.14.14-.27.2-.4.03-.07.06-.13.1-.2.06-.12.11-.24.17-.36.07-.17.14-.33.22-.53l.04-.11c.02-.05.04-.1.05-.15l.1-.27c.06-.19.12-.39.17-.57l.05-.2s.02-.05.02-.08l7.67-30.42c.06-.27.14-.54.21-.81.04-.13.08-.26.12-.39l.27-.81c.07-.19.14-.37.21-.56l.07-.16c.1-.24.2-.48.31-.72l.05-.1c.12-.26.24-.52.37-.77l.02-.04c.14-.27.29-.54.44-.81h0c.43-.75.9-1.47,1.41-2.14.03-.04.06-.08.09-.12l.08-.11c.15-.2.31-.39.46-.58.08-.09.16-.18.24-.29.05-.06.1-.11.15-.17.23-.26.47-.51.71-.75l.2-.21c.11-.11.23-.21.34-.32,0,0,.11-.1.11-.1l.22-.19c.12-.11.24-.2.39-.33l.27-.22c.14-.11.29-.21.44-.32l.23-.17c.15-.1.3-.19.46-.29.07-.04.15-.09.22-.14.17-.1.34-.18.51-.27.16-.08.32-.15.5-.23l.13-.06c.07-.03.13-.06.2-.09l10.4-3.91s.02,0,.02,0c.19-.07.41-.13.62-.19.16-.04.32-.08.47-.1.01,0,.03,0,.04,0l.13-.02s.13-.02.14-.02c.07,0,.13-.02.21-.02h0c.07,0,.15,0,.28,0h.06s.08,0,.12,0c.06,0,.12.01.2.02,0,0,.03,0,.06,0,.06,0,.13.02.19.03.04,0,.07.01.11.02.02,0,.06.01.09.02.12.03.24.08.36.13.04.02.08.04.11.06.12.06.25.13.36.21,1.08.79,1.65,2.53,1.55,4.82l-.28,27.44c-.01,1.21.24,2.29.71,3.18.01.28.02.56.04.83l1.66.97s.04.02.06.04c.04.02.08.04.12.06.07.04.14.07.22.11.04.02.07.04.11.05.06.03.12.05.18.07.05.02.11.04.16.06.04.01.09.03.13.04h0s.08.02.12.03c.09.02.18.04.27.06.04,0,.07.02.11.03.02,0,.11.01.13.02h.05c.06.01.12.02.18.03.06,0,.12.01.15.01.08,0,.15,0,.22,0,.04,0,.08,0,.13,0,.03,0,.07,0,.09,0,.03,0,.08,0,.11,0,.04,0,.07,0,.11-.01.12,0,.24-.02.37-.04.03,0,.07,0,.1-.01.09-.01.18-.03.26-.04.43-.08.88-.16,1.33-.24,0,0,0,0,0,0,.03,0,.07-.01.1-.02.18-.03.37-.06.56-.09.03,0,.06,0,.09-.01.21-.03.42-.07.64-.1,0,0,.02,0,.03,0l1.71-.25c.11-.02.22-.03.33-.05,0,0,.01,0,.02,0l3.88-.48c.09,0,.18-.02.3-.04.06,0,.11-.03.17-.04.09-.02.18-.04.26-.06.04,0,.08-.02.12-.03.06-.02.12-.04.18-.06.12-.04.23-.07.35-.12.06-.02.17-.06.22-.08.03-.01.05-.03.08-.04.25-.11.49-.22.74-.37.28-.16.55-.35.81-.55,0,0,.01,0,.02-.01l.23-.18s.03-.02.04-.04c.12-.1.24-.21.36-.31.05-.05.11-.1.16-.14.06-.05.12-.11.14-.13.04-.04.05-.05.09-.09,0,0,0,0,.01-.01.02-.02.03-.03.05-.05.05-.05.1-.1.15-.15,0,0,.11-.12.12-.12.06-.06.12-.12.2-.21,0,0,.07-.08.07-.09l.12-.14s.06-.07.07-.08l.12-.15c.05-.07.1-.14.2-.27h0s.05-.07.07-.1h0s.05-.07.06-.08c.1-.14.2-.29.28-.41,0-.01.08-.13.09-.15,0,0,.09-.15.09-.15l.08-.14c.08-.14.16-.28.26-.47.01-.03.03-.06.04-.08l.15-.3c.06-.13.12-.27.17-.38,0-.02.02-.04.03-.06l4.04-8.18,10.77-21.82c.09-.2.2-.39.3-.58.11-.21.21-.42.31-.62l.08-.14c.08-.14.17-.28.25-.41.14-.25.28-.49.45-.75.13-.2.26-.38.4-.58.11-.15.21-.31.32-.45l.11-.15c.14-.18.28-.36.43-.53.13-.16.25-.32.39-.48.12-.14.25-.27.37-.41.18-.2.36-.4.55-.59.13-.13.26-.25.4-.37.15-.14.31-.29.46-.42l.19-.16c.17-.14.35-.28.52-.41.07-.06.14-.11.23-.17l.14-.1c.28-.2.57-.39.85-.55.04-.02.08-.04.12-.06.29-.16.58-.31.9-.45.08-.03.16-.06.24-.09.17-.06.34-.13.51-.18.04-.01.09-.03.14-.05.16-.04.31-.07.47-.1.11-.02.2-.04.31-.06h.15s0-.01,0-.01c.22-.02.44-.03.65-.01l9.18.82s0,0,0,0c.17.01.32.05.47.09.04.01.1.01.14.03,0,0,.01,0,.02,0,.1.03.19.08.28.12.45.2.83.51,1.14.96,1.08,1.61,1.15,4.45.16,7.67l-8.34,30.35c-.78,2.85-.36,5.33,1.02,6.82-.02.07-.03.13-.04.2l.9.52s.04.02.06.04l.1.06s.05.03.07.04c.14.08.29.15.46.22.09.04.19.07.29.11.93.31,1.93.68,3.05,1.11.21.08.42.16.62.25l.43.17c.82.33,1.64.65,2.41.99.02.01.13.06.15.07.08.04.18.06.27.09.07.02.13.05.2.07,0,0,.01,0,.02,0,.03,0,.07.02.11.03.12.03.24.06.32.07,0,0,.03,0,.05,0,.05,0,.1.01.15.02l.15.02s.16.02.21.02c.02,0,.06,0,.08,0,.08,0,.16,0,.24,0h.01s.08,0,.1,0c.04,0,.07,0,.11,0,.05,0,.09,0,.14-.01.08,0,.17-.01.25-.02.02,0,.05,0,.07,0,.03,0,.06,0,.09-.01.07,0,.14-.03.24-.05.08-.02.17-.03.25-.05.02,0,.04,0,.07-.01.04,0,.08-.02.13-.03.02,0,.03,0,.05-.01.01,0,.02,0,.04-.01h0s.01,0,.02,0c.02,0,.03-.01.05-.02.13-.04.27-.08.4-.14.02,0,.05-.01.07-.02.06-.02.12-.04.18-.07.03-.01.08-.04.12-.06.26-.12.53-.24.79-.4.01,0,.02-.02.03-.02.2-.12.41-.26.62-.41.09-.06.18-.13.27-.2,0,0,.01,0,.02-.01.08-.06.17-.13.29-.23.02-.01.03-.03.05-.04.18-.15.37-.31.54-.48,0,0,.02-.02.03-.02.05-.04.16-.14.2-.18l.18-.19s.03-.03.04-.04c.06-.07.13-.13.19-.2.02-.02.04-.04.06-.07.06-.06.11-.12.16-.17.14-.16.27-.32.4-.49l20.33-25.81s.01-.01.01-.02c.3-.4.61-.78.93-1.14.03-.04.06-.07.1-.11l.3-.32c.27-.29.53-.57.81-.82l.16-.15c.13-.12.26-.22.39-.33.22-.18.43-.38.65-.54,0,0,.08-.06.08-.06l.07-.05c.35-.26.71-.5,1.06-.71,0,0,0,0,0,0,.28-.16.59-.31.96-.47l.27-.11c.18-.07.35-.13.53-.18l.27-.08c.08-.02.17-.04.29-.06.12-.02.23-.05.33-.06l.2-.02c.12,0,.24-.02.38-.01,0,0,.11,0,.12,0,.02,0,.04,0,.06,0,.07,0,.13,0,.2.02.01,0,.03,0,.04,0,.07.01.15.03.22.04.09.02.17.04.24.06.06.02.11.04.17.06.06.02.12.06.19.09.17.08.33.18.48.3l6.77,5.4c1.94,1.57,2.18,6.63-.83,12.11l-15.41,29.46c-1.75,3.46-1.82,7.05-.19,9.13,1.51,1.98,2.95,4.05,4.3,6.15,1.47,2.28,4.32,2.73,7.1,1.14.09-.05.17-.1.24-.17,0,0,0,0,0,0l24.16-19.29c.24-.21.49-.4.74-.58.39-.29.78-.56,1.17-.79.16-.09.31-.17.46-.25.15-.07.31-.15.48-.22l.3-.12c.17-.07.35-.13.55-.19.09-.03.18-.05.28-.08.09-.02.18-.04.28-.06.11-.02.22-.04.34-.06l.21-.02c.12-.01.25-.01.38,0,.01,0,.1,0,.11,0,.15,0,.29.02.4.04.02,0,.1.02.12.03.1.02.2.05.38.11.74.28,1.31.89,1.67,1.83l3.63,9.34c1.4,3.48-.43,9.62-4.2,14.01l-20.69,25.19c-2.23,2.79-3.31,6.37-2.76,9.18.62,2.74,1.08,5.78,1.52,8.72l.02.13c.21,1.76,1.04,3.16,2.33,3.93,1.28.76,2.87.84,4.49.2l23.32-9.12s.04-.02.06-.03h.02c.06-.03.11-.05.17-.07l.17-.06c.21-.08.42-.16.63-.22l.22-.07c.12-.03.23-.05.34-.07,0,0,.1-.02.1-.02l.27-.04s.03,0,.05,0c.03,0,.07,0,.08,0,.09,0,.18-.02.26-.02.08,0,.16,0,.24,0,.08,0,.15,0,.22,0h.06c.07.02.13.03.19.04.05,0,.1.02.16.03,0,0,.05.01.09.02.06.02.12.04.17.05.05.02.09.03.14.05l.05.02c.13.05.26.11.37.19,1.03.63,1.65,2.02,1.74,3.82l.04,12.23c-.01,4.82-3.3,10.94-7.52,13.97l-23.38,17.83c-2.56,2.01-4.44,5.36-4.79,8.5-.42,3.19-.83,6.16-1.3,9.33-.52,3.19-.21,5.46.96,6.94.75.95,1.81,1.5,3.08,1.59l20.77,1.27s.07,0,.1,0c.26,0,.5.04.72.09.07.02.13.05.2.07.15.05.29.1.43.17.33.18.62.42.86.74,1.11,1.46,1.28,4.16.45,7.21l-3.56,13.44c-1.2,4.54-4.37,8.96-7.87,10.98-.61.35-1.21.62-1.88.82l-23.18,8.18c-.1.04-.2.08-.29.13-2.96,1.62-5.12,4.07-6.25,7.12-1.33,3.76-2.78,7.54-4.31,11.24-1.55,3.71-1.14,7.19,1.08,8.88l15.57,11.59s.08.06.12.08c1.29.82,1.93,3.04,1.53,5.94l-65.42,37.77c-.15.09-.29.2-.42.32-.02.02-.03.05-.06.07-.1.11-.19.22-.26.34-.02.03-.03.07-.04.11-.06.12-.12.24-.15.37-.02.06-.02.13-.03.2-.02.11-.04.21-.04.32,0,0,0,0,0,0s0,0,0,0l.17,60.24c-.94.17-1.93.08-2.69-.67ZM335.46,381.98l.84.49,18.02,10.47.34,120.57.12,41.71-18.87-10.96-.46-162.28ZM527.87,457.63c-.62.36-1,1.02-1,1.74l.14,49-42.79-24.39c-.62-.35-1.38-.35-1.99,0l-123.44,71.27v-4.53s-.46-157.77-.46-157.77l199.36-115.1.46,162.3-30.28,17.48Z"/><path class="cls-1" d="M377.95,420.18c.31.18.65.27,1,.27s.69-.09,1-.27l93.16-53.78c.62-.36,1-1.02,1-1.74l-.03-9.32c0-.71-.38-1.37-1-1.73-.62-.36-1.38-.36-2,0l-93.16,53.78c-.62.36-1,1.02-1,1.74l.03,9.32c0,.71.38,1.37,1,1.73ZM470.09,358.8v4.71s-89.15,51.48-89.15,51.48v-4.71s89.15-51.48,89.15-51.48Z"/><path class="cls-1" d="M512.15,430.39c-.62-.36-1.38-.36-2,0l-131.95,76.18c-.62.36-1,1.02-1,1.74l.03,9.32c0,.71.38,1.37,1,1.73.31.18.65.27,1,.27s.69-.09,1-.27l131.95-76.18c.62-.36,1-1.02,1-1.74l-.03-9.32c0-.71-.38-1.37-1-1.73ZM381.22,514.16v-4.71s127.94-73.88,127.94-73.88v4.71s-127.94,73.88-127.94,73.88Z"/><path class="cls-1" d="M538.11,392.62c0-.71-.38-1.37-1-1.73-.62-.36-1.38-.36-2,0l-156.98,90.63c-.62.36-1,1.02-1,1.74l.03,9.32c0,.71.38,1.37,1,1.73.31.18.65.27,1,.27s.69-.09,1-.27l156.98-90.63c.62-.36,1-1.02,1-1.74l-.03-9.32ZM381.15,489.12v-4.71s152.97-88.33,152.97-88.33v4.71s-152.97,88.33-152.97,88.33Z"/><path class="cls-1" d="M378.09,469.26c.31.18.65.27,1,.27s.69-.09,1-.27l147.28-85.03c.62-.36,1-1.02,1-1.74l-.03-9.32c0-.71-.38-1.37-1-1.73-.62-.36-1.38-.36-2,0l-147.28,85.03c-.62.36-1,1.02-1,1.74l.03,9.32c0,.71.38,1.37,1,1.73ZM524.36,376.63v4.71s-143.28,82.73-143.28,82.73v-4.71s143.28-82.73,143.28-82.73Z"/><path class="cls-1" d="M378.02,444.22c.31.18.65.27,1,.27s.69-.09,1-.27l156.98-90.63c.62-.36,1-1.02,1-1.74l-.03-9.32c0-.71-.38-1.37-1-1.73-.62-.36-1.38-.36-2,0l-156.98,90.63c-.62.36-1,1.02-1,1.74l.03,9.32c0,.71.38,1.37,1,1.73ZM533.98,345.99v4.71s-152.97,88.33-152.97,88.33v-4.71s152.97-88.33,152.97-88.33Z"/></svg>