<?xml version="1.0" encoding="UTF-8"?><svg id="Layer_1" xmlns="http://www.w3.org/2000/svg" viewBox="0 0 600 600"><defs><style>.cls-1{fill:#051414;}</style></defs><path class="cls-1" d="M483.78,60.4c0-.09-.02-.18-.04-.27-.01-.08-.01-.17-.03-.25-.02-.08-.06-.16-.1-.24-.03-.08-.06-.17-.1-.24-.04-.07-.1-.13-.15-.19-.05-.07-.1-.15-.17-.22-.06-.06-.13-.1-.2-.16-.07-.05-.13-.12-.21-.16l-13.46-7.82c-.62-.36-1.38-.36-2,0l-32.54,18.79-.09-31.13c0-.09-.02-.18-.04-.27-.01-.08-.01-.17-.03-.25-.02-.08-.06-.15-.09-.23-.03-.08-.06-.17-.11-.25-.03-.06-.08-.11-.12-.16-.06-.09-.12-.18-.19-.25-.04-.04-.09-.07-.13-.1-.09-.08-.18-.16-.28-.22l-13.46-7.82c-.62-.36-1.38-.36-2,0l-32.54,18.79-.09-31.13c0-.09-.02-.18-.04-.27-.01-.08-.01-.17-.03-.25-.02-.08-.06-.16-.1-.24-.03-.08-.06-.17-.1-.24-.04-.07-.1-.13-.15-.19-.05-.07-.1-.15-.17-.22-.06-.06-.13-.1-.2-.16-.07-.05-.13-.12-.21-.16l-13.46-7.82c-.62-.36-1.38-.36-2,0L116.13,153.14c-.15.09-.29.2-.42.32-.02.02-.03.05-.06.07-.1.11-.19.22-.26.34-.02.03-.03.07-.04.11-.06.12-.12.24-.15.37-.02.06-.02.13-.03.2-.02.11-.04.21-.04.32,0,0,0,0,0,0s0,0,0,0l1.09,384.73c0,.71.38,1.37,1,1.72l13.46,7.82s0,0,0,0c0,0,0,0,0,0,.09.05.18.07.27.11.07.03.14.07.22.09.17.04.34.07.51.07.35,0,.69-.09,1-.27l32.54-18.79.09,31.13c0,.71.38,1.37,1,1.72l13.46,7.82s0,0,0,0c0,0,0,0,0,0,.09.05.18.07.27.11.07.03.14.07.22.09.17.04.34.07.51.07.35,0,.69-.09,1-.27l32.54-18.79.09,31.13c0,.71.38,1.37,1,1.72l13.46,7.82s0,0,0,0c0,0,0,0,0,0,.09.05.18.07.27.11.07.03.14.07.22.09.17.04.34.07.51.07.35,0,.69-.09,1-.27l253.01-146.07c.62-.36,1-1.02,1-1.74l-1.09-384.73ZM468.31,54.89l9.48,5.51-178.17,102.86-70.85,40.9-9.48-5.51L468.31,54.89ZM419.22,33l9.48,5.51-177.91,102.71-71.11,41.05-9.48-5.51L419.22,33ZM370.13,11.11l9.48,5.51-177.52,102.49-71.49,41.28-9.48-5.51L370.13,11.11ZM119.14,158.35l9.46,5.5.78,276.07.29,104.02-9.46-5.5-1.08-380.09ZM133.67,543.96l-.06-22.51-1.01-357.6L381.61,20.08l.08,29.97-216.47,124.98c-.15.09-.29.2-.42.32-.02.02-.03.05-.06.07-.1.11-.19.22-.26.34-.02.03-.03.07-.04.11-.06.12-.12.24-.15.37-.02.06-.02.13-.03.2-.02.11-.04.21-.04.32,0,0,0,0,0,0s0,0,0,0l.99,348.99-31.53,18.21ZM168.23,180.24l9.46,5.5.78,275.42.3,104.67-9.46-5.5-1.08-380.09ZM182.76,565.85l-.06-22.51-1.01-357.6L430.7,41.97l.08,29.97-216.48,124.98c-.15.09-.29.2-.42.32-.02.02-.03.05-.06.07-.1.11-.19.22-.26.34-.02.03-.03.07-.04.11-.06.12-.12.24-.15.37-.02.06-.02.13-.03.2-.02.11-.04.21-.04.32,0,0,0,0,0,0s0,0,0,0l.99,348.99-31.54,18.21ZM217.32,202.13l9.46,5.5.78,276.07.29,104.02-9.46-5.5-1.08-380.09ZM231.85,587.75l-.06-22.51-1.01-357.6L479.79,63.86l1.08,380.12-249.01,143.77Z"/><path class="cls-1" d="M449.64,414.2c-.01-.08-.01-.16-.03-.23-.03-.1-.08-.2-.12-.29-.03-.06-.04-.13-.08-.19-.05-.09-.13-.17-.2-.26-.04-.05-.07-.11-.12-.15-.07-.07-.15-.12-.23-.17-.06-.05-.12-.1-.19-.15l-.88-.51c-.62-.36-1.39-.36-2,0l-184.63,106.59c-.15.09-.29.2-.42.32-.06.07-.11.14-.17.22-.05.07-.11.12-.15.19-.05.08-.07.18-.11.27-.03.07-.07.14-.09.21-.02.08-.02.17-.03.25-.01.09-.04.18-.04.27,0,0,0,0,0,0s0,0,0,0l.03,10.54c0,.71.38,1.37,1,1.72l.88.51s0,0,0,0c0,0,0,0,0,0,.09.05.19.08.29.12.07.02.13.06.19.08.17.04.34.07.51.07.35,0,.69-.09,1-.27l184.63-106.59c.62-.36,1-1.02,1-1.74l-.03-10.54c0-.1-.02-.19-.04-.28ZM265.07,528.16l-.02-5.92,51.74-29.87,128.89-74.42.02,5.92-180.63,104.29Z"/><path class="cls-1" d="M460.5,379.87c0-.1-.02-.19-.04-.28-.01-.08-.01-.16-.03-.23-.03-.1-.08-.2-.12-.29-.03-.06-.04-.13-.08-.19-.05-.09-.13-.17-.2-.26-.04-.05-.07-.11-.12-.15-.07-.07-.15-.12-.23-.17-.06-.05-.12-.1-.19-.15l-.88-.51c-.62-.36-1.39-.36-2,0l-195.53,112.89c-.15.09-.29.2-.42.32-.02.02-.03.05-.06.07-.1.11-.19.22-.26.34-.02.03-.03.07-.04.11-.06.12-.12.24-.15.37-.02.06-.02.13-.03.2-.02.11-.04.21-.04.32,0,0,0,0,0,0s0,0,0,0l.03,10.54c0,.71.38,1.37,1,1.72l.88.51s0,0,0,0c0,0,0,0,0,0,.07.04.15.06.22.09.09.04.17.08.26.11.17.04.34.07.51.07.35,0,.69-.09,1-.27l195.53-112.89c.62-.36,1-1.02,1-1.74l-.03-10.54ZM264.99,499.85v-1.65s-.02-4.27-.02-4.27l167.42-96.66,24.11-13.92.02,5.92-191.54,110.58Z"/><path class="cls-1" d="M261.03,476.2l.88.51s0,0,0,0c0,0,0,0,0,0,.07.04.15.06.22.09.09.04.17.08.26.11.17.04.34.07.51.07.35,0,.69-.09,1-.27l183.45-105.92c.62-.36,1-1.02,1-1.74l-.03-10.54c0-.1-.02-.19-.04-.28-.01-.08-.01-.16-.03-.23-.03-.1-.08-.2-.12-.29-.03-.06-.04-.13-.08-.19-.05-.09-.13-.17-.2-.26-.04-.05-.07-.11-.12-.15-.07-.07-.15-.12-.23-.17-.06-.05-.12-.1-.19-.15l-.88-.51c-.62-.36-1.38-.36-2,0l-183.45,105.92c-.15.09-.29.2-.42.32-.06.06-.1.13-.15.2-.05.07-.12.14-.16.21-.04.07-.07.16-.1.24-.03.08-.08.16-.1.24-.02.07-.02.15-.03.22-.02.1-.04.19-.04.29,0,0,0,0,0,0s0,0,0,0l.03,10.54c0,.71.38,1.37,1,1.72ZM264.91,471.52v-1.65s-.02-4.28-.02-4.28l156.82-90.54,22.63-13.07.02,5.92-179.46,103.61Z"/><path class="cls-1" d="M260.95,447.88l.88.51s0,0,0,0c0,0,0,0,0,0,.09.05.19.08.29.12.07.02.13.06.19.08.17.04.34.07.51.07.35,0,.69-.09,1-.27l189.38-109.34c.62-.36,1-1.02,1-1.74l-.03-10.54c0-.09-.02-.18-.04-.28-.01-.08-.01-.16-.03-.24-.03-.1-.08-.2-.12-.3-.03-.06-.04-.12-.07-.18-.05-.09-.12-.16-.19-.24-.04-.06-.08-.12-.13-.17-.06-.06-.13-.1-.2-.16-.07-.05-.13-.12-.21-.16l-.88-.51c-.62-.36-1.38-.36-2.01,0l-189.38,109.34c-.15.09-.29.2-.42.32-.08.08-.15.18-.21.28-.03.05-.07.08-.1.13-.04.08-.07.16-.1.24-.03.08-.07.15-.1.24-.02.07-.02.15-.03.22-.02.1-.04.19-.04.29,0,0,0,0,0,0s0,0,0,0l.03,10.54c0,.71.38,1.37,1,1.72ZM264.83,443.21l-.02-5.92,185.38-107.03.02,5.93-185.38,107.03Z"/><path class="cls-1" d="M260.87,419.56l.88.51s0,0,0,0c0,0,0,0,0,0,.11.07.24.11.36.15.04.01.08.04.13.05.17.04.34.07.51.07.35,0,.69-.09,1-.27l183.45-105.92c.62-.36,1-1.02,1-1.74l-.03-10.54c0-.1-.02-.19-.04-.29-.01-.07-.01-.15-.03-.22-.03-.11-.08-.21-.13-.31-.03-.05-.04-.11-.07-.17-.05-.09-.12-.16-.19-.24-.04-.06-.08-.12-.13-.17-.05-.05-.11-.09-.17-.13-.08-.06-.15-.14-.24-.19l-.88-.51c-.62-.36-1.39-.36-2,0l-183.45,105.91c-.31.18-.56.43-.73.73-.01.02-.02.05-.03.07-.07.13-.13.27-.17.41-.02.06-.02.13-.03.2-.02.11-.04.21-.04.32,0,0,0,0,0,0s0,0,0,0l.03,10.54c0,.71.38,1.37.99,1.72ZM264.75,414.88l-.02-5.92,179.46-103.61.02,5.92-179.46,103.61Z"/><path class="cls-1" d="M260.79,391.24l.88.51s0,0,0,0c0,0,0,0,0,0,.07.04.15.06.22.09.09.04.17.08.26.11.17.04.34.07.51.07.35,0,.69-.09,1-.27l195.53-112.89c.62-.36,1-1.02,1-1.74l-.03-10.54c0-.09-.02-.18-.04-.28-.01-.08-.01-.16-.03-.24-.03-.1-.08-.2-.12-.3-.03-.06-.04-.12-.07-.18-.05-.09-.12-.16-.19-.24-.04-.06-.08-.12-.13-.17-.06-.06-.13-.1-.2-.16-.07-.05-.13-.12-.21-.16l-.88-.51c-.62-.36-1.38-.36-2.01,0l-195.53,112.89c-.15.09-.29.2-.42.32-.06.06-.1.13-.15.2-.05.07-.12.14-.16.21-.04.07-.07.16-.1.24-.03.08-.08.16-.1.24-.02.07-.02.15-.03.22-.02.1-.04.19-.04.29,0,0,0,0,0,0s0,0,0,0l.03,10.54c0,.71.38,1.37,1,1.72ZM264.67,386.56v-1.65s-.02-4.28-.02-4.28l191.54-110.58.02,5.92-191.54,110.58Z"/><path class="cls-1" d="M260.71,362.92l.88.51s0,0,0,0c0,0,0,0,0,0,.07.04.15.06.22.09.09.04.17.08.26.11.17.04.34.07.51.07.35,0,.69-.09,1-.27l164.36-94.89c.62-.36,1-1.02,1-1.74l-.03-10.54c0-.1-.02-.19-.04-.29-.01-.07-.01-.15-.03-.22-.03-.11-.08-.21-.13-.31-.03-.05-.04-.11-.07-.17-.05-.09-.12-.16-.19-.24-.04-.06-.08-.12-.13-.17-.05-.05-.11-.09-.17-.13-.08-.06-.15-.14-.24-.19l-.88-.51c-.62-.36-1.38-.36-2,0l-164.36,94.89c-.15.09-.29.2-.42.32-.02.02-.03.05-.06.07-.1.11-.19.22-.26.34-.02.03-.03.07-.04.11-.06.12-.12.24-.15.37-.02.06-.02.13-.03.2-.02.11-.04.21-.04.32,0,0,0,0,0,0s0,0,0,0l.03,10.54c0,.71.38,1.37,1,1.72ZM264.59,358.25v-1.65s-.02-4.27-.02-4.27l160.36-92.59.02,5.92-160.37,92.59Z"/><path class="cls-1" d="M459.95,209.43c-.02-.08-.06-.15-.09-.22-.03-.09-.06-.18-.11-.26-.05-.08-.11-.15-.17-.22-.05-.06-.09-.13-.15-.19-.09-.09-.19-.15-.29-.22-.04-.03-.08-.07-.12-.09h0s0,0,0,0,0,0,0,0l-.88-.51c-.62-.36-1.38-.36-2,0l-103.81,59.93c-.15.09-.29.2-.42.32-.02.02-.03.05-.06.07-.1.11-.19.22-.26.34-.02.03-.03.07-.04.11-.06.12-.12.24-.15.37-.02.06-.02.13-.03.2-.02.11-.04.21-.04.32,0,0,0,0,0,0s0,0,0,0l.03,10.54c0,.71.38,1.37,1,1.72l.88.51s0,0,0,0c0,0,0,0,0,0,.07.04.15.06.22.09.09.04.17.08.26.11.17.04.34.07.51.07.35,0,.69-.09,1-.27l103.81-59.93c.62-.36,1-1.02,1-1.74l-.03-10.54c0-.09-.02-.17-.03-.25-.01-.09-.01-.18-.04-.26ZM356.23,276.97v-1.65s-.02-4.27-.02-4.27l87.69-50.63,12.13-7,.02,5.92-99.81,57.63Z"/><path class="cls-1" d="M351.28,251.6c0,.71.38,1.37.99,1.72l.88.51s0,0,0,0c0,0,0,0,0,0,.1.06.21.09.32.13.06.02.11.05.16.07.17.04.34.07.51.07.35,0,.69-.09,1-.27l97.4-56.23c.62-.36,1-1.02,1-1.74l-.03-10.54c0-.09-.02-.18-.04-.27-.01-.08-.01-.17-.03-.25-.03-.1-.07-.19-.12-.28-.03-.07-.05-.14-.08-.2-.05-.09-.13-.17-.2-.26-.04-.05-.07-.11-.12-.15-.08-.08-.17-.14-.26-.2-.05-.04-.09-.08-.15-.12h0s0,0,0,0c0,0,0,0,0,0l-.87-.51c-.62-.36-1.38-.36-2.01,0l-97.4,56.23c-.15.09-.29.2-.42.32-.06.06-.1.13-.15.2-.05.07-.12.14-.16.21-.04.07-.07.16-.1.24-.03.08-.08.16-.1.24-.02.07-.02.15-.03.22-.02.1-.04.19-.04.29,0,0,0,0,0,0s0,0,0,0l.03,10.54ZM356.15,248.65v-1.65s-.02-4.28-.02-4.28l80.73-46.61,12.67-7.32.02,5.92-93.4,53.93Z"/><path class="cls-1" d="M351.75,211.33c-.06.06-.1.13-.15.2-.05.07-.12.14-.16.21-.04.07-.07.16-.1.24-.03.08-.08.16-.1.24-.02.07-.02.15-.03.22-.02.1-.04.19-.04.29,0,0,0,0,0,0s0,0,0,0l.03,10.54c0,.71.38,1.37,1,1.72l.88.51s0,0,0,0c0,0,0,0,0,0,.07.04.15.06.22.09.09.04.17.08.26.11.17.04.34.07.51.07.35,0,.69-.09,1-.27l103.81-59.93c.62-.36,1-1.02,1-1.74l-.03-10.54c0-.1-.02-.19-.04-.29-.01-.07-.01-.15-.03-.22-.03-.11-.08-.21-.13-.31-.03-.05-.04-.11-.07-.17-.05-.09-.12-.16-.19-.24-.04-.06-.08-.12-.13-.17-.05-.05-.11-.09-.17-.13-.08-.06-.15-.14-.24-.19l-.88-.51c-.62-.36-1.39-.36-2,0l-103.81,59.93c-.15.09-.29.2-.42.32ZM356.07,220.33v-1.65s-.02-4.28-.02-4.28l99.81-57.63.02,5.93-99.81,57.63Z"/><path class="cls-1" d="M351.12,196.09c0,.71.38,1.37,1,1.72l.88.51s0,0,0,0c0,0,0,0,0,0,.07.04.15.06.22.09.09.04.17.08.26.11.17.04.34.07.51.07.35,0,.69-.09,1-.27l83.02-47.93c.62-.36,1-1.02,1-1.74l-.03-10.54c0-.09-.02-.17-.03-.25-.01-.09-.01-.18-.04-.26-.02-.08-.06-.15-.09-.22-.03-.09-.06-.18-.11-.26-.05-.08-.11-.15-.17-.22-.05-.06-.09-.13-.15-.19-.09-.09-.19-.15-.29-.22-.04-.03-.08-.07-.12-.09h0s0,0,0,0c0,0,0,0,0,0l-.88-.51c-.62-.36-1.38-.36-2,0l-83.02,47.93c-.15.09-.29.2-.42.32-.06.06-.1.13-.15.2-.05.07-.12.14-.16.21-.04.07-.07.16-.1.24-.03.08-.08.16-.1.24-.02.07-.02.15-.03.22-.02.1-.04.19-.04.29,0,0,0,0,0,0s0,0,0,0l.03,10.54ZM355.99,193.14v-1.65s-.02-4.28-.02-4.28l68.51-39.55,10.52-6.07.02,5.92-79.03,45.63Z"/><path class="cls-1" d="M261.05,305.85c0,.24.04.5.16.74.07.15.18.29.34.38l.88.51s-.02-.02-.03-.03c.1.07.23.12.38.13l32.26,2.92-.04-.03s.08.02.14.03c.25,0,.5-.1.73-.23.36-.22.65-.51.88-.79l32.34-40.21c.38-.48.58-.89.76-1.34.17-.44.28-.85.29-1.37l-.23-42.72c0-.26-.04-.52-.16-.76-.07-.14-.19-.27-.41-.36.04.02.08.03.11.05h0s0,0,0,0l-.88-.51s0,0-.01,0c-.03-.02-.07-.04-.11-.05-.02,0-.04-.02-.07-.02-.01,0-.03-.01-.04-.02-.01,0-.02,0-.04-.01-.07-.02-.14-.04-.22-.05,0,0,0,0,0,0l-32.17-2.91s-.02,0-.03,0c-.03,0-.06,0-.09,0-.04,0-.08,0-.11.01-.05,0-.1.02-.14.03,0,0-.01,0-.02,0,0,0-.02,0-.03,0-.05.02-.1.03-.15.05-.08.03-.16.07-.23.12-.21.13-.39.27-.55.43-.01.01-.03.02-.04.03-.07.07-.14.14-.2.21-.04.04-.07.08-.1.12l-32.34,40.21s-.02.03-.03.04c-.03.03-.05.07-.08.1-.03.04-.05.07-.08.11-.04.06-.08.12-.12.18-.04.06-.07.11-.1.17-.03.05-.05.09-.08.14,0,0,0,0,0,0,0,0,0,0,0,.01-.03.06-.06.11-.08.16-.03.06-.06.12-.08.18-.03.07-.06.14-.09.21,0,0,0,0,0,0-.03.08-.06.16-.08.23,0,.02,0,.03-.01.05,0,.02-.01.05-.02.07,0,.03-.02.06-.03.09-.01.05-.03.1-.04.16,0,.02,0,.03-.01.05,0,0,0,.01,0,.02-.02.1-.04.2-.05.31h0c-.02.12-.03.25-.03.39,0,0,0,0,0,0h0s.23,42.72.23,42.72ZM293.1,270.2l.18,34.37h0s-25.95-2.34-25.95-2.34l25.77-32.03ZM297.24,259.47l-.18-34.39,25.88,2.34h.08s-25.77,32.05-25.77,32.05ZM293.38,262.27l-25.97-2.34,25.79-32.06.18,34.4ZM325.57,252.34l.07,12.82-25.96-2.34,12.96-16.12.24-.3,12.56-15.62.12,21.55ZM297.76,301.83l-.19-34.79,26.26,2.37-13.91,17.29-6.73,8.36-5.44,6.77ZM290.97,267.26l-25.47,31.67-.18-33.98,22.98,2.07,2.68.24ZM262.14,264.59h0ZM294.77,310.43s0,0,0,0c0,0,0,0,0,0ZM329.54,223.43s0-.03-.01-.04c.01.03.02.06.03.1,0,0,0,0,0,0,0-.02-.01-.03-.02-.05ZM329.39,223.11s.04.06.06.09c-.02-.03-.04-.06-.06-.09ZM329.2,222.92s.05.04.08.06c-.02-.02-.05-.04-.08-.06ZM261.82,264.2s-.03-.05-.04-.08c0,0,0,0,0,0,.01.03.03.06.04.09h0ZM262.22,307.3s.03.03.05.05c-.02-.02-.04-.03-.05-.05ZM294.7,310.31l.23.02h0,0l-.23-.02h0ZM295.3,310.29h0s0,0,0,0c0,0,0,0,0,0ZM329.21,222.69s.02,0,.03.01c-.08-.03-.18-.05-.29-.07-.06,0-.12.01-.18.03h0c.06-.01.12-.02.18-.03.1.02.18.04.26.06ZM261.75,264.01s0,0,0,0c-.03-.11-.04-.22-.05-.35,0,0,0-.01,0-.02,0,.14.02.26.05.37Z"/></svg>